<svg xmlns="http://www.w3.org/2000/svg" xmlns:xlink="http://www.w3.org/1999/xlink" contentStyleType="text/css" data-diagram-type="ACTIVITY" height="1257px" preserveAspectRatio="none" style="width:779px;height:1257px;background:#FFFFFF;" version="1.1" viewBox="0 0 779 1257" width="779px" zoomAndPan="magnify"><?plantuml 1.2026.6?><defs/><g><ellipse cx="382.3461" cy="25" fill="#38A169" rx="10" ry="10" style="stroke:#222222;stroke-width:1;"/><rect class="hsp-shadow-clone" fill="#000000" opacity="0.2" height="44.4453" rx="4" ry="4" width="412.9297" x="177.8812" y="57.5" pointer-events="none"/><rect fill="#EDF2F7" height="44.4453" rx="4" ry="4" style="stroke:#4A5568;stroke-width:0.5;" width="412.9297" x="175.8812" y="55"/><text fill="#1A202C" font-family="Arial" font-size="21" font-weight="700" lengthAdjust="spacing" textLength="92.2339" x="185.8812" y="84.4927">Receive</text><text fill="#1A202C" font-family="Arial" font-size="21" font-weight="700" lengthAdjust="spacing" textLength="183.9346" x="285.4261" y="84.4927">candidate_code</text><text fill="#1A202C" font-family="Arial" font-size="21" font-weight="700" lengthAdjust="spacing" textLength="44.1533" x="476.6718" y="84.4927">and</text><text fill="#1A202C" font-family="Arial" font-size="21" font-weight="700" lengthAdjust="spacing" textLength="50.6748" x="528.1361" y="84.4927">task</text><rect fill="none" height="343.1172" rx="4" ry="4" style="stroke:#000000;stroke-width:1.5;" width="440.4561" x="162.118" y="109.4453"/><path d="M398.1449,109.4453 L398.1449,126.8906 L388.1449,136.8906 L162.118,136.8906" fill="none" style="stroke:#000000;stroke-width:1.5;"/><text fill="#1A202C" font-family="Arial" font-size="21" lengthAdjust="spacing" textLength="226.0269" x="165.118" y="129.938" font-weight="700">Case Generation (Z3)</text><rect class="hsp-shadow-clone" fill="#000000" opacity="0.2" height="44.4453" rx="4" ry="4" width="378.9893" x="194.8514" y="156.3906" pointer-events="none"/><rect fill="#EDF2F7" height="44.4453" rx="4" ry="4" style="stroke:#4A5568;stroke-width:0.5;" width="378.9893" x="192.8514" y="153.8906"/><text fill="#1A202C" font-family="Arial" font-size="21" font-weight="700" lengthAdjust="spacing" textLength="358.9893" x="202.8514" y="183.3833">Parse FSF scenarios from task</text><rect class="hsp-shadow-clone" fill="#000000" opacity="0.2" height="93.3359" rx="4" ry="4" width="420.4561" x="174.118" y="220.8359" pointer-events="none"/><rect fill="#EDF2F7" height="93.3359" rx="4" ry="4" style="stroke:#4A5568;stroke-width:0.5;" width="420.4561" x="172.118" y="218.3359"/><text fill="#1A202C" font-family="Arial" font-size="21" font-weight="700" lengthAdjust="spacing" textLength="258.3882" x="182.118" y="247.8286">For each scenario S_i:</text><text fill="#1A202C" font-family="Arial" font-size="21" font-weight="700" lengthAdjust="spacing" textLength="400.4561" x="182.118" y="272.2739">encode guard G_i and precedence</text><text fill="#1A202C" font-family="Arial" font-size="21" font-weight="700" lengthAdjust="spacing" textLength="224.6528" x="182.118" y="296.7192">constraints into Z3</text><rect class="hsp-shadow-clone" fill="#000000" opacity="0.2" height="44.4453" rx="4" ry="4" width="373.2881" x="197.702" y="334.1719" pointer-events="none"/><rect fill="#EDF2F7" height="44.4453" rx="4" ry="4" style="stroke:#4A5568;stroke-width:0.5;" width="373.2881" x="195.702" y="331.6719"/><text fill="#1A202C" font-family="Arial" font-size="21" font-weight="700" lengthAdjust="spacing" textLength="353.2881" x="205.702" y="361.1646">Query Z3 for satisfying model</text><rect class="hsp-shadow-clone" fill="#000000" opacity="0.2" height="44.4453" rx="4" ry="4" width="349.5913" x="209.5504" y="398.6172" pointer-events="none"/><rect fill="#EDF2F7" height="44.4453" rx="4" ry="4" style="stroke:#4A5568;stroke-width:0.5;" width="349.5913" x="207.5504" y="396.1172"/><text fill="#1A202C" font-family="Arial" font-size="21" font-weight="700" lengthAdjust="spacing" textLength="329.5913" x="217.5504" y="425.6099">Build concrete case set D(t)</text><rect fill="none" height="417.4604" rx="4" ry="4" style="stroke:#000000;stroke-width:1.5;" width="738.3689" x="21.4977" y="462.5625"/><path d="M289.7731,462.5625 L289.7731,480.0078 L279.7731,490.0078 L21.4977,490.0078" fill="none" style="stroke:#000000;stroke-width:1.5;"/><text fill="#1A202C" font-family="Arial" font-size="21" lengthAdjust="spacing" textLength="258.2754" x="24.4977" y="483.0552" font-weight="700">Conformance Evaluation</text><rect class="hsp-shadow-clone" fill="#000000" opacity="0.2" height="44.4453" rx="4" ry="4" width="332.4878" x="218.1022" y="509.5078" pointer-events="none"/><rect fill="#EDF2F7" height="44.4453" rx="4" ry="4" style="stroke:#4A5568;stroke-width:0.5;" width="332.4878" x="216.1022" y="507.0078"/><text fill="#1A202C" font-family="Arial" font-size="21" font-weight="700" lengthAdjust="spacing" textLength="312.4878" x="226.1022" y="536.5005">passed := 0, total := |D(t)|</text><rect class="hsp-shadow-clone" fill="#000000" opacity="0.2" height="44.4453" rx="4" ry="4" width="417.749" x="175.4716" y="645.0664" pointer-events="none"/><rect fill="#EDF2F7" height="44.4453" rx="4" ry="4" style="stroke:#4A5568;stroke-width:0.5;" width="417.749" x="173.4716" y="642.5664"/><text fill="#1A202C" font-family="Arial" font-size="21" font-weight="700" lengthAdjust="spacing" textLength="397.749" x="183.4716" y="672.0591">Execute candidate on case inputs</text><polygon class="hsp-shadow-clone" fill="#000000" opacity="0.2" transform="translate(2.0,2.5)"  points="224.6974,712.687,539.9948,712.687,551.9948,724.9097,539.9948,737.1323,224.6974,737.1323,212.6974,724.9097,224.6974,712.687" style="stroke:#DD6B20;stroke-width:0.5;stroke-linejoin:miter;stroke-miterlimit:10;"/>points="224.6974,712.687,539.9948,712.687,551.9948,724.9097,539.9948,737.1323,224.6974,737.1323,212.6974,724.9097,224.6974,712.687" style="stroke:#DD6B20;stroke-width:0.5;stroke-linejoin:miter;stroke-miterlimit:10;"<polygon fill="#FFFAF0" points="224.6974,712.687,539.9948,712.687,551.9948,724.9097,539.9948,737.1323,224.6974,737.1323,212.6974,724.9097,224.6974,712.687" style="stroke:#DD6B20;stroke-width:0.5;stroke-linejoin:miter;stroke-miterlimit:10;"/><text fill="#1A202C" font-family="Arial" font-size="21" font-weight="700" lengthAdjust="spacing" textLength="315.2974" x="224.6974" y="732.1797">output matches expected?</text><text fill="#4A5568" font-family="Arial" font-size="21" font-weight="700" lengthAdjust="spacing" textLength="40.4312" x="172.2662" y="719.957">yes</text><text fill="#4A5568" font-family="Arial" font-size="21" font-weight="700" lengthAdjust="spacing" textLength="29.3774" x="551.9948" y="719.957">no</text><rect class="hsp-shadow-clone" fill="#000000" opacity="0.2" height="44.4453" rx="4" ry="4" width="274.3994" x="67.4977" y="749.6323" pointer-events="none"/><rect fill="#EDF2F7" height="44.4453" rx="4" ry="4" style="stroke:#4A5568;stroke-width:0.5;" width="274.3994" x="65.4977" y="747.1323"/><text fill="#1A202C" font-family="Arial" font-size="21" font-weight="700" lengthAdjust="spacing" textLength="254.3994" x="75.4977" y="776.625">passed := passed + 1</text><rect class="hsp-shadow-clone" fill="#000000" opacity="0.2" height="68.8906" rx="4" ry="4" width="313.7437" x="407.1229" y="749.6323" pointer-events="none"/><rect fill="#EDF2F7" height="68.8906" rx="4" ry="4" style="stroke:#4A5568;stroke-width:0.5;" width="313.7437" x="405.1229" y="747.1323"/><text fill="#1A202C" font-family="Arial" font-size="21" font-weight="700" lengthAdjust="spacing" textLength="281.7158" x="415.1229" y="776.625">Record counterexample</text><text fill="#1A202C" font-family="Arial" font-size="21" font-weight="700" lengthAdjust="spacing" textLength="293.7437" x="415.1229" y="801.0703">(input, expected, actual)</text><polygon class="hsp-shadow-clone" fill="#000000" opacity="0.2" transform="translate(2.0,2.5)"  points="382.3461,822.0229,394.3461,834.0229,382.3461,846.0229,370.3461,834.0229,382.3461,822.0229" style="stroke:#DD6B20;stroke-width:0.5;stroke-linejoin:miter;stroke-miterlimit:10;"/>points="382.3461,822.0229,394.3461,834.0229,382.3461,846.0229,370.3461,834.0229,382.3461,822.0229" style="stroke:#DD6B20;stroke-width:0.5;stroke-linejoin:miter;stroke-miterlimit:10;"<polygon fill="#FFFAF0" points="382.3461,822.0229,394.3461,834.0229,382.3461,846.0229,370.3461,834.0229,382.3461,822.0229" style="stroke:#DD6B20;stroke-width:0.5;stroke-linejoin:miter;stroke-miterlimit:10;"/><polygon class="hsp-shadow-clone" fill="#000000" opacity="0.2" transform="translate(2.0,2.5)"  points="267.4972,577.1284,497.1949,577.1284,509.1949,589.3511,497.1949,601.5737,267.4972,601.5737,255.4972,589.3511,267.4972,577.1284" style="stroke:#DD6B20;stroke-width:0.5;stroke-linejoin:miter;stroke-miterlimit:10;"/>points="267.4972,577.1284,497.1949,577.1284,509.1949,589.3511,497.1949,601.5737,267.4972,601.5737,255.4972,589.3511,267.4972,577.1284" style="stroke:#DD6B20;stroke-width:0.5;stroke-linejoin:miter;stroke-miterlimit:10;"<polygon fill="#FFFAF0" points="267.4972,577.1284,497.1949,577.1284,509.1949,589.3511,497.1949,601.5737,267.4972,601.5737,255.4972,589.3511,267.4972,577.1284" style="stroke:#DD6B20;stroke-width:0.5;stroke-linejoin:miter;stroke-miterlimit:10;"/><text fill="#4A5568" font-family="Arial" font-size="21" font-weight="700" lengthAdjust="spacing" textLength="40.4312" x="386.3461" y="621.0664">yes</text><text fill="#1A202C" font-family="Arial" font-size="21" font-weight="700" lengthAdjust="spacing" textLength="229.6978" x="267.4972" y="596.6211">more cases in D(t)?</text><text fill="#4A5568" font-family="Arial" font-size="21" font-weight="700" lengthAdjust="spacing" textLength="29.3774" x="226.1198" y="584.3984">no</text><rect class="hsp-shadow-clone" fill="#000000" opacity="0.2" height="44.4453" rx="4" ry="4" width="430.7407" x="168.9757" y="902.5229" pointer-events="none"/><rect fill="#EDF2F7" height="44.4453" rx="4" ry="4" style="stroke:#4A5568;stroke-width:0.5;" width="430.7407" x="166.9757" y="900.0229"/><text fill="#1A202C" font-family="Arial" font-size="21" font-weight="700" lengthAdjust="spacing" textLength="410.7407" x="176.9757" y="929.5156">Compute Conf(c,t) = passed / total</text><polygon class="hsp-shadow-clone" fill="#000000" opacity="0.2" transform="translate(2.0,2.5)"  points="279.9762,970.1436,484.7159,970.1436,496.7159,982.3662,484.7159,994.5889,279.9762,994.5889,267.9762,982.3662,279.9762,970.1436" style="stroke:#DD6B20;stroke-width:0.5;stroke-linejoin:miter;stroke-miterlimit:10;"/>points="279.9762,970.1436,484.7159,970.1436,496.7159,982.3662,484.7159,994.5889,279.9762,994.5889,267.9762,982.3662,279.9762,970.1436" style="stroke:#DD6B20;stroke-width:0.5;stroke-linejoin:miter;stroke-miterlimit:10;"<polygon fill="#FFFAF0" points="279.9762,970.1436,484.7159,970.1436,496.7159,982.3662,484.7159,994.5889,279.9762,994.5889,267.9762,982.3662,279.9762,970.1436" style="stroke:#DD6B20;stroke-width:0.5;stroke-linejoin:miter;stroke-miterlimit:10;"/><text fill="#1A202C" font-family="Arial" font-size="21" font-weight="700" lengthAdjust="spacing" textLength="204.7397" x="279.9762" y="989.6362">Conf(c,t) &gt;= tau?</text><text fill="#4A5568" font-family="Arial" font-size="21" font-weight="700" lengthAdjust="spacing" textLength="40.4312" x="227.545" y="977.4136">yes</text><text fill="#4A5568" font-family="Arial" font-size="21" font-weight="700" lengthAdjust="spacing" textLength="29.3774" x="496.7159" y="977.4136">no</text><rect class="hsp-shadow-clone" fill="#000000" opacity="0.2" height="44.4453" rx="4" ry="4" width="354.4312" x="18.0" y="1007.0889" pointer-events="none"/><rect fill="#EDF2F7" height="44.4453" rx="4" ry="4" style="stroke:#4A5568;stroke-width:0.5;" width="354.4312" x="16" y="1004.5889"/><text fill="#1A202C" font-family="Arial" font-size="21" font-weight="700" lengthAdjust="spacing" textLength="334.4312" x="26" y="1034.0815">strict_formal_passed := true</text><rect class="hsp-shadow-clone" fill="#000000" opacity="0.2" height="44.4453" rx="4" ry="4" width="362.0908" x="392.4312" y="1007.0889" pointer-events="none"/><rect fill="#EDF2F7" height="44.4453" rx="4" ry="4" style="stroke:#4A5568;stroke-width:0.5;" width="362.0908" x="390.4312" y="1004.5889"/><text fill="#1A202C" font-family="Arial" font-size="21" font-weight="700" lengthAdjust="spacing" textLength="342.0908" x="400.4312" y="1034.0815">strict_formal_passed := false</text><polygon class="hsp-shadow-clone" fill="#000000" opacity="0.2" transform="translate(2.0,2.5)"  points="382.3461,1055.0342,394.3461,1067.0342,382.3461,1079.0342,370.3461,1067.0342,382.3461,1055.0342" style="stroke:#DD6B20;stroke-width:0.5;stroke-linejoin:miter;stroke-miterlimit:10;"/>points="382.3461,1055.0342,394.3461,1067.0342,382.3461,1079.0342,370.3461,1067.0342,382.3461,1055.0342" style="stroke:#DD6B20;stroke-width:0.5;stroke-linejoin:miter;stroke-miterlimit:10;"<polygon fill="#FFFAF0" points="382.3461,1055.0342,394.3461,1067.0342,382.3461,1079.0342,370.3461,1067.0342,382.3461,1055.0342" style="stroke:#DD6B20;stroke-width:0.5;stroke-linejoin:miter;stroke-miterlimit:10;"/><rect class="hsp-shadow-clone" fill="#000000" opacity="0.2" height="44.4453" rx="4" ry="4" width="646.2881" x="61.202" y="1101.5342" pointer-events="none"/><rect fill="#EDF2F7" height="44.4453" rx="4" ry="4" style="stroke:#4A5568;stroke-width:0.5;" width="646.2881" x="59.202" y="1099.0342"/><text fill="#1A202C" font-family="Arial" font-size="21" font-weight="700" lengthAdjust="spacing" textLength="626.2881" x="69.202" y="1128.5269">Return CheckResult(conformance, counterexamples)</text><path d="M413.3461,1153.4795 L413.3461,1191.1475 L393.3461,1195.1475 L413.3461,1199.1475 L413.3461,1236.8154 A0,0 0 0 0 413.3461,1236.8154 L748.0438,1236.8154 A0,0 0 0 0 748.0438,1236.8154 L748.0438,1163.4795 L738.0438,1153.4795 L413.3461,1153.4795 A0,0 0 0 0 413.3461,1153.4795" fill="#000000" opacity="0.2" class="hsp-shadow-clone" transform="translate(2.0,2.5)" style="stroke:#D69E2E;stroke-width:0.5;"/><path d="M413.3461,1153.4795 L413.3461,1191.1475 L393.3461,1195.1475 L413.3461,1199.1475 L413.3461,1236.8154 A0,0 0 0 0 413.3461,1236.8154 L748.0438,1236.8154 A0,0 0 0 0 748.0438,1236.8154 L748.0438,1163.4795 L738.0438,1153.4795 L413.3461,1153.4795 A0,0 0 0 0 413.3461,1153.4795" fill="#FFFFF0" style="stroke:#D69E2E;stroke-width:0.5;"/><path d="M738.0438,1153.4795 L738.0438,1163.4795 L748.0438,1163.4795 L738.0438,1153.4795" fill="#000000" opacity="0.2" class="hsp-shadow-clone" transform="translate(2.0,2.5)" style="stroke:#D69E2E;stroke-width:0.5;"/><path d="M738.0438,1153.4795 L738.0438,1163.4795 L748.0438,1163.4795 L738.0438,1153.4795" fill="#FFFFF0" style="stroke:#D69E2E;stroke-width:0.5;"/><text fill="#744210" font-family="Arial" font-size="21" font-weight="700" lengthAdjust="spacing" textLength="313.6978" x="419.3461" y="1177.9722">Counterexamples feed the</text><text fill="#744210" font-family="Arial" font-size="21" font-weight="700" lengthAdjust="spacing" textLength="295.374" x="419.3461" y="1202.4175">repair engine in the next</text><text fill="#744210" font-family="Arial" font-size="21" font-weight="700" lengthAdjust="spacing" textLength="222.4995" x="419.3461" y="1226.8628">synthesis iteration</text><ellipse cx="382.3461" cy="1195.1475" fill="none" rx="11" ry="11" style="stroke:#222222;stroke-width:1;"/><ellipse cx="382.3461" cy="1195.1475" fill="#222222" rx="6" ry="6" style="stroke:#222222;stroke-width:1;"/><line style="stroke:#4A5568;stroke-width:1;" x1="382.3461" x2="382.3461" y1="35" y2="55"/><polygon fill="#4A5568" points="378.3461,45,382.3461,55,386.3461,45,382.3461,49" style="stroke:#4A5568;stroke-width:1;stroke-linejoin:miter;stroke-miterlimit:10;"/><line style="stroke:#4A5568;stroke-width:1;" x1="382.3461" x2="382.3461" y1="198.3359" y2="218.3359"/><polygon fill="#4A5568" points="378.3461,208.3359,382.3461,218.3359,386.3461,208.3359,382.3461,212.3359" style="stroke:#4A5568;stroke-width:1;stroke-linejoin:miter;stroke-miterlimit:10;"/><line style="stroke:#4A5568;stroke-width:1;" x1="382.3461" x2="382.3461" y1="311.6719" y2="331.6719"/><polygon fill="#4A5568" points="378.3461,321.6719,382.3461,331.6719,386.3461,321.6719,382.3461,325.6719" style="stroke:#4A5568;stroke-width:1;stroke-linejoin:miter;stroke-miterlimit:10;"/><line style="stroke:#4A5568;stroke-width:1;" x1="382.3461" x2="382.3461" y1="376.1172" y2="396.1172"/><polygon fill="#4A5568" points="378.3461,386.1172,382.3461,396.1172,386.3461,386.1172,382.3461,390.1172" style="stroke:#4A5568;stroke-width:1;stroke-linejoin:miter;stroke-miterlimit:10;"/><line style="stroke:#4A5568;stroke-width:1;" x1="382.3461" x2="382.3461" y1="99.4453" y2="153.8906"/><polygon fill="#4A5568" points="378.3461,143.8906,382.3461,153.8906,386.3461,143.8906,382.3461,147.8906" style="stroke:#4A5568;stroke-width:1;stroke-linejoin:miter;stroke-miterlimit:10;"/><line style="stroke:#4A5568;stroke-width:1;" x1="212.6974" x2="202.6974" y1="724.9097" y2="724.9097"/><line style="stroke:#4A5568;stroke-width:1;" x1="202.6974" x2="202.6974" y1="724.9097" y2="747.1323"/><polygon fill="#4A5568" points="198.6974,737.1323,202.6974,747.1323,206.6974,737.1323,202.6974,741.1323" style="stroke:#4A5568;stroke-width:1;stroke-linejoin:miter;stroke-miterlimit:10;"/><line style="stroke:#4A5568;stroke-width:1;" x1="551.9948" x2="561.9948" y1="724.9097" y2="724.9097"/><line style="stroke:#4A5568;stroke-width:1;" x1="561.9948" x2="561.9948" y1="724.9097" y2="747.1323"/><polygon fill="#4A5568" points="557.9948,737.1323,561.9948,747.1323,565.9948,737.1323,561.9948,741.1323" style="stroke:#4A5568;stroke-width:1;stroke-linejoin:miter;stroke-miterlimit:10;"/><line style="stroke:#4A5568;stroke-width:1;" x1="202.6974" x2="202.6974" y1="791.5776" y2="834.0229"/><line style="stroke:#4A5568;stroke-width:1;" x1="202.6974" x2="370.3461" y1="834.0229" y2="834.0229"/><polygon fill="#4A5568" points="360.3461,830.0229,370.3461,834.0229,360.3461,838.0229,364.3461,834.0229" style="stroke:#4A5568;stroke-width:1;stroke-linejoin:miter;stroke-miterlimit:10;"/><line style="stroke:#4A5568;stroke-width:1;" x1="561.9948" x2="561.9948" y1="816.0229" y2="834.0229"/><line style="stroke:#4A5568;stroke-width:1;" x1="561.9948" x2="394.3461" y1="834.0229" y2="834.0229"/><polygon fill="#4A5568" points="404.3461,830.0229,394.3461,834.0229,404.3461,838.0229,400.3461,834.0229" style="stroke:#4A5568;stroke-width:1;stroke-linejoin:miter;stroke-miterlimit:10;"/><line style="stroke:#4A5568;stroke-width:1;" x1="382.3461" x2="382.3461" y1="687.0117" y2="712.687"/><polygon fill="#4A5568" points="378.3461,702.687,382.3461,712.687,386.3461,702.687,382.3461,706.687" style="stroke:#4A5568;stroke-width:1;stroke-linejoin:miter;stroke-miterlimit:10;"/><line style="stroke:#4A5568;stroke-width:1;" x1="382.3461" x2="382.3461" y1="601.5737" y2="642.5664"/><polygon fill="#4A5568" points="378.3461,632.5664,382.3461,642.5664,386.3461,632.5664,382.3461,636.5664" style="stroke:#4A5568;stroke-width:1;stroke-linejoin:miter;stroke-miterlimit:10;"/><line style="stroke:#4A5568;stroke-width:1;" x1="382.3461" x2="382.3461" y1="846.0229" y2="856.0229"/><line style="stroke:#4A5568;stroke-width:1;" x1="382.3461" x2="740.8666" y1="856.0229" y2="856.0229"/><polygon fill="#4A5568" points="736.8666,725.2983,740.8666,715.2983,744.8666,725.2983,740.8666,721.2983" style="stroke:#4A5568;stroke-width:1;stroke-linejoin:miter;stroke-miterlimit:10;"/><line style="stroke:#4A5568;stroke-width:1;" x1="740.8666" x2="740.8666" y1="589.3511" y2="856.0229"/><line style="stroke:#4A5568;stroke-width:1;" x1="740.8666" x2="509.1949" y1="589.3511" y2="589.3511"/><polygon fill="#4A5568" points="519.1949,585.3511,509.1949,589.3511,519.1949,593.3511,515.1949,589.3511" style="stroke:#4A5568;stroke-width:1;stroke-linejoin:miter;stroke-miterlimit:10;"/><line style="stroke:#4A5568;stroke-width:1;" x1="255.4972" x2="43.4977" y1="589.3511" y2="589.3511"/><polygon fill="#4A5568" points="39.4977,711.2983,43.4977,721.2983,47.4977,711.2983,43.4977,715.2983" style="stroke:#4A5568;stroke-width:1;stroke-linejoin:miter;stroke-miterlimit:10;"/><line style="stroke:#4A5568;stroke-width:1;" x1="43.4977" x2="43.4977" y1="589.3511" y2="868.0229"/><line style="stroke:#4A5568;stroke-width:1;" x1="43.4977" x2="382.3461" y1="868.0229" y2="868.0229"/><line style="stroke:#4A5568;stroke-width:1;" x1="382.3461" x2="382.3461" y1="868.0229" y2="900.0229"/><polygon fill="#4A5568" points="378.3461,890.0229,382.3461,900.0229,386.3461,890.0229,382.3461,894.0229" style="stroke:#4A5568;stroke-width:1;stroke-linejoin:miter;stroke-miterlimit:10;"/><line style="stroke:#4A5568;stroke-width:1;" x1="382.3461" x2="382.3461" y1="551.4531" y2="577.1284"/><polygon fill="#4A5568" points="378.3461,567.1284,382.3461,577.1284,386.3461,567.1284,382.3461,571.1284" style="stroke:#4A5568;stroke-width:1;stroke-linejoin:miter;stroke-miterlimit:10;"/><line style="stroke:#4A5568;stroke-width:1;" x1="382.3461" x2="382.3461" y1="440.5625" y2="507.0078"/><polygon fill="#4A5568" points="378.3461,497.0078,382.3461,507.0078,386.3461,497.0078,382.3461,501.0078" style="stroke:#4A5568;stroke-width:1;stroke-linejoin:miter;stroke-miterlimit:10;"/><line style="stroke:#4A5568;stroke-width:1;" x1="267.9762" x2="193.2156" y1="982.3662" y2="982.3662"/><line style="stroke:#4A5568;stroke-width:1;" x1="193.2156" x2="193.2156" y1="982.3662" y2="1004.5889"/><polygon fill="#4A5568" points="189.2156,994.5889,193.2156,1004.5889,197.2156,994.5889,193.2156,998.5889" style="stroke:#4A5568;stroke-width:1;stroke-linejoin:miter;stroke-miterlimit:10;"/><line style="stroke:#4A5568;stroke-width:1;" x1="496.7159" x2="571.4766" y1="982.3662" y2="982.3662"/><line style="stroke:#4A5568;stroke-width:1;" x1="571.4766" x2="571.4766" y1="982.3662" y2="1004.5889"/><polygon fill="#4A5568" points="567.4766,994.5889,571.4766,1004.5889,575.4766,994.5889,571.4766,998.5889" style="stroke:#4A5568;stroke-width:1;stroke-linejoin:miter;stroke-miterlimit:10;"/><line style="stroke:#4A5568;stroke-width:1;" x1="193.2156" x2="193.2156" y1="1049.0342" y2="1067.0342"/><line style="stroke:#4A5568;stroke-width:1;" x1="193.2156" x2="370.3461" y1="1067.0342" y2="1067.0342"/><polygon fill="#4A5568" points="360.3461,1063.0342,370.3461,1067.0342,360.3461,1071.0342,364.3461,1067.0342" style="stroke:#4A5568;stroke-width:1;stroke-linejoin:miter;stroke-miterlimit:10;"/><line style="stroke:#4A5568;stroke-width:1;" x1="571.4766" x2="571.4766" y1="1049.0342" y2="1067.0342"/><line style="stroke:#4A5568;stroke-width:1;" x1="571.4766" x2="394.3461" y1="1067.0342" y2="1067.0342"/><polygon fill="#4A5568" points="404.3461,1063.0342,394.3461,1067.0342,404.3461,1071.0342,400.3461,1067.0342" style="stroke:#4A5568;stroke-width:1;stroke-linejoin:miter;stroke-miterlimit:10;"/><line style="stroke:#4A5568;stroke-width:1;" x1="382.3461" x2="382.3461" y1="944.4683" y2="970.1436"/><polygon fill="#4A5568" points="378.3461,960.1436,382.3461,970.1436,386.3461,960.1436,382.3461,964.1436" style="stroke:#4A5568;stroke-width:1;stroke-linejoin:miter;stroke-miterlimit:10;"/><line style="stroke:#4A5568;stroke-width:1;" x1="382.3461" x2="382.3461" y1="1079.0342" y2="1099.0342"/><polygon fill="#4A5568" points="378.3461,1089.0342,382.3461,1099.0342,386.3461,1089.0342,382.3461,1093.0342" style="stroke:#4A5568;stroke-width:1;stroke-linejoin:miter;stroke-miterlimit:10;"/><line style="stroke:#4A5568;stroke-width:1;" x1="382.3461" x2="382.3461" y1="1143.4795" y2="1184.1475"/><polygon fill="#4A5568" points="378.3461,1174.1475,382.3461,1184.1475,386.3461,1174.1475,382.3461,1178.1475" style="stroke:#4A5568;stroke-width:1;stroke-linejoin:miter;stroke-miterlimit:10;"/><?plantuml-src pLPHSzf647xNhzX97mBK9e0nndZIZWp8cOcTkg7DWoSppFcqm0NfJhaxsT2cC_qH_ONz9TqJAXmOt1S_b1UatTNkjz_ktkrhUFkIl-0rl1lT7eTJaI3S9apQNs-kuUy__u94J6SMCfQWjGYLNyJyxfYHK69ShGDyO5Oy89WPYzMZa5CG1dwA8l9tZvpb1k6zLdFnvaepbdowsVZccfaP6b0Ilh07LcUFjYvIDiNwUzGI4wWqwwr6grDVLElaRVJf2cAjikDL90DC8mZv1Rd5639bxB566QCc8QoUnbcU9lLiwJv_MR82CnSoOvgbNk8JbXZqDFUCpwTQvJBkgqHf-2ugVfv5eUIAijNGzUGnJbYUs4X9-u6b2A4MBDcl7udV45hD0qgxf6hUgoJUhoznDKFYkU-P94AYNMO8IjkPyXHInMWmWvQFLZCvTyAJZizBgBLwB0EqmzFJJdTNwI4uRE2bG5Ni9ymOY0MRaf4fsjEeYGL3RGCLgU0-oR7g-U751xy709TFgj69mgZZD4fJivJIytuOTRiaVShFIlOluUNR1Xv0QAqMzxb5xzlMuEIitTrLRfniYtrlxv0Hh2Um1-rXUz1Uw_V1t6XMSRQjlI1_-0NZAisKH6dtqpKSHAteR9Ukid3Fq7KWMaR-NT7sb-QCIjFVZTM_79mE6zknrlG-5qj8Yth2-A5egx7SYHOsmc6_yH-U3NxDKPQEhyK4hsbozhkvPTeABZ8w_GvpwnljfTapsCVuZdhJPhiAlz4krUAv2Yps5-46ZPkwxJ2-y01bZDDz8UpoPRliy52EBALUVdFI3PkTSn8Erm7Nee5WgPBnlku8euPdu0CR33gNhSPEJrXcyV-LtHO-gUnpWz3OXJVed0zRmsruP-rsgtbWE3Xj2f2o1RJE6Wru5B6TaTJX38BUH-JereLQZJCPYvYe6dEwL6ere7SIMsRcjTf546IkOwsWxU1Ldz4MSOLqIx92KBaxgRugKkXHNvCk6aLWE4gcXJ8mqIe5v-V2MKI45ncVhGrWD1QzptJGkRWmpPcEuMeiYlYP9donc-ZFf9R6QaQ7Xt4dY8AxayBXppdg9Rt0X3mRGcGcItVzf-GkAImkSv74T9vAhf6uvWw-GGk3YgrUE8xyt9GaFobpXyZmWILvaMAPNKQN5oqtlRVGE0AhB4lSypVdvvkBz3XpsrebLNeLnG4jelnOTMjOPOccIcRaQRX0dXTOIjRTsbK0exR8hRaepCG4AYgt9A02MkwsCrnanOP57kqCfUTp2r_vz3qqLvwGLY5t8QzDgV3KL4HAxWvZNB0qIuZaIX7-Q1tco9qFEKkgfHj2EmcA_p9Nvv8OxFNfjd89EVug_CXMOGtYpOegwY6NpyRWXxVK5Vbk8Zqgik1sN5GX6MzIiZh7Yy1FvA1fiVcHRO7MDRdDjOJ-3Fdy8nfQjYfyK-QZ7H8CvKhpeR8WA4PJktsRelMthM2258oWaqfZnWIrjPpITUDgJcAGk72VcQMaDqFb5xOS60Ui6FlW7m00?></g></svg>