<svg xmlns="http://www.w3.org/2000/svg" xmlns:xlink="http://www.w3.org/1999/xlink" contentStyleType="text/css" data-diagram-type="DESCRIPTION" height="836px" preserveAspectRatio="none" style="width:1949px;height:836px;background:#FFFFFF;" version="1.1" viewBox="0 0 1949 836" width="1949px" zoomAndPan="magnify"><?plantuml 1.2026.6?><defs/><g><!--cluster SOFL--><g class="cluster" data-qualified-name="SOFL" data-source-line="103" id="ent0001"><path d="M792,7.4526 L1040.749,7.4526 A6,6 0 0 1 1044.749,11.4526 L1051.749,37.8979 L1082,37.8979 A4,4 0 0 1 1086,41.8979 L1086,372.3426 A4,4 0 0 1 1082,376.3426 L792,376.3426 A4,4 0 0 1 788,372.3426 L788,11.4526 A4,4 0 0 1 792,7.4526" fill="#F7FAFC" style="stroke:#CBD5E0;stroke-width:1.5;"/><line style="stroke:#CBD5E0;stroke-width:1.5;" x1="788" x2="1051.749" y1="37.8979" y2="37.8979"/><text fill="#2D3748" font-family="Arial" font-size="21" font-weight="700" lengthAdjust="spacing" textLength="250.749" x="792" y="28.9453">Agile-SOFL Toolchain</text></g><!--cluster Pipeline--><g class="cluster" data-qualified-name="Pipeline" data-source-line="109" id="ent0005"><path d="M1148,246.9026 L1365.4951,246.9026 A6,6 0 0 1 1369.4951,250.9026 L1376.4951,277.3479 L1435,277.3479 A4,4 0 0 1 1439,281.3479 L1439,817.6826 A4,4 0 0 1 1435,821.6826 L1148,821.6826 A4,4 0 0 1 1144,817.6826 L1144,250.9026 A4,4 0 0 1 1148,246.9026" fill="#F7FAFC" style="stroke:#CBD5E0;stroke-width:1.5;"/><line style="stroke:#CBD5E0;stroke-width:1.5;" x1="1144" x2="1376.4951" y1="277.3479" y2="277.3479"/><text fill="#2D3748" font-family="Arial" font-size="21" font-weight="700" lengthAdjust="spacing" textLength="219.4951" x="1148" y="268.3953">HSP-Agile Pipeline</text></g><!--cluster LLMBackend--><g class="cluster" data-qualified-name="LLMBackend" data-source-line="116" id="ent0010"><path d="M1655,498.3426 L1808.7876,498.3426 A6,6 0 0 1 1812.7876,502.3426 L1819.7876,528.7879 L1924,528.7879 A4,4 0 0 1 1928,532.7879 L1928,648.2326 A4,4 0 0 1 1924,652.2326 L1655,652.2326 A4,4 0 0 1 1651,648.2326 L1651,502.3426 A4,4 0 0 1 1655,498.3426" fill="#F7FAFC" style="stroke:#CBD5E0;stroke-width:1.5;"/><line style="stroke:#CBD5E0;stroke-width:1.5;" x1="1651" x2="1819.7876" y1="528.7879" y2="528.7879"/><text fill="#2D3748" font-family="Arial" font-size="21" font-weight="700" lengthAdjust="spacing" textLength="155.7876" x="1655" y="519.8353">LLM Backend</text></g><!--cluster SMT--><g class="cluster" data-qualified-name="SMT" data-source-line="120" id="ent0012"><path d="M1483,692.2326 L1613.6958,692.2326 A6,6 0 0 1 1617.6958,696.2326 L1624.6958,722.6779 L1687,722.6779 A4,4 0 0 1 1691,726.6779 L1691,817.6826 A4,4 0 0 1 1687,821.6826 L1483,821.6826 A4,4 0 0 1 1479,817.6826 L1479,696.2326 A4,4 0 0 1 1483,692.2326" fill="#F7FAFC" style="stroke:#CBD5E0;stroke-width:1.5;"/><line style="stroke:#CBD5E0;stroke-width:1.5;" x1="1479" x2="1624.6958" y1="722.6779" y2="722.6779"/><text fill="#2D3748" font-family="Arial" font-size="21" font-weight="700" lengthAdjust="spacing" textLength="132.6958" x="1483" y="713.7253">SMT Solver</text></g><!--cluster Bench--><g class="cluster" data-qualified-name="Bench" data-source-line="124" id="ent0014"><path d="M10,246.9026 L235.7598,246.9026 A6,6 0 0 1 239.7598,250.9026 L246.7598,277.3479 L744,277.3479 A4,4 0 0 1 748,281.3479 L748,372.3426 A4,4 0 0 1 744,376.3426 L10,376.3426 A4,4 0 0 1 6,372.3426 L6,250.9026 A4,4 0 0 1 10,246.9026" fill="#F7FAFC" style="stroke:#CBD5E0;stroke-width:1.5;"/><line style="stroke:#CBD5E0;stroke-width:1.5;" x1="6" x2="246.7598" y1="277.3479" y2="277.3479"/><text fill="#2D3748" font-family="Arial" font-size="21" font-weight="700" lengthAdjust="spacing" textLength="227.7598" x="10" y="268.3953">Benchmark System</text></g><!--cluster Orch--><g class="cluster" data-qualified-name="Orch" data-source-line="129" id="ent0017"><path d="M386,510.5726 L690.6738,510.5726 A6,6 0 0 1 694.6738,514.5726 L701.6738,541.0179 L934,541.0179 A4,4 0 0 1 938,545.0179 L938,636.0126 A4,4 0 0 1 934,640.0126 L386,640.0126 A4,4 0 0 1 382,636.0126 L382,514.5726 A4,4 0 0 1 386,510.5726" fill="#F7FAFC" style="stroke:#CBD5E0;stroke-width:1.5;"/><line style="stroke:#CBD5E0;stroke-width:1.5;" x1="382" x2="701.6738" y1="541.0179" y2="541.0179"/><text fill="#2D3748" font-family="Arial" font-size="21" font-weight="700" lengthAdjust="spacing" textLength="306.6738" x="386" y="532.0653">Experiment Orchestration</text></g><!--entity Parser--><g class="entity" data-qualified-name="SOFL.Parser" data-source-line="104" id="ent0002"><rect class="hsp-shadow-clone" fill="#000000" opacity="0.20" height="54.4453" rx="4" ry="4" width="117.0171" x="876.49" y="300.4026" pointer-events="none"/><rect fill="#EDF2F7" height="54.4453" rx="4" ry="4" style="stroke:#4A5568;stroke-width:0.5;" width="117.0171" x="874.49" y="297.9026"/><rect fill="#EDF2F7" height="10" style="stroke:#4A5568;stroke-width:0.5;" width="15" x="971.5071" y="302.9026"/><rect fill="#EDF2F7" height="2" style="stroke:#4A5568;stroke-width:0.5;" width="4" x="969.5071" y="304.9026"/><rect fill="#EDF2F7" height="2" style="stroke:#4A5568;stroke-width:0.5;" width="4" x="969.5071" y="308.9026"/><text fill="#1A202C" font-family="Arial" font-size="21" font-weight="700" lengthAdjust="spacing" textLength="77.0171" x="889.49" y="337.3953">Parser</text></g><!--entity LS--><g class="entity" data-qualified-name="SOFL.LS" data-source-line="105" id="ent0003"><rect class="hsp-shadow-clone" fill="#000000" opacity="0.20" height="54.4453" rx="4" ry="4" width="241.2534" x="814.37" y="161.1826" pointer-events="none"/><rect fill="#EDF2F7" height="54.4453" rx="4" ry="4" style="stroke:#4A5568;stroke-width:0.5;" width="241.2534" x="812.37" y="158.6826"/><rect fill="#EDF2F7" height="10" style="stroke:#4A5568;stroke-width:0.5;" width="15" x="1033.6234" y="163.6826"/><rect fill="#EDF2F7" height="2" style="stroke:#4A5568;stroke-width:0.5;" width="4" x="1031.6234" y="165.6826"/><rect fill="#EDF2F7" height="2" style="stroke:#4A5568;stroke-width:0.5;" width="4" x="1031.6234" y="169.6826"/><text fill="#1A202C" font-family="Arial" font-size="21" font-weight="700" lengthAdjust="spacing" textLength="201.2534" x="827.37" y="198.1753">Language Server</text></g><!--entity FSFExtractor--><g class="entity" data-qualified-name="SOFL.FSFExtractor" data-source-line="106" id="ent0004"><rect class="hsp-shadow-clone" fill="#000000" opacity="0.20" height="54.4453" rx="4" ry="4" width="200.853" x="834.57" y="60.9526" pointer-events="none"/><rect fill="#EDF2F7" height="54.4453" rx="4" ry="4" style="stroke:#4A5568;stroke-width:0.5;" width="200.853" x="832.57" y="58.4526"/><rect fill="#EDF2F7" height="10" style="stroke:#4A5568;stroke-width:0.5;" width="15" x="1013.423" y="63.4526"/><rect fill="#EDF2F7" height="2" style="stroke:#4A5568;stroke-width:0.5;" width="4" x="1011.423" y="65.4526"/><rect fill="#EDF2F7" height="2" style="stroke:#4A5568;stroke-width:0.5;" width="4" x="1011.423" y="69.4526"/><text fill="#1A202C" font-family="Arial" font-size="21" font-weight="700" lengthAdjust="spacing" textLength="160.853" x="847.57" y="97.9453">FSF Extractor</text></g><!--entity Synth--><g class="entity" data-qualified-name="Pipeline.Synth" data-source-line="110" id="ent0006"><rect class="hsp-shadow-clone" fill="#000000" opacity="0.20" height="54.4453" rx="4" ry="4" width="234.4858" x="1182.76" y="300.4026" pointer-events="none"/><rect fill="#EDF2F7" height="54.4453" rx="4" ry="4" style="stroke:#4A5568;stroke-width:0.5;" width="234.4858" x="1180.76" y="297.9026"/><rect fill="#EDF2F7" height="10" style="stroke:#4A5568;stroke-width:0.5;" width="15" x="1395.2458" y="302.9026"/><rect fill="#EDF2F7" height="2" style="stroke:#4A5568;stroke-width:0.5;" width="4" x="1393.2458" y="304.9026"/><rect fill="#EDF2F7" height="2" style="stroke:#4A5568;stroke-width:0.5;" width="4" x="1393.2458" y="308.9026"/><text fill="#1A202C" font-family="Arial" font-size="21" font-weight="700" lengthAdjust="spacing" textLength="194.4858" x="1195.76" y="337.3953">LLM Synthesizer</text></g><!--entity FCheck--><g class="entity" data-qualified-name="Pipeline.FCheck" data-source-line="111" id="ent0007"><rect class="hsp-shadow-clone" fill="#000000" opacity="0.20" height="54.4453" rx="4" ry="4" width="225.3086" x="1189.35" y="412.6226" pointer-events="none"/><rect fill="#EDF2F7" height="54.4453" rx="4" ry="4" style="stroke:#4A5568;stroke-width:0.5;" width="225.3086" x="1187.35" y="410.1226"/><rect fill="#EDF2F7" height="10" style="stroke:#4A5568;stroke-width:0.5;" width="15" x="1392.6586" y="415.1226"/><rect fill="#EDF2F7" height="2" style="stroke:#4A5568;stroke-width:0.5;" width="4" x="1390.6586" y="417.1226"/><rect fill="#EDF2F7" height="2" style="stroke:#4A5568;stroke-width:0.5;" width="4" x="1390.6586" y="421.1226"/><text fill="#1A202C" font-family="Arial" font-size="21" font-weight="700" lengthAdjust="spacing" textLength="185.3086" x="1202.35" y="449.6153">Formal Checker</text></g><!--entity Repair--><g class="entity" data-qualified-name="Pipeline.Repair" data-source-line="112" id="ent0008"><rect class="hsp-shadow-clone" fill="#000000" opacity="0.20" height="54.4453" rx="4" ry="4" width="205.2007" x="1199.4" y="564.0726" pointer-events="none"/><rect fill="#EDF2F7" height="54.4453" rx="4" ry="4" style="stroke:#4A5568;stroke-width:0.5;" width="205.2007" x="1197.4" y="561.5726"/><rect fill="#EDF2F7" height="10" style="stroke:#4A5568;stroke-width:0.5;" width="15" x="1382.6007" y="566.5726"/><rect fill="#EDF2F7" height="2" style="stroke:#4A5568;stroke-width:0.5;" width="4" x="1380.6007" y="568.5726"/><rect fill="#EDF2F7" height="2" style="stroke:#4A5568;stroke-width:0.5;" width="4" x="1380.6007" y="572.5726"/><text fill="#1A202C" font-family="Arial" font-size="21" font-weight="700" lengthAdjust="spacing" textLength="165.2007" x="1212.4" y="601.0653">Repair Engine</text></g><!--entity Guard--><g class="entity" data-qualified-name="Pipeline.Guard" data-source-line="113" id="ent0009"><rect class="hsp-shadow-clone" fill="#000000" opacity="0.20" height="54.4453" rx="4" ry="4" width="208.2461" x="1197.88" y="745.7326" pointer-events="none"/><rect fill="#EDF2F7" height="54.4453" rx="4" ry="4" style="stroke:#4A5568;stroke-width:0.5;" width="208.2461" x="1195.88" y="743.2326"/><rect fill="#EDF2F7" height="10" style="stroke:#4A5568;stroke-width:0.5;" width="15" x="1384.1261" y="748.2326"/><rect fill="#EDF2F7" height="2" style="stroke:#4A5568;stroke-width:0.5;" width="4" x="1382.1261" y="750.2326"/><rect fill="#EDF2F7" height="2" style="stroke:#4A5568;stroke-width:0.5;" width="4" x="1382.1261" y="754.2326"/><text fill="#1A202C" font-family="Arial" font-size="21" font-weight="700" lengthAdjust="spacing" textLength="168.2461" x="1210.88" y="782.7253">Pattern Guard</text></g><!--entity LLMAPI--><g class="entity" data-qualified-name="LLMBackend.LLMAPI" data-source-line="117" id="ent0011"><rect class="hsp-shadow-clone" fill="#000000" opacity="0.20" height="78.8906" rx="4" ry="4" width="216.7876" x="1676.61" y="551.8426" pointer-events="none"/><rect fill="#EDF2F7" height="78.8906" rx="4" ry="4" style="stroke:#4A5568;stroke-width:0.5;" width="216.7876" x="1674.61" y="549.3426"/><rect fill="#EDF2F7" height="10" style="stroke:#4A5568;stroke-width:0.5;" width="15" x="1871.3976" y="554.3426"/><rect fill="#EDF2F7" height="2" style="stroke:#4A5568;stroke-width:0.5;" width="4" x="1869.3976" y="556.3426"/><rect fill="#EDF2F7" height="2" style="stroke:#4A5568;stroke-width:0.5;" width="4" x="1869.3976" y="560.3426"/><text fill="#1A202C" font-family="Arial" font-size="21" font-weight="700" lengthAdjust="spacing" textLength="94.4282" x="1689.61" y="588.8353">LLM API</text><text fill="#1A202C" font-family="Arial" font-size="21" font-weight="700" lengthAdjust="spacing" textLength="176.7876" x="1689.61" y="613.2806">(Qwen2.5-27B)</text></g><!--entity Z3--><g class="entity" data-qualified-name="SMT.Z3" data-source-line="121" id="ent0013"><rect class="hsp-shadow-clone" fill="#000000" opacity="0.20" height="54.4453" rx="4" ry="4" width="152.188" x="1504.91" y="745.7326" pointer-events="none"/><rect fill="#EDF2F7" height="54.4453" rx="4" ry="4" style="stroke:#4A5568;stroke-width:0.5;" width="152.188" x="1502.91" y="743.2326"/><rect fill="#EDF2F7" height="10" style="stroke:#4A5568;stroke-width:0.5;" width="15" x="1635.098" y="748.2326"/><rect fill="#EDF2F7" height="2" style="stroke:#4A5568;stroke-width:0.5;" width="4" x="1633.098" y="750.2326"/><rect fill="#EDF2F7" height="2" style="stroke:#4A5568;stroke-width:0.5;" width="4" x="1633.098" y="754.2326"/><text fill="#1A202C" font-family="Arial" font-size="21" font-weight="700" lengthAdjust="spacing" textLength="112.188" x="1517.91" y="782.7253">Z3 Solver</text></g><!--entity TaskGen--><g class="entity" data-qualified-name="Bench.TaskGen" data-source-line="125" id="ent0015"><rect class="hsp-shadow-clone" fill="#000000" opacity="0.20" height="54.4453" rx="4" ry="4" width="286.7397" x="31.63" y="300.4026" pointer-events="none"/><rect fill="#EDF2F7" height="54.4453" rx="4" ry="4" style="stroke:#4A5568;stroke-width:0.5;" width="286.7397" x="29.63" y="297.9026"/><rect fill="#EDF2F7" height="10" style="stroke:#4A5568;stroke-width:0.5;" width="15" x="296.3697" y="302.9026"/><rect fill="#EDF2F7" height="2" style="stroke:#4A5568;stroke-width:0.5;" width="4" x="294.3697" y="304.9026"/><rect fill="#EDF2F7" height="2" style="stroke:#4A5568;stroke-width:0.5;" width="4" x="294.3697" y="308.9026"/><text fill="#1A202C" font-family="Arial" font-size="21" font-weight="700" lengthAdjust="spacing" textLength="246.7397" x="44.63" y="337.3953">Hard Task Generator</text></g><!--entity RefImpl--><g class="entity" data-qualified-name="Bench.RefImpl" data-source-line="126" id="ent0016"><rect class="hsp-shadow-clone" fill="#000000" opacity="0.20" height="54.4453" rx="4" ry="4" width="367.9097" x="346.05" y="300.4026" pointer-events="none"/><rect fill="#EDF2F7" height="54.4453" rx="4" ry="4" style="stroke:#4A5568;stroke-width:0.5;" width="367.9097" x="344.05" y="297.9026"/><rect fill="#EDF2F7" height="10" style="stroke:#4A5568;stroke-width:0.5;" width="15" x="691.9597" y="302.9026"/><rect fill="#EDF2F7" height="2" style="stroke:#4A5568;stroke-width:0.5;" width="4" x="689.9597" y="304.9026"/><rect fill="#EDF2F7" height="2" style="stroke:#4A5568;stroke-width:0.5;" width="4" x="689.9597" y="308.9026"/><text fill="#1A202C" font-family="Arial" font-size="21" font-weight="700" lengthAdjust="spacing" textLength="327.9097" x="359.05" y="337.3953">Reference Implementations</text></g><!--entity ParRunner--><g class="entity" data-qualified-name="Orch.ParRunner" data-source-line="130" id="ent0018"><rect class="hsp-shadow-clone" fill="#000000" opacity="0.20" height="54.4453" rx="4" ry="4" width="222.8579" x="407.57" y="564.0726" pointer-events="none"/><rect fill="#EDF2F7" height="54.4453" rx="4" ry="4" style="stroke:#4A5568;stroke-width:0.5;" width="222.8579" x="405.57" y="561.5726"/><rect fill="#EDF2F7" height="10" style="stroke:#4A5568;stroke-width:0.5;" width="15" x="608.4279" y="566.5726"/><rect fill="#EDF2F7" height="2" style="stroke:#4A5568;stroke-width:0.5;" width="4" x="606.4279" y="568.5726"/><rect fill="#EDF2F7" height="2" style="stroke:#4A5568;stroke-width:0.5;" width="4" x="606.4279" y="572.5726"/><text fill="#1A202C" font-family="Arial" font-size="21" font-weight="700" lengthAdjust="spacing" textLength="182.8579" x="420.57" y="601.0653">Parallel Runner</text></g><!--entity Monitor--><g class="entity" data-qualified-name="Orch.Monitor" data-source-line="131" id="ent0019"><rect class="hsp-shadow-clone" fill="#000000" opacity="0.20" height="54.4453" rx="4" ry="4" width="244.4116" x="658.79" y="564.0726" pointer-events="none"/><rect fill="#EDF2F7" height="54.4453" rx="4" ry="4" style="stroke:#4A5568;stroke-width:0.5;" width="244.4116" x="656.79" y="561.5726"/><rect fill="#EDF2F7" height="10" style="stroke:#4A5568;stroke-width:0.5;" width="15" x="881.2016" y="566.5726"/><rect fill="#EDF2F7" height="2" style="stroke:#4A5568;stroke-width:0.5;" width="4" x="879.2016" y="568.5726"/><rect fill="#EDF2F7" height="2" style="stroke:#4A5568;stroke-width:0.5;" width="4" x="879.2016" y="572.5726"/><text fill="#1A202C" font-family="Arial" font-size="21" font-weight="700" lengthAdjust="spacing" textLength="204.4116" x="671.79" y="601.0653">Progress Monitor</text></g><!--entity IfFSF--><g class="entity" data-qualified-name="IfFSF" data-source-line="134" id="ent0020"><ellipse cx="1171" cy="185.9026" fill="#FFFFFF" rx="8" ry="8" style="stroke:#A0AEC0;stroke-width:0.5;"/><text fill="#1A202C" font-family="Arial" font-size="21" font-weight="700" lengthAdjust="spacing" textLength="107.9736" x="1117.0132" y="222.3953">FSF Spec</text></g><!--entity IfLLM--><g class="entity" data-qualified-name="IfLLM" data-source-line="135" id="ent0021"><ellipse cx="1719" cy="437.3426" fill="#FFFFFF" rx="8" ry="8" style="stroke:#A0AEC0;stroke-width:0.5;"/><text fill="#1A202C" font-family="Arial" font-size="21" font-weight="700" lengthAdjust="spacing" textLength="94.4282" x="1671.7859" y="473.8353">LLM API</text></g><!--entity IfSMT--><g class="entity" data-qualified-name="IfSMT" data-source-line="136" id="ent0022"><ellipse cx="1545" cy="588.7926" fill="#FFFFFF" rx="8" ry="8" style="stroke:#A0AEC0;stroke-width:0.5;"/><text fill="#1A202C" font-family="Arial" font-size="21" font-weight="700" lengthAdjust="spacing" textLength="148.9995" x="1470.5002" y="625.2853">SMT Queries</text></g><!--entity IfTasks--><g class="entity" data-qualified-name="IfTasks" data-source-line="137" id="ent0023"><ellipse cx="844" cy="437.3426" fill="#FFFFFF" rx="8" ry="8" style="stroke:#A0AEC0;stroke-width:0.5;"/><text fill="#1A202C" font-family="Arial" font-size="21" font-weight="700" lengthAdjust="spacing" textLength="67.4604" x="810.2698" y="473.8353">Tasks</text></g><!--entity IfResults--><g class="entity" data-qualified-name="IfResults" data-source-line="138" id="ent0024"><ellipse cx="1016" cy="437.3426" fill="#FFFFFF" rx="8" ry="8" style="stroke:#A0AEC0;stroke-width:0.5;"/><text fill="#1A202C" font-family="Arial" font-size="21" font-weight="700" lengthAdjust="spacing" textLength="87.5991" x="972.2004" y="473.8353">Results</text></g><g class="entity" data-qualified-name="GMN42" data-source-line="162" id="ent0043"><path d="M1462.63,311.9026 L1462.63,338.3479 A4,4 0 0 0 1466.63,342.3479 L1925.3776,342.3479 A4,4 0 0 0 1929.3776,338.3479 L1929.3776,317.9026 L1919.3776,307.9026 L1466.63,307.9026 A4,4 0 0 0 1462.63,311.9026" fill="#FFFFF0" style="stroke:#D69E2E;stroke-width:0.5;"/><path d="M1919.3776,307.9026 L1919.3776,315.9026 A2,2 0 0 0 1921.3776,317.9026 L1929.3776,317.9026 L1919.3776,307.9026" fill="#FFFFF0" style="stroke:#D69E2E;stroke-width:1;"/><text fill="#744210" font-family="Arial" font-size="21" font-weight="700" lengthAdjust="spacing" textLength="445.7476" x="1468.63" y="332.3953">Synthesize &#8594; Check &#8594; Repair &#8594; Guard</text></g><!--link SOFL to IfFSF--><g class="link" data-entity-1="ent0001" data-entity-2="ent0020" data-link-type="association" data-source-line="140" id="lnk25"><path d="M1086.0149,153.6826 C1086.1208,153.6826 1086.2276,153.6826 1086.3353,153.6826 C1088.0576,153.6826 1090.002,153.6826 1092.1252,153.6826 C1100.6178,153.6826 1111.9706,153.6826 1123.4113,153.6826 C1146.2925,153.6826 1169.525,153.6826 1170.93,153.6826" fill="none" id="SOFL-IfFSF" style="stroke:#4A5568;stroke-width:1;"/></g><!--link IfFSF to Pipeline--><g class="link" data-entity-1="ent0020" data-entity-2="ent0005" data-link-type="dependency" data-source-line="141" id="lnk26"><path d="M1152,186.0026 C1152,187.0226 1152,195.7089 1152,208.2881 C1152,214.5777 1152,221.8406 1152,229.605 C1152,233.4872 1152,237.4948 1152,241.5689 C1152,242.5874 1152,243.6101 1152,244.636 C1152,245.1489 1152,240.6627 1152,241.1771" fill="none" id="IfFSF-to-Pipeline" style="stroke:#4A5568;stroke-width:1;"/><polygon fill="#4A5568" points="1152,246.1771,1156,237.1771,1152,241.1771,1148,237.1771,1152,246.1771" style="stroke:#4A5568;stroke-width:1;stroke-linejoin:miter;stroke-miterlimit:10;"/></g><!--link Pipeline to IfLLM--><g class="link" data-entity-1="ent0005" data-entity-2="ent0021" data-link-type="association" data-source-line="143" id="lnk27"><path d="M1143.9383,324.6826 C1143.9013,324.6826 1143.8642,324.6826 1143.8272,324.6826 C1143.6789,324.6826 1143.5299,324.6826 1143.3804,324.6826 C1142.184,324.6826 1140.9509,324.6826 1139.7438,324.6826 C1134.915,324.6826 1130.5,324.6826 1130.5,324.6826 C1130.5,324.6826 1130.5,403.6826 1130.5,403.6826 C1130.5,403.6826 1709.84,403.6826 1718.89,403.6826" fill="none" id="Pipeline-IfLLM" style="stroke:#4A5568;stroke-width:1;"/></g><!--link IfLLM to LLMBackend--><g class="link" data-entity-1="ent0021" data-entity-2="ent0010" data-link-type="dependency" data-source-line="144" id="lnk28"><path d="M1727.9,437.6826 C1766.8,437.6826 1920,437.6826 1920,437.6826 C1920,437.6826 1920,446.4033 1920,459.6547 C1920,466.2804 1920,474.0388 1920,482.4061 C1920,486.5898 1920,490.9257 1920,495.3484 C1920,495.9013 1920,496.4555 1920,497.0109 C1920,497.2886 1920,523.0119 1920,523.2902" fill="none" id="IfLLM-to-LLMBackend" style="stroke:#4A5568;stroke-width:1;"/><polygon fill="#4A5568" points="1920,528.2902,1924,519.2902,1920,523.2902,1916,519.2902,1920,528.2902" style="stroke:#4A5568;stroke-width:1;stroke-linejoin:miter;stroke-miterlimit:10;"/></g><!--link FCheck to IfSMT--><g class="link" data-entity-1="ent0007" data-entity-2="ent0022" data-link-type="association" data-source-line="146" id="lnk29"><path d="M1408.39,465.0226 C1408.39,500.2826 1408.39,556.6826 1408.39,556.6826 C1408.39,556.6826 1540.76,556.6826 1544.9,556.6826" fill="none" id="FCheck-IfSMT" style="stroke:#4A5568;stroke-width:1;"/></g><!--link IfSMT to SMT--><g class="link" data-entity-1="ent0022" data-entity-2="ent0012" data-link-type="dependency" data-source-line="147" id="lnk30"><path d="M1553.99,588.6826 C1580.99,588.6826 1659.55,588.6826 1659.55,588.6826 C1659.55,588.6826 1659.55,634.1826 1659.55,679.6826 C1659.55,682.5264 1659.55,685.3701 1659.55,688.2028 C1659.55,688.9109 1659.55,689.6184 1659.55,690.325 C1659.55,690.6783 1659.55,716.4767 1659.55,716.8295" fill="none" id="IfSMT-to-SMT" style="stroke:#4A5568;stroke-width:1;"/><polygon fill="#4A5568" points="1659.55,721.8295,1663.55,712.8295,1659.55,716.8295,1655.55,712.8295,1659.55,721.8295" style="stroke:#4A5568;stroke-width:1;stroke-linejoin:miter;stroke-miterlimit:10;"/></g><!--link Bench to IfTasks--><g class="link" data-entity-1="ent0014" data-entity-2="ent0023" data-link-type="association" data-source-line="149" id="lnk31"><path d="M748.0012,324.6826 C748.0861,324.6826 748.1716,324.6826 748.2576,324.6826 C748.4295,324.6826 748.6036,324.6826 748.7797,324.6826 C750.1887,324.6826 751.7296,324.6826 753.3736,324.6826 C759.9497,324.6826 768.1769,324.6826 776.2238,324.6826 C792.3175,324.6826 807.69,324.6826 807.69,324.6826 C807.69,324.6826 807.69,433.8526 807.69,437.2626" fill="none" id="Bench-IfTasks" style="stroke:#4A5568;stroke-width:1;"/></g><!--link IfTasks to Orch--><g class="link" data-entity-1="ent0023" data-entity-2="ent0017" data-link-type="dependency" data-source-line="150" id="lnk32"><path d="M844.05,424.6826 C846.2,424.6826 915.1,424.6826 915.1,424.6826 C915.1,424.6826 915.1,465.6826 915.1,506.6826 C915.1,507.9639 915.1,534.6904 915.1,535.9704" fill="none" id="IfTasks-to-Orch" style="stroke:#4A5568;stroke-width:1;"/><polygon fill="#4A5568" points="915.1,540.9704,919.1,531.9704,915.1,535.9704,911.1,531.9704,915.1,540.9704" style="stroke:#4A5568;stroke-width:1;stroke-linejoin:miter;stroke-miterlimit:10;"/></g><!--link IfResults to Orch--><g class="link" data-entity-1="ent0024" data-entity-2="ent0017" data-link-type="association" data-source-line="152" id="lnk34"><path d="M1015.94,449.6826 C1013.33,449.6826 930,449.6826 930,449.6826 C930,449.6826 930,457.842 930,470.2086 C930,476.3919 930,483.6269 930,491.4198 C930,495.3162 930,499.3521 930,503.4656 C930,505.5224 930,507.5986 930,509.6865 C930,509.9475 930,540.654 930,540.9153" fill="none" id="IfResults-Orch" style="stroke:#4A5568;stroke-width:1;"/></g><!--reverse link Pipeline to IfResults--><g class="link" data-entity-1="ent0005" data-entity-2="ent0024" data-link-type="dependency" data-source-line="153" id="lnk36"><path d="M1138.742,406.6826 C1137.653,406.6826 1141.0708,406.6826 1139.8115,406.6826 C1137.293,406.6826 1134.4497,406.6826 1131.345,406.6826 C1118.9263,406.6826 1102.325,406.6826 1085.595,406.6826 C1052.135,406.6826 1018.16,406.6826 1016.1,406.6826" fill="none" id="Pipeline-backto-IfResults" style="stroke:#4A5568;stroke-width:1;"/><polygon fill="#4A5568" points="1143.742,406.6826,1134.742,402.6826,1138.742,406.6826,1134.742,410.6826,1143.742,406.6826" style="stroke:#4A5568;stroke-width:1;stroke-linejoin:miter;stroke-miterlimit:10;"/></g><!--link FSFExtractor to LS--><!--link LS to Parser--><!--link Synth to FCheck--><!--link FCheck to Repair--><!--link Repair to Guard--><!--link Pipeline to GMN42--><g class="link" data-entity-1="ent0005" data-entity-2="ent0043" data-link-type="association" data-source-line="162" id="lnk44"><path d="M1439.6725,376.6826 C1440.3425,376.6826 1441.0107,376.6826 1441.677,376.6826 C1447.0082,376.6826 1452.224,376.6826 1457.3013,376.6826 C1467.4559,376.6826 1477.0566,376.6826 1485.9188,376.6826 C1521.3675,376.6826 1545,376.6826 1545,376.6826 C1545,376.6826 1545,357.5326 1545,342.5826" fill="none" id="Pipeline-GMN42" style="stroke:#4A5568;stroke-width:1;stroke-dasharray:7,7;"/></g><?plantuml-src pLVDSjis4BxpANRSG-o3L5cMPUVGpj2IQ6SYnOxfvf2squ79bOI80bW0yayxdUcf3z3f4-P9kW0f2cGezv93VL20_JxiBlQFo2luxcl-1Q_WAhxfX0kU8TnaJ9WVPbFu_ES_aF75qa3ECZG6uV2Ehpvs60a5faTTW7VCy0S4lMIfVEHY0Lp3THIHldjCs4OZl5LonR-zL8nb7sOxtObYUeaQf81Fx85rsQFfyZLROFSjAe4P71vt-xt-iFjqr2LjyOTBI9NCEuKb3KmXSF494uCfv5ARZaAHeY8X5AjVyiqww-RFzlZN3LQWLrpaJB6rT_4vopHwo3rBLWibDo8ToKmg-2PoVnx3WOcasoeuz-GfpjacCv4KvXrR8uIAiwmTZ_bl2FtZFQ1vfcpUoonjnqk_ZaEAyyYZP5oWUSuHf39BwG52fgWnXxxlhM9YPOKdGpykeLBoiJGm24zFX-TDqFDWFy6x0cLnb36j8ULiGIJjobFBkG5DPGE7Gi9zji4ZJq_Y3lmU05nyaOrX54P3YqX5nL9ANu_2wFoSf5_6fv1j0rxkTku1XCOeVhynw9tjZq_E1kTDSAUaBlQrNI4ZjxvmUpoO3CQ32czpSuSKTkfipyWVVi8IkSwbG67QmpKPH_teh1ckCd4lX6kFjPpqswIrf-QCKZDgsXfTZ4ydlRgjAhmlsUB2e9gpP9-reYqRri9UE1dr_aEpnbytA4h5Kpx7ANLEkveRfWnFU4xJRtziVL9hc3r2MyGRyAxCce1VQ1VowQKCFBKdOORQTbtTZ2_S4pAMqFU2c-UlMsNxcp8sTFNopCbvU3nyJS99PR0IZJbRIv6sLKSOzJo2xzXuFBpeznerOPZ1_zVjQlu9QLvgX5xJlV7mzQG_gRjtDXZqZzkRmyWS30rYQOoaZmrNz87cKWGweHS4hDaJpQDU3vPednL1i9q31-xbqOcleodSIPabIyR50J0DJcJztGse0ofdZSh1nR8EJvbORApM6DL3oPl6TKuKHp1vCehgKHOCabG2UvFADUzXn7Eq7yV2ShbfEZUTpY1-5eOUDvIuGhVRDnoGQiqo62qnMPMio6tgj5lC6LUKqyNMRY5f1eGUPqh0vOQfrB7SgdODwvVDERsDYeXCP-MsxGRXpPkVnE7xHnJzxccdVtPnj3r4I4rlFBk3M6RRGDjjGz_74v_myQHs_886w7BDr8g2f0sk7SS9csgkw4Pmn_GABf6UJ6oRE2iYIJDkSrHkDhzPvnckISXi8UeoXdChhZaoUSfHSKk4QvLGzgWMx0btm4fQgf1b6RrKRpT2xCgns3MeIYuK3KUOIS6tVfThwyJk4-KACyunSPGtSzhwQ9cQ4gIT3zhGlz_G9L2N19Bu11kfBUJMFdYBcjw5MxZS1O7hlmwzSKMdTCVzbgBlgpO8WgeXAhRrp_rMx5tH1K5HxZksTTRzLcmh2OfQg5Y5t-M_5TFc9mXSbZgRlEDTe5evmFVNRtZe_BZaQOhYvy8EZOjft1IMiyOrSnChUtTxfpfOjcpPomsmwDJ0pMNb_hCbvpilmPibyFclluk1uLQbEhiiTDXMjcg2Vm40?></g></svg>