<svg xmlns="http://www.w3.org/2000/svg" xmlns:xlink="http://www.w3.org/1999/xlink" contentStyleType="text/css" data-diagram-type="CLASS" height="796px" preserveAspectRatio="none" style="width:1569px;height:796px;background:#FFFFFF;" version="1.1" viewBox="0 0 1569 796" width="1569px" zoomAndPan="magnify"><?plantuml 1.2026.6?><defs/><g><!--class ASFLBridge--><g class="entity" data-qualified-name="ASFLBridge" data-source-line="102" id="ent0001"><rect class="hsp-shadow-clone" fill="#000000" opacity="0.20" height="172.6719" rx="4" ry="4" width="463.3501" x="9.0" y="9.5" pointer-events="none"/><rect fill="#F6FAF6" height="172.6719" rx="4" ry="4" style="stroke:#9CAF88;stroke-width:0.5;" width="463.3501" x="7" y="7"/><rect fill="#D4E4D4" height="58.8906" rx="4" ry="4" style="stroke:#D4E4D4;stroke-width:0.5;" width="463.3501" x="7" y="7"/><rect fill="#D4E4D4" height="4" style="stroke:#D4E4D4;stroke-width:0.5;" width="463.3501" x="7" y="61.8906"/><rect fill="none" height="172.6719" rx="4" ry="4" style="stroke:#9CAF88;stroke-width:0.5;" width="463.3501" x="7" y="7"/><ellipse cx="165.4392" cy="36.4453" fill="#ADD1B2" rx="13" ry="13" style="stroke:#181818;stroke-width:1;"/><path d="M168.0173,43.5078 Q167.2986,43.8672 166.5017,44.0547 Q165.7205,44.2422 164.8611,44.2422 Q161.7517,44.2422 160.1267,42.2109 Q158.5017,40.1641 158.5017,36.3047 Q158.5017,32.4453 160.1267,30.3984 Q161.7517,28.3516 164.8611,28.3516 Q165.7205,28.3516 166.5173,28.5391 Q167.3298,28.7266 168.0173,29.1016 L168.0173,32.4609 Q167.2517,31.7422 166.5173,31.4141 Q165.783,31.0703 165.0017,31.0703 Q163.3455,31.0703 162.4861,32.3984 Q161.6423,33.7109 161.6423,36.3047 Q161.6423,38.8828 162.4861,40.2109 Q163.3455,41.5234 165.0017,41.5234 Q165.783,41.5234 166.5173,41.1953 Q167.2517,40.8516 168.0173,40.1484 L168.0173,43.5078 Z " fill="#1A202C"/><text fill="#1A202C" font-family="Arial" font-size="21" font-weight="700" lengthAdjust="spacing" textLength="83.5591" x="215.6455" y="31.4927">&#171;Infra&#187;</text><text fill="#2D3748" font-family="Arial" font-size="21" font-weight="700" lengthAdjust="spacing" textLength="136.9717" x="188.9392" y="55.938">ASFLBridge</text><line style="stroke:#9CAF88;stroke-width:0.5;" x1="8" x2="469.3501" y1="65.8906" y2="65.8906"/><g data-visibility-modifier="PRIVATE_FIELD"><rect fill="none" height="6" style="stroke:#C82930;stroke-width:1;" width="6" x="15" y="80.6133"/></g><text fill="#2D3748" font-family="Arial" font-size="21" font-weight="700" lengthAdjust="spacing" textLength="196.4854" x="29" y="89.3833">spec_path : Path</text><line style="stroke:#9CAF88;stroke-width:1;" x1="8" x2="469.3501" y1="98.3359" y2="98.3359"/><g data-visibility-modifier="PUBLIC_METHOD"><ellipse cx="18" cy="116.0586" fill="#84BE84" rx="3" ry="3" style="stroke:#038048;stroke-width:1;"/></g><text fill="#2D3748" font-family="Arial" font-size="21" font-weight="700" lengthAdjust="spacing" textLength="435.3501" x="29" y="121.8286">extract(spec_path : Path) : TaskSpec</text><g data-visibility-modifier="PRIVATE_METHOD"><rect fill="#F24D5C" height="6" style="stroke:#C82930;stroke-width:1;" width="6" x="15" y="137.5039"/></g><text fill="#2D3748" font-family="Arial" font-size="21" font-weight="700" lengthAdjust="spacing" textLength="251.2412" x="29" y="146.2739">_invoke_parser() : str</text><g data-visibility-modifier="PRIVATE_METHOD"><rect fill="#F24D5C" height="6" style="stroke:#C82930;stroke-width:1;" width="6" x="15" y="161.9492"/></g><text fill="#2D3748" font-family="Arial" font-size="21" font-weight="700" lengthAdjust="spacing" textLength="413.0889" x="29" y="170.7192">_parse_json_output(raw : str) : dict</text></g><!--class TaskSpec--><g class="entity" data-qualified-name="TaskSpec" data-source-line="110" id="ent0002"><rect class="hsp-shadow-clone" fill="#000000" opacity="0.20" height="197.1172" rx="4" ry="4" width="366.6763" x="57.34" y="218.17" pointer-events="none"/><rect fill="#F6FAF6" height="197.1172" rx="4" ry="4" style="stroke:#9CAF88;stroke-width:0.5;" width="366.6763" x="55.34" y="215.67"/><rect fill="#D4E4D4" height="58.8906" rx="4" ry="4" style="stroke:#D4E4D4;stroke-width:0.5;" width="366.6763" x="55.34" y="215.67"/><rect fill="#D4E4D4" height="4" style="stroke:#D4E4D4;stroke-width:0.5;" width="366.6763" x="55.34" y="270.5606"/><rect fill="none" height="197.1172" rx="4" ry="4" style="stroke:#9CAF88;stroke-width:0.5;" width="366.6763" x="55.34" y="215.67"/><ellipse cx="178.0238" cy="245.1153" fill="#ADD1B2" rx="13" ry="13" style="stroke:#181818;stroke-width:1;"/><path d="M180.602,252.1778 Q179.8832,252.5372 179.0863,252.7247 Q178.3051,252.9122 177.4457,252.9122 Q174.3363,252.9122 172.7113,250.8809 Q171.0863,248.8341 171.0863,244.9747 Q171.0863,241.1153 172.7113,239.0684 Q174.3363,237.0216 177.4457,237.0216 Q178.3051,237.0216 179.102,237.2091 Q179.9145,237.3966 180.602,237.7716 L180.602,241.1309 Q179.8363,240.4122 179.102,240.0841 Q178.3676,239.7403 177.5863,239.7403 Q175.9301,239.7403 175.0707,241.0684 Q174.227,242.3809 174.227,244.9747 Q174.227,247.5528 175.0707,248.8809 Q175.9301,250.1934 177.5863,250.1934 Q178.3676,250.1934 179.102,249.8653 Q179.8363,249.5216 180.602,248.8184 L180.602,252.1778 Z " fill="#1A202C"/><text fill="#1A202C" font-family="Arial" font-size="21" font-weight="700" lengthAdjust="spacing" textLength="83.9795" x="215.4384" y="240.1627">&#171;Spec&#187;</text><text fill="#2D3748" font-family="Arial" font-size="21" font-weight="700" lengthAdjust="spacing" textLength="111.8086" x="201.5238" y="264.608">TaskSpec</text><line style="stroke:#9CAF88;stroke-width:0.5;" x1="56.34" x2="421.0163" y1="274.5606" y2="274.5606"/><g data-visibility-modifier="PUBLIC_FIELD"><ellipse cx="66.34" cy="292.2833" fill="none" rx="3" ry="3" style="stroke:#038048;stroke-width:1;"/></g><text fill="#2D3748" font-family="Arial" font-size="21" font-weight="700" lengthAdjust="spacing" textLength="139.3198" x="77.34" y="298.0533">task_id : str</text><g data-visibility-modifier="PUBLIC_FIELD"><ellipse cx="66.34" cy="316.7286" fill="none" rx="3" ry="3" style="stroke:#038048;stroke-width:1;"/></g><text fill="#2D3748" font-family="Arial" font-size="21" font-weight="700" lengthAdjust="spacing" textLength="186.7134" x="77.34" y="322.4986">inputs : list[str]</text><g data-visibility-modifier="PUBLIC_FIELD"><ellipse cx="66.34" cy="341.1739" fill="none" rx="3" ry="3" style="stroke:#038048;stroke-width:1;"/></g><text fill="#2D3748" font-family="Arial" font-size="21" font-weight="700" lengthAdjust="spacing" textLength="203.981" x="77.34" y="346.9439">outputs : list[str]</text><g data-visibility-modifier="PUBLIC_FIELD"><ellipse cx="66.34" cy="365.6192" fill="none" rx="3" ry="3" style="stroke:#038048;stroke-width:1;"/></g><text fill="#2D3748" font-family="Arial" font-size="21" font-weight="700" lengthAdjust="spacing" textLength="338.6763" x="77.34" y="371.3892">scenarios : list[FSFScenario]</text><g data-visibility-modifier="PUBLIC_FIELD"><ellipse cx="66.34" cy="390.0645" fill="none" rx="3" ry="3" style="stroke:#038048;stroke-width:1;"/></g><text fill="#2D3748" font-family="Arial" font-size="21" font-weight="700" lengthAdjust="spacing" textLength="327.9712" x="77.34" y="395.8346">external_vars : dict[str, str]</text><line style="stroke:#9CAF88;stroke-width:0.5;" x1="56.34" x2="421.0163" y1="404.7872" y2="404.7872"/></g><!--class FSFScenario--><g class="entity" data-qualified-name="FSFScenario" data-source-line="118" id="ent0003"><rect class="hsp-shadow-clone" fill="#000000" opacity="0.20" height="148.2266" rx="4" ry="4" width="387.8403" x="136.75" y="451.29" pointer-events="none"/><rect fill="#F6FAF6" height="148.2266" rx="4" ry="4" style="stroke:#9CAF88;stroke-width:0.5;" width="387.8403" x="134.75" y="448.79"/><rect fill="#D4E4D4" height="58.8906" rx="4" ry="4" style="stroke:#D4E4D4;stroke-width:0.5;" width="387.8403" x="134.75" y="448.79"/><rect fill="#D4E4D4" height="4" style="stroke:#D4E4D4;stroke-width:0.5;" width="387.8403" x="134.75" y="503.6806"/><rect fill="none" height="148.2266" rx="4" ry="4" style="stroke:#9CAF88;stroke-width:0.5;" width="387.8403" x="134.75" y="448.79"/><ellipse cx="250.5535" cy="478.2353" fill="#ADD1B2" rx="13" ry="13" style="stroke:#181818;stroke-width:1;"/><path d="M253.1316,485.2978 Q252.4128,485.6572 251.616,485.8447 Q250.8347,486.0322 249.9753,486.0322 Q246.866,486.0322 245.241,484.0009 Q243.616,481.9541 243.616,478.0947 Q243.616,474.2353 245.241,472.1884 Q246.866,470.1416 249.9753,470.1416 Q250.8347,470.1416 251.6316,470.3291 Q252.4441,470.5166 253.1316,470.8916 L253.1316,474.2509 Q252.366,473.5322 251.6316,473.2041 Q250.8972,472.8603 250.116,472.8603 Q248.4597,472.8603 247.6003,474.1884 Q246.7566,475.5009 246.7566,478.0947 Q246.7566,480.6728 247.6003,482.0009 Q248.4597,483.3134 250.116,483.3134 Q250.8972,483.3134 251.6316,482.9853 Q252.366,482.6416 253.1316,481.9384 L253.1316,485.2978 Z " fill="#1A202C"/><text fill="#1A202C" font-family="Arial" font-size="21" font-weight="700" lengthAdjust="spacing" textLength="83.9795" x="305.4304" y="473.2827">&#171;Spec&#187;</text><text fill="#2D3748" font-family="Arial" font-size="21" font-weight="700" lengthAdjust="spacing" textLength="146.7334" x="274.0535" y="497.728">FSFScenario</text><line style="stroke:#9CAF88;stroke-width:0.5;" x1="135.75" x2="521.5903" y1="507.6806" y2="507.6806"/><g data-visibility-modifier="PUBLIC_FIELD"><ellipse cx="145.75" cy="525.4033" fill="none" rx="3" ry="3" style="stroke:#038048;stroke-width:1;"/></g><text fill="#2D3748" font-family="Arial" font-size="21" font-weight="700" lengthAdjust="spacing" textLength="246.627" x="156.75" y="531.1733">guard_condition : str</text><g data-visibility-modifier="PUBLIC_FIELD"><ellipse cx="145.75" cy="549.8486" fill="none" rx="3" ry="3" style="stroke:#038048;stroke-width:1;"/></g><text fill="#2D3748" font-family="Arial" font-size="21" font-weight="700" lengthAdjust="spacing" textLength="310.9189" x="156.75" y="555.6186">def_assignments : list[str]</text><g data-visibility-modifier="PUBLIC_FIELD"><ellipse cx="145.75" cy="574.2939" fill="none" rx="3" ry="3" style="stroke:#038048;stroke-width:1;"/></g><text fill="#2D3748" font-family="Arial" font-size="21" font-weight="700" lengthAdjust="spacing" textLength="359.8403" x="156.75" y="580.0639">output_bindings : dict[str, str]</text><line style="stroke:#9CAF88;stroke-width:0.5;" x1="135.75" x2="521.5903" y1="589.0166" y2="589.0166"/></g><!--class Z3Translator--><g class="entity" data-qualified-name="Z3Translator" data-source-line="124" id="ent0004"><rect class="hsp-shadow-clone" fill="#000000" opacity="0.20" height="197.1172" rx="4" ry="4" width="803.3696" x="451.99" y="218.17" pointer-events="none"/><rect fill="#F6FAF6" height="197.1172" rx="4" ry="4" style="stroke:#9CAF88;stroke-width:0.5;" width="803.3696" x="449.99" y="215.67"/><rect fill="#D4E4D4" height="58.8906" rx="4" ry="4" style="stroke:#D4E4D4;stroke-width:0.5;" width="803.3696" x="449.99" y="215.67"/><rect fill="#D4E4D4" height="4" style="stroke:#D4E4D4;stroke-width:0.5;" width="803.3696" x="449.99" y="270.5606"/><rect fill="none" height="197.1172" rx="4" ry="4" style="stroke:#9CAF88;stroke-width:0.5;" width="803.3696" x="449.99" y="215.67"/><ellipse cx="770.7588" cy="245.1153" fill="#ADD1B2" rx="13" ry="13" style="stroke:#181818;stroke-width:1;"/><path d="M773.3369,252.1778 Q772.6182,252.5372 771.8213,252.7247 Q771.04,252.9122 770.1807,252.9122 Q767.0713,252.9122 765.4463,250.8809 Q763.8213,248.8341 763.8213,244.9747 Q763.8213,241.1153 765.4463,239.0684 Q767.0713,237.0216 770.1807,237.0216 Q771.04,237.0216 771.8369,237.2091 Q772.6494,237.3966 773.3369,237.7716 L773.3369,241.1309 Q772.5713,240.4122 771.8369,240.0841 Q771.1025,239.7403 770.3213,239.7403 Q768.665,239.7403 767.8057,241.0684 Q766.9619,242.3809 766.9619,244.9747 Q766.9619,247.5528 767.8057,248.8809 Q768.665,250.1934 770.3213,250.1934 Q771.1025,250.1934 771.8369,249.8653 Q772.5713,249.5216 773.3369,248.8184 L773.3369,252.1778 Z " fill="#1A202C"/><text fill="#1A202C" font-family="Arial" font-size="21" font-weight="700" lengthAdjust="spacing" textLength="83.5591" x="828.6453" y="240.1627">&#171;Infra&#187;</text><text fill="#2D3748" font-family="Arial" font-size="21" font-weight="700" lengthAdjust="spacing" textLength="152.332" x="794.2588" y="264.608">Z3Translator</text><line style="stroke:#9CAF88;stroke-width:0.5;" x1="450.99" x2="1252.3596" y1="274.5606" y2="274.5606"/><g data-visibility-modifier="PRIVATE_FIELD"><rect fill="none" height="6" style="stroke:#C82930;stroke-width:1;" width="6" x="457.99" y="289.2833"/></g><text fill="#2D3748" font-family="Arial" font-size="21" font-weight="700" lengthAdjust="spacing" textLength="186.5186" x="471.99" y="298.0533">ctx : z3.Context</text><line style="stroke:#9CAF88;stroke-width:1;" x1="450.99" x2="1252.3596" y1="307.0059" y2="307.0059"/><g data-visibility-modifier="PUBLIC_METHOD"><ellipse cx="460.99" cy="324.7286" fill="#84BE84" rx="3" ry="3" style="stroke:#038048;stroke-width:1;"/></g><text fill="#2D3748" font-family="Arial" font-size="21" font-weight="700" lengthAdjust="spacing" textLength="775.3696" x="471.99" y="330.4986">scenario_to_constraints(scenario : FSFScenario) : list[z3.ExprRef]</text><g data-visibility-modifier="PUBLIC_METHOD"><ellipse cx="460.99" cy="349.1739" fill="#84BE84" rx="3" ry="3" style="stroke:#038048;stroke-width:1;"/></g><text fill="#2D3748" font-family="Arial" font-size="21" font-weight="700" lengthAdjust="spacing" textLength="744.772" x="471.99" y="354.9439">generate_satisfying_model(constraints : list[z3.ExprRef]) : dict</text><g data-visibility-modifier="PRIVATE_METHOD"><rect fill="#F24D5C" height="6" style="stroke:#C82930;stroke-width:1;" width="6" x="457.99" y="370.6192"/></g><text fill="#2D3748" font-family="Arial" font-size="21" font-weight="700" lengthAdjust="spacing" textLength="538.6377" x="471.99" y="379.3892">_parse_expression(expr_str : str) : z3.ExprRef</text><g data-visibility-modifier="PRIVATE_METHOD"><rect fill="#F24D5C" height="6" style="stroke:#C82930;stroke-width:1;" width="6" x="457.99" y="395.0645"/></g><text fill="#2D3748" font-family="Arial" font-size="21" font-weight="700" lengthAdjust="spacing" textLength="524.3335" x="471.99" y="403.8346">_bind_vars(vars : dict) : dict[str, z3.ExprRef]</text></g><!--class ConcreteCase--><g class="entity" data-qualified-name="ConcreteCase" data-source-line="133" id="ent0005"><rect class="hsp-shadow-clone" fill="#000000" opacity="0.20" height="148.2266" rx="4" ry="4" width="419.2686" x="598.04" y="451.29" pointer-events="none"/><rect fill="#F6FAF6" height="148.2266" rx="4" ry="4" style="stroke:#9CAF88;stroke-width:0.5;" width="419.2686" x="596.04" y="448.79"/><rect fill="#D4E4D4" height="58.8906" rx="4" ry="4" style="stroke:#D4E4D4;stroke-width:0.5;" width="419.2686" x="596.04" y="448.79"/><rect fill="#D4E4D4" height="4" style="stroke:#D4E4D4;stroke-width:0.5;" width="419.2686" x="596.04" y="503.6806"/><rect fill="none" height="148.2266" rx="4" ry="4" style="stroke:#9CAF88;stroke-width:0.5;" width="419.2686" x="596.04" y="448.79"/><ellipse cx="719.7031" cy="478.2353" fill="#ADD1B2" rx="13" ry="13" style="stroke:#181818;stroke-width:1;"/><path d="M722.2812,485.2978 Q721.5625,485.6572 720.7656,485.8447 Q719.9843,486.0322 719.125,486.0322 Q716.0156,486.0322 714.3906,484.0009 Q712.7656,481.9541 712.7656,478.0947 Q712.7656,474.2353 714.3906,472.1884 Q716.0156,470.1416 719.125,470.1416 Q719.9843,470.1416 720.7812,470.3291 Q721.5937,470.5166 722.2812,470.8916 L722.2812,474.2509 Q721.5156,473.5322 720.7812,473.2041 Q720.0468,472.8603 719.2656,472.8603 Q717.6093,472.8603 716.75,474.1884 Q715.9062,475.5009 715.9062,478.0947 Q715.9062,480.6728 716.75,482.0009 Q717.6093,483.3134 719.2656,483.3134 Q720.0468,483.3134 720.7812,482.9853 Q721.5156,482.6416 722.2812,481.9384 L722.2812,485.2978 Z " fill="#1A202C"/><text fill="#1A202C" font-family="Arial" font-size="21" font-weight="700" lengthAdjust="spacing" textLength="61.2363" x="793.8061" y="473.2827">&#171;VO&#187;</text><text fill="#2D3748" font-family="Arial" font-size="21" font-weight="700" lengthAdjust="spacing" textLength="162.4424" x="743.2031" y="497.728">ConcreteCase</text><line style="stroke:#9CAF88;stroke-width:0.5;" x1="597.04" x2="1014.3086" y1="507.6806" y2="507.6806"/><g data-visibility-modifier="PUBLIC_FIELD"><ellipse cx="607.04" cy="525.4033" fill="none" rx="3" ry="3" style="stroke:#038048;stroke-width:1;"/></g><text fill="#2D3748" font-family="Arial" font-size="21" font-weight="700" lengthAdjust="spacing" textLength="254.6763" x="618.04" y="531.1733">inputs : dict[str, Any]</text><g data-visibility-modifier="PUBLIC_FIELD"><ellipse cx="607.04" cy="549.8486" fill="none" rx="3" ry="3" style="stroke:#038048;stroke-width:1;"/></g><text fill="#2D3748" font-family="Arial" font-size="21" font-weight="700" lengthAdjust="spacing" textLength="391.2686" x="618.04" y="555.6186">expected_outputs : dict[str, Any]</text><g data-visibility-modifier="PUBLIC_FIELD"><ellipse cx="607.04" cy="574.2939" fill="none" rx="3" ry="3" style="stroke:#038048;stroke-width:1;"/></g><text fill="#2D3748" font-family="Arial" font-size="21" font-weight="700" lengthAdjust="spacing" textLength="230.9692" x="618.04" y="580.0639">scenario_index : int</text><line style="stroke:#9CAF88;stroke-width:0.5;" x1="597.04" x2="1014.3086" y1="589.0166" y2="589.0166"/></g><!--class CheckResult--><g class="entity" data-qualified-name="CheckResult" data-source-line="139" id="ent0006"><rect class="hsp-shadow-clone" fill="#000000" opacity="0.20" height="148.2266" rx="4" ry="4" width="473.8193" x="570.77" y="635.51" pointer-events="none"/><rect fill="#F6FAF6" height="148.2266" rx="4" ry="4" style="stroke:#9CAF88;stroke-width:0.5;" width="473.8193" x="568.77" y="633.01"/><rect fill="#D4E4D4" height="58.8906" rx="4" ry="4" style="stroke:#D4E4D4;stroke-width:0.5;" width="473.8193" x="568.77" y="633.01"/><rect fill="#D4E4D4" height="4" style="stroke:#D4E4D4;stroke-width:0.5;" width="473.8193" x="568.77" y="687.9006"/><rect fill="none" height="148.2266" rx="4" ry="4" style="stroke:#9CAF88;stroke-width:0.5;" width="473.8193" x="568.77" y="633.01"/><ellipse cx="727.8706" cy="662.4553" fill="#ADD1B2" rx="13" ry="13" style="stroke:#181818;stroke-width:1;"/><path d="M730.4487,669.5178 Q729.73,669.8772 728.9331,670.0647 Q728.1518,670.2522 727.2925,670.2522 Q724.1831,670.2522 722.5581,668.2209 Q720.9331,666.1741 720.9331,662.3147 Q720.9331,658.4553 722.5581,656.4084 Q724.1831,654.3616 727.2925,654.3616 Q728.1518,654.3616 728.9487,654.5491 Q729.7612,654.7366 730.4487,655.1116 L730.4487,658.4709 Q729.6831,657.7522 728.9487,657.4241 Q728.2143,657.0803 727.4331,657.0803 Q725.7768,657.0803 724.9175,658.4084 Q724.0737,659.7209 724.0737,662.3147 Q724.0737,664.8928 724.9175,666.2209 Q725.7768,667.5334 727.4331,667.5334 Q728.2143,667.5334 728.9487,667.2053 Q729.6831,666.8616 730.4487,666.1584 L730.4487,669.5178 Z " fill="#1A202C"/><text fill="#1A202C" font-family="Arial" font-size="21" font-weight="700" lengthAdjust="spacing" textLength="102.2314" x="773.3139" y="657.5027">&#171;Result&#187;</text><text fill="#2D3748" font-family="Arial" font-size="21" font-weight="700" lengthAdjust="spacing" textLength="146.1182" x="751.3706" y="681.948">CheckResult</text><line style="stroke:#9CAF88;stroke-width:0.5;" x1="569.77" x2="1041.5893" y1="691.9006" y2="691.9006"/><g data-visibility-modifier="PUBLIC_FIELD"><ellipse cx="579.77" cy="709.6233" fill="none" rx="3" ry="3" style="stroke:#038048;stroke-width:1;"/></g><text fill="#2D3748" font-family="Arial" font-size="21" font-weight="700" lengthAdjust="spacing" textLength="231.4307" x="590.77" y="715.3933">conformance : float</text><g data-visibility-modifier="PUBLIC_FIELD"><ellipse cx="579.77" cy="734.0686" fill="none" rx="3" ry="3" style="stroke:#038048;stroke-width:1;"/></g><text fill="#2D3748" font-family="Arial" font-size="21" font-weight="700" lengthAdjust="spacing" textLength="445.8193" x="590.77" y="739.8386">counterexamples : list[ConcreteCase]</text><g data-visibility-modifier="PUBLIC_FIELD"><ellipse cx="579.77" cy="758.5139" fill="none" rx="3" ry="3" style="stroke:#038048;stroke-width:1;"/></g><text fill="#2D3748" font-family="Arial" font-size="21" font-weight="700" lengthAdjust="spacing" textLength="318.3325" x="590.77" y="764.2839">strict_formal_passed : bool</text><line style="stroke:#9CAF88;stroke-width:0.5;" x1="569.77" x2="1041.5893" y1="773.2366" y2="773.2366"/></g><g class="entity" data-qualified-name="GMN12" data-source-line="152" id="ent0013"><path d="M1043.22,497.45 L1043.22,548.3406 A4,4 0 0 0 1047.22,552.3406 L1550.1209,552.3406 A4,4 0 0 0 1554.1209,548.3406 L1554.1209,503.45 L1544.1209,493.45 L1152.29,493.45 L1148.29,413.06 L1144.29,493.45 L1047.22,493.45 A4,4 0 0 0 1043.22,497.45" fill="#FFFFF0" style="stroke:#D69E2E;stroke-width:0.5;"/><path d="M1544.1209,493.45 L1544.1209,501.45 A2,2 0 0 0 1546.1209,503.45 L1554.1209,503.45 L1544.1209,493.45" fill="#FFFFF0" style="stroke:#D69E2E;stroke-width:0.5;"/><text fill="#744210" font-family="Arial" font-size="21" font-weight="700" lengthAdjust="spacing" textLength="473.6177" x="1049.22" y="517.9427">Z3 model generation produces concrete</text><text fill="#744210" font-family="Arial" font-size="21" font-weight="700" lengthAdjust="spacing" textLength="489.9009" x="1049.22" y="542.388">witnesses for each scenario guard region</text></g><!--link ASFLBridge to TaskSpec--><g class="link" data-entity-1="ent0001" data-entity-2="ent0002" data-link-type="dependency" data-source-line="145" id="lnk7"><path codeLine="145" d="M238.68,180 C238.68,191.61 238.68,198.58 238.68,210.37" fill="none" id="ASFLBridge-to-TaskSpec" style="stroke:#4A5568;stroke-width:1;stroke-dasharray:7,7;"/><polygon fill="#4A5568" points="238.68,215.37,242.68,206.37,238.68,210.37,234.68,206.37,238.68,215.37" style="stroke:#4A5568;stroke-width:1;stroke-linejoin:miter;stroke-miterlimit:10;"/><polygon fill="#4A5568" points="126.68,192.9127,131.3823,178.4405,121.9777,178.4405,126.68,192.9127" style="stroke:#4A5568;stroke-width:1;stroke-linejoin:miter;stroke-miterlimit:10;"/><text fill="#4A5568" font-family="Arial" font-size="21" font-weight="700" lengthAdjust="spacing" textLength="97.3403" x="140.68" y="192.1827">extracts</text></g><!--reverse link TaskSpec to FSFScenario--><g class="link" data-entity-1="ent0002" data-entity-2="ent0003" data-link-type="composition" data-source-line="146" id="lnk8"><path codeLine="146" d="M278.38,425.06 C278.38,436.97 278.38,436.97 278.38,448.44" fill="none" id="TaskSpec-backto-FSFScenario" style="stroke:#4A5568;stroke-width:1;"/><polygon fill="#4A5568" points="278.38,413.06,274.38,419.06,278.38,425.06,282.38,419.06,278.38,413.06" style="stroke:#4A5568;stroke-width:1;stroke-linejoin:miter;stroke-miterlimit:10;"/><text fill="#4A5568" font-family="Arial" font-size="21" font-weight="700" lengthAdjust="spacing" textLength="100.6831" x="177.38" y="425.2427">contains</text><text fill="#4A5568" font-family="Arial" font-size="21" font-weight="700" lengthAdjust="spacing" textLength="14.6118" x="263.8823" y="435.7302">1</text><text fill="#4A5568" font-family="Arial" font-size="21" font-weight="700" lengthAdjust="spacing" textLength="41.5488" x="275.5668" y="435.7129">0..*</text></g><!--link Z3Translator to FSFScenario--><g class="link" data-entity-1="ent0004" data-entity-2="ent0003" data-link-type="dependency" data-source-line="147" id="lnk9"><path codeLine="147" d="M486.29,413.06 C486.29,424.97 486.29,431.97 486.29,443.44" fill="none" id="Z3Translator-to-FSFScenario" style="stroke:#4A5568;stroke-width:1;stroke-dasharray:7,7;"/><polygon fill="#4A5568" points="486.29,448.44,490.29,439.44,486.29,443.44,482.29,439.44,486.29,448.44" style="stroke:#4A5568;stroke-width:1;stroke-linejoin:miter;stroke-miterlimit:10;"/><polygon fill="#4A5568" points="494.29,451.9727,498.9923,437.5005,489.5877,437.5005,494.29,451.9727" style="stroke:#4A5568;stroke-width:1;stroke-linejoin:miter;stroke-miterlimit:10;"/><text fill="#4A5568" font-family="Arial" font-size="21" font-weight="700" lengthAdjust="spacing" textLength="120.1655" x="508.29" y="451.2427">translates</text></g><!--link Z3Translator to ConcreteCase--><g class="link" data-entity-1="ent0004" data-entity-2="ent0005" data-link-type="dependency" data-source-line="148" id="lnk10"><path codeLine="148" d="M805.68,413.06 C805.68,424.97 805.68,431.97 805.68,443.44" fill="none" id="Z3Translator-to-ConcreteCase" style="stroke:#4A5568;stroke-width:1;stroke-dasharray:7,7;"/><polygon fill="#4A5568" points="805.68,448.44,809.68,439.44,805.68,443.44,801.68,439.44,805.68,448.44" style="stroke:#4A5568;stroke-width:1;stroke-linejoin:miter;stroke-miterlimit:10;"/><polygon fill="#4A5568" points="682.68,425.9727,687.3823,411.5005,677.9777,411.5005,682.68,425.9727" style="stroke:#4A5568;stroke-width:1;stroke-linejoin:miter;stroke-miterlimit:10;"/><text fill="#4A5568" font-family="Arial" font-size="21" font-weight="700" lengthAdjust="spacing" textLength="108.9888" x="696.68" y="425.2427">produces</text></g><!--link ConcreteCase to CheckResult--><g class="link" data-entity-1="ent0005" data-entity-2="ent0006" data-link-type="dependency" data-source-line="149" id="lnk11"><path codeLine="149" d="M805.68,597.3 C805.68,608.99 805.68,616.06 805.68,627.75" fill="none" id="ConcreteCase-to-CheckResult" style="stroke:#4A5568;stroke-width:1;stroke-dasharray:7,7;"/><polygon fill="#4A5568" points="805.68,632.75,809.68,623.75,805.68,627.75,801.68,623.75,805.68,632.75" style="stroke:#4A5568;stroke-width:1;stroke-linejoin:miter;stroke-miterlimit:10;"/><polygon fill="#4A5568" points="599.68,610.2427,604.3823,595.7705,594.9777,595.7705,599.68,610.2427" style="stroke:#4A5568;stroke-width:1;stroke-linejoin:miter;stroke-miterlimit:10;"/><text fill="#4A5568" font-family="Arial" font-size="21" font-weight="700" lengthAdjust="spacing" textLength="191.2764" x="613.68" y="609.5127">aggregated into</text></g><?plantuml-src pLVDSk964Bxp55tEOV4wA1WmngwDgsH0kwcrTrsBuuDJMwf1QiGiOaQP6GpULAho47d2F4bQGeWH2EVYGxWW-lURhxk7rXlu-JK_jJVmONJNS2CU8zp5J9XVRs_Wdx_-XfX7KmC9Yz4OXFezdpqs60a5XiSEm2Tc-1E2dh9GBhc8W6lux7aKRum1MsY4ZqhE-4_l5MFnm-qsTg2Odg86AU0RUs8EMng7prc4paTK0cEedpgjPglhh8uTYZPwU0-XaabZdKa3KmXSVCF0O0Y9rAQXK8IeI0Zh9pzPp6CdUKxTNvUicfvnaJ35vjR19opMQ6d6B9X5IYv4s9UnLF23btqiYqmPI3gjWfub3t725h7nf32Vs1p1LPp5rVeH_uxGEZsWDCzKpR6CmsfzZklK9PxxbadC1Phd144gCvMMGiWGDIRGij4g9cQfiDsrUN6LaiiyGSSzE-lsTfKMWiC6rX6eYlsOQGqXPn4PwQmzjPmOqDGsK1SInl42ZwquGURmHmtWUgyQNS_rkgb6AcgMN7hHTxrUZwJx_Anb6yBpNrju0AunYeyN1YtVrg1ztkdjAhT1oc8xsWTa16iFzg0px0mwXRuAvbQppbEsjfByQHSiaFD42XIccgxXm6jvvxjqvOLxWQu3sHAAdnQjkZJdL9h-Rgx-zU1is2pdAkXzAHSN1jM41OUohSTo9vlRT8Vzvdz4rlZx0aKU-8PFy8OcfphC7LE61poXs-ymjxPH9SsMGHNZE-fjc-qgx4QxbgkNAh2gBi8jwdJgocbiuG7AM43_5zmylswN7HxAaQ6ZvpxjddlQlI3Xi4XOY0QSpQK8gxh3zPgMWGriCEXUjvexFM6OmV_NwKhuX3Gl3K9p5zwWUp5i3SlmpZkTrkc1uGXeKu0vMq7hlDc49G_Dj5PRtyFkoBkvLZoakN_txXSnKUpgAeC2q02TOE0dp4pXajgLd39n8_iw0LmPHQrJtxKwfkzxfcSZakU1V2wUv0p9IcbKzTH26xLHPbB_cvR2bmkJB4nTiUNQ9BKCUM3IOwm1Ro8JtFIhG7i2XZG-3wtO9tJFK3XDefXhynl9l-QATQ8gZGvGCCLbeVD6tYYNVTqUdHOY5ljF13s7cCRu4R901LZBTHzlj60gz0DgO6uuhLmsRje8V0f0AzsShl_31_37dDn5z1A8n_OzxGCwPeRwPB_8WLcHy_UsqwV6eOELYxnXmpSoXKgH6TtTkhwHawjroECDK0etN2Ng2qusU2EabOh6qDUqdUh9Cu7svxIxn7KhR8LxqG6bPa7IqiL6jDNJHvy2R1jcwxrnIbdAQbMt2dPSuin6N517b0GA3VQPJkVZuRDLlgArjZ5SyRpja2HRW_rjerNQ5VmIGamBGJHO-QSOpBwWfkMGqgyVB0Z4t4IgEKl_xYvX4ajc2iqY_OV55PidCHQyskSf4D2s4nW_2nGJlLfZEaDZAUCKY7L1ECxLTlmkD_EluQfMI8zEZ-1jem57JSTvUrJg_yiKhg4owrgf8zEePJkJAp4DlMTRgiab94g6Yo0pBMaoKuk-Is1Hf31YwRi9aIp9ePPTl6DfZ9o3d9GcXTXvR4FMePlUJOUqI1VaoSXkoOsWPYGXaGZ8WcbHrlMGqyjFHCurUWNAxlhQlm00?></g></svg>