<svg xmlns="http://www.w3.org/2000/svg" xmlns:xlink="http://www.w3.org/1999/xlink" contentStyleType="text/css" data-diagram-type="SEQUENCE" height="851px" preserveAspectRatio="none" style="width:1707px;height:851px;background:#FFFFFF;" version="1.1" viewBox="0 0 1707 851" width="1707px" zoomAndPan="magnify"><?plantuml 1.2026.6?><defs/><g><g><title>PipelineRunner</title><rect fill="#FFFFFF" height="613.0156" style="stroke:#181818;stroke-width:1;" width="10" x="638.9885" y="129.8906"/></g><g><title>LLMClient</title><rect fill="#FFFFFF" height="38.4453" style="stroke:#181818;stroke-width:1;" width="10" x="1158.6238" y="211.2266"/></g><g><title>FormalChecker</title><rect fill="#FFFFFF" height="38.4453" style="stroke:#181818;stroke-width:1;" width="10" x="1360.0164" y="288.1172"/></g><g><title>PatternMatcher</title><rect fill="#FFFFFF" height="38.4453" style="stroke:#181818;stroke-width:1;" width="10" x="1566.1616" y="407.8984"/></g><rect fill="#F7FAFC" height="560.5703" rx="4" ry="4" style="stroke:#CBD5E0;stroke-width:1.5;" width="1681.3081" x="10" y="144.8906"/><rect fill="#F7FAFC" height="356.8984" rx="4" ry="4" style="stroke:#CBD5E0;stroke-width:1.5;" width="1661.3081" x="20" y="341.5625"/><rect fill="#F7FAFC" height="152.2266" rx="4" ry="4" style="stroke:#CBD5E0;stroke-width:1.5;" width="1133.6238" x="30" y="461.3438"/><path d="M30,535.6797 L1163.6238,535.6797 L1163.6238,609.5703 A4,4 0 0 1 1159.6238,613.5703 L34,613.5703 A4,4 0 0 1 30,609.5703 L30,535.6797" fill="#F7FAFC" style="stroke:none;stroke-width:1;"/><path d="M20,620.5703 L1681.3081,620.5703 L1681.3081,694.4609 A4,4 0 0 1 1677.3081,698.4609 L24,698.4609 A4,4 0 0 1 20,694.4609 L20,620.5703" fill="#F7FAFC" style="stroke:none;stroke-width:1;"/><g class="participant-lifeline" data-entity-uid="part1" data-qualified-name="R" data-source-line="102" id="part1-lifeline"><g><title>Researcher</title><rect fill="#000000" fill-opacity="0.00000" height="671.4609" width="8" x="98.6418" y="89.4453"/><line style="stroke:#A0AEC0;stroke-width:0.5;stroke-dasharray:5,5;" x1="102" x2="102" y1="89.4453" y2="760.9063"/></g></g><g class="participant-lifeline" data-entity-uid="part2" data-qualified-name="PR" data-source-line="103" id="part2-lifeline"><g><title>PipelineRunner</title><rect fill="#000000" fill-opacity="0.00000" height="671.4609" width="8" x="639.9885" y="89.4453"/><line style="stroke:#A0AEC0;stroke-width:0.5;stroke-dasharray:5,5;" x1="643.4517" x2="643.4517" y1="89.4453" y2="760.9063"/></g></g><g class="participant-lifeline" data-entity-uid="part3" data-qualified-name="LLM" data-source-line="104" id="part3-lifeline"><g><title>LLMClient</title><rect fill="#000000" fill-opacity="0.00000" height="671.4609" width="8" x="1159.6238" y="89.4453"/><line style="stroke:#A0AEC0;stroke-width:0.5;stroke-dasharray:5,5;" x1="1163.23" x2="1163.23" y1="89.4453" y2="760.9063"/></g></g><g class="participant-lifeline" data-entity-uid="part4" data-qualified-name="FC" data-source-line="105" id="part4-lifeline"><g><title>FormalChecker</title><rect fill="#000000" fill-opacity="0.00000" height="671.4609" width="8" x="1361.0164" y="89.4453"/><line style="stroke:#A0AEC0;stroke-width:0.5;stroke-dasharray:5,5;" x1="1364.0176" x2="1364.0176" y1="89.4453" y2="760.9063"/></g></g><g class="participant-lifeline" data-entity-uid="part5" data-qualified-name="PM" data-source-line="106" id="part5-lifeline"><g><title>PatternMatcher</title><rect fill="#000000" fill-opacity="0.00000" height="671.4609" width="8" x="1567.1616" y="89.4453"/><line style="stroke:#A0AEC0;stroke-width:0.5;stroke-dasharray:5,5;" x1="1571.0151" x2="1571.0151" y1="89.4453" y2="760.9063"/></g></g><g class="participant participant-head" data-entity-uid="part1" data-qualified-name="R" data-source-line="102" id="part1-head"><text fill="#1A202C" font-family="Arial" font-size="21" lengthAdjust="spacing" textLength="119.2837" x="40" y="84.4927" font-weight="700">Researcher</text><ellipse cx="102.6418" cy="13.5" fill="#E2E2F0" rx="8" ry="8" style="stroke:#181818;stroke-width:0.5;"/><path d="M102.6418,21.5 L102.6418,48.5 M89.6418,29.5 L115.6418,29.5 M102.6418,48.5 L89.6418,63.5 M102.6418,48.5 L115.6418,63.5" fill="none" style="stroke:#181818;stroke-width:0.5;"/></g><g class="participant participant-tail" data-entity-uid="part1" data-qualified-name="R" data-source-line="102" id="part1-tail"><text fill="#1A202C" font-family="Arial" font-size="21" lengthAdjust="spacing" textLength="119.2837" x="40" y="779.3989" font-weight="700">Researcher</text><ellipse cx="102.6418" cy="792.8516" fill="#E2E2F0" rx="8" ry="8" style="stroke:#181818;stroke-width:0.5;"/><path d="M102.6418,800.8516 L102.6418,827.8516 M89.6418,808.8516 L115.6418,808.8516 M102.6418,827.8516 L89.6418,842.8516 M102.6418,827.8516 L115.6418,842.8516" fill="none" style="stroke:#181818;stroke-width:0.5;"/></g><g class="participant participant-head" data-entity-uid="part2" data-qualified-name="PR" data-source-line="103" id="part2-head"><rect fill="#EDF2F7" height="38.4453" rx="4" ry="4" style="stroke:#4A5568;stroke-width:0.5;" width="195.0737" x="546.4517" y="50"/><text fill="#1A202C" font-family="Arial" font-size="21" font-weight="700" lengthAdjust="spacing" textLength="181.0737" x="553.4517" y="76.4927">PipelineRunner</text></g><g class="participant participant-tail" data-entity-uid="part2" data-qualified-name="PR" data-source-line="103" id="part2-tail"><rect fill="#EDF2F7" height="38.4453" rx="4" ry="4" style="stroke:#4A5568;stroke-width:0.5;" width="195.0737" x="546.4517" y="759.9063"/><text fill="#1A202C" font-family="Arial" font-size="21" font-weight="700" lengthAdjust="spacing" textLength="181.0737" x="553.4517" y="786.3989">PipelineRunner</text></g><g class="participant participant-head" data-entity-uid="part3" data-qualified-name="LLM" data-source-line="104" id="part3-head"><rect fill="#EDF2F7" height="62.8906" rx="4" ry="4" style="stroke:#4A5568;stroke-width:0.5;" width="190.7876" x="1068.23" y="25.5547"/><text fill="#1A202C" font-family="Arial" font-size="21" font-weight="700" lengthAdjust="spacing" textLength="116.6997" x="1105.2739" y="52.0474">LLMClient</text><text fill="#1A202C" font-family="Arial" font-size="21" font-weight="700" lengthAdjust="spacing" textLength="176.7876" x="1075.23" y="76.4927">(Qwen2.5-27B)</text></g><g class="participant participant-tail" data-entity-uid="part3" data-qualified-name="LLM" data-source-line="104" id="part3-tail"><rect fill="#EDF2F7" height="62.8906" rx="4" ry="4" style="stroke:#4A5568;stroke-width:0.5;" width="190.7876" x="1068.23" y="759.9063"/><text fill="#1A202C" font-family="Arial" font-size="21" font-weight="700" lengthAdjust="spacing" textLength="116.6997" x="1105.2739" y="786.3989">LLMClient</text><text fill="#1A202C" font-family="Arial" font-size="21" font-weight="700" lengthAdjust="spacing" textLength="176.7876" x="1075.23" y="810.8442">(Qwen2.5-27B)</text></g><g class="participant participant-head" data-entity-uid="part4" data-qualified-name="FC" data-source-line="105" id="part4-head"><rect fill="#EDF2F7" height="38.4453" rx="4" ry="4" style="stroke:#4A5568;stroke-width:0.5;" width="191.9976" x="1269.0176" y="50"/><text fill="#1A202C" font-family="Arial" font-size="21" font-weight="700" lengthAdjust="spacing" textLength="177.9976" x="1276.0176" y="76.4927">FormalChecker</text></g><g class="participant participant-tail" data-entity-uid="part4" data-qualified-name="FC" data-source-line="105" id="part4-tail"><rect fill="#EDF2F7" height="38.4453" rx="4" ry="4" style="stroke:#4A5568;stroke-width:0.5;" width="191.9976" x="1269.0176" y="759.9063"/><text fill="#1A202C" font-family="Arial" font-size="21" font-weight="700" lengthAdjust="spacing" textLength="177.9976" x="1276.0176" y="786.3989">FormalChecker</text></g><g class="participant participant-head" data-entity-uid="part5" data-qualified-name="PM" data-source-line="106" id="part5-head"><rect fill="#EDF2F7" height="38.4453" rx="4" ry="4" style="stroke:#4A5568;stroke-width:0.5;" width="200.293" x="1471.0151" y="50"/><text fill="#1A202C" font-family="Arial" font-size="21" font-weight="700" lengthAdjust="spacing" textLength="186.293" x="1478.0151" y="76.4927">PatternMatcher</text></g><g class="participant participant-tail" data-entity-uid="part5" data-qualified-name="PM" data-source-line="106" id="part5-tail"><rect fill="#EDF2F7" height="38.4453" rx="4" ry="4" style="stroke:#4A5568;stroke-width:0.5;" width="200.293" x="1471.0151" y="759.9063"/><text fill="#1A202C" font-family="Arial" font-size="21" font-weight="700" lengthAdjust="spacing" textLength="186.293" x="1478.0151" y="786.3989">PatternMatcher</text></g><g><title>PipelineRunner</title><rect fill="#FFFFFF" height="613.0156" style="stroke:#181818;stroke-width:1;" width="10" x="638.9885" y="129.8906"/></g><g><title>LLMClient</title><rect fill="#FFFFFF" height="38.4453" style="stroke:#181818;stroke-width:1;" width="10" x="1158.6238" y="211.2266"/></g><g><title>FormalChecker</title><rect fill="#FFFFFF" height="38.4453" style="stroke:#181818;stroke-width:1;" width="10" x="1360.0164" y="288.1172"/></g><g><title>PatternMatcher</title><rect fill="#FFFFFF" height="38.4453" style="stroke:#181818;stroke-width:1;" width="10" x="1566.1616" y="407.8984"/></g><g class="message" data-entity-1="part1" data-entity-2="part2" data-source-line="108" id="msg1"><polygon fill="#4A5568" points="626.9885,125.8906,636.9885,129.8906,626.9885,133.8906,630.9885,129.8906" style="stroke:#4A5568;stroke-width:1;stroke-linejoin:miter;stroke-miterlimit:10;"/><line style="stroke:#4A5568;stroke-width:1;" x1="102.6418" x2="632.9885" y1="129.8906" y2="129.8906"/><text fill="#4A5568" font-family="Arial" font-size="21" font-weight="700" lengthAdjust="spacing" textLength="198.6079" x="109.6418" y="122.938">run(task, config)</text></g><path d="M14,144.8906 L106.085,144.8906 L106.085,161.3359 L96.085,171.3359 L10,171.3359 L10,148.8906 A4,4 0 0 1 14,144.8906" fill="#EEEEEE" style="stroke:#000000;stroke-width:1.5;"/><rect fill="none" height="560.5703" rx="4" ry="4" style="stroke:#CBD5E0;stroke-width:1.5;" width="1681.3081" x="10" y="144.8906"/><text fill="#1A202C" font-family="Arial" font-size="21" font-weight="700" lengthAdjust="spacing" textLength="51.085" x="25" y="165.3833">loop</text><text fill="#1A202C" font-family="Arial" font-size="21" font-weight="700" lengthAdjust="spacing" textLength="329.8989" x="121.085" y="166.3833">[k = 1 to K (max_attempts)]</text><g class="message" data-entity-1="part2" data-entity-2="part3" data-source-line="112" id="msg2"><polygon fill="#4A5568" points="1146.6238,207.2266,1156.6238,211.2266,1146.6238,215.2266,1150.6238,211.2266" style="stroke:#4A5568;stroke-width:1;stroke-linejoin:miter;stroke-miterlimit:10;"/><line style="stroke:#4A5568;stroke-width:1;" x1="648.9885" x2="1152.6238" y1="211.2266" y2="211.2266"/><text fill="#4A5568" font-family="Arial" font-size="21" font-weight="700" lengthAdjust="spacing" textLength="323.5107" x="655.9885" y="204.2739">synthesize(spec, feedback)</text></g><g class="message" data-entity-1="part3" data-entity-2="part2" data-source-line="114" id="msg3"><polygon fill="#4A5568" points="659.9885,245.6719,649.9885,249.6719,659.9885,253.6719,655.9885,249.6719" style="stroke:#4A5568;stroke-width:1;stroke-linejoin:miter;stroke-miterlimit:10;"/><line style="stroke:#4A5568;stroke-width:1;stroke-dasharray:2,2;" x1="653.9885" x2="1162.6238" y1="249.6719" y2="249.6719"/><text fill="#4A5568" font-family="Arial" font-size="21" font-weight="700" lengthAdjust="spacing" textLength="183.9346" x="665.9885" y="242.7192">candidate_code</text></g><g class="message" data-entity-1="part2" data-entity-2="part4" data-source-line="117" id="msg4"><polygon fill="#4A5568" points="1348.0164,284.1172,1358.0164,288.1172,1348.0164,292.1172,1352.0164,288.1172" style="stroke:#4A5568;stroke-width:1;stroke-linejoin:miter;stroke-miterlimit:10;"/><line style="stroke:#4A5568;stroke-width:1;" x1="648.9885" x2="1354.0164" y1="288.1172" y2="288.1172"/><text fill="#4A5568" font-family="Arial" font-size="21" font-weight="700" lengthAdjust="spacing" textLength="270.498" x="655.9885" y="281.1646">check(candidate, task)</text></g><g class="message" data-entity-1="part4" data-entity-2="part2" data-source-line="119" id="msg5"><polygon fill="#4A5568" points="659.9885,322.5625,649.9885,326.5625,659.9885,330.5625,655.9885,326.5625" style="stroke:#4A5568;stroke-width:1;stroke-linejoin:miter;stroke-miterlimit:10;"/><line style="stroke:#4A5568;stroke-width:1;stroke-dasharray:2,2;" x1="653.9885" x2="1364.0164" y1="326.5625" y2="326.5625"/><text fill="#4A5568" font-family="Arial" font-size="21" font-weight="700" lengthAdjust="spacing" textLength="538.2686" x="665.9885" y="319.6099">CheckResult(conformance, counterexamples)</text></g><path d="M24,341.5625 L96.4077,341.5625 L96.4077,358.0078 L86.4077,368.0078 L20,368.0078 L20,345.5625 A4,4 0 0 1 24,341.5625" fill="#EEEEEE" style="stroke:#000000;stroke-width:1.5;"/><rect fill="none" height="356.8984" rx="4" ry="4" style="stroke:#CBD5E0;stroke-width:1.5;" width="1661.3081" x="20" y="341.5625"/><text fill="#1A202C" font-family="Arial" font-size="21" font-weight="700" lengthAdjust="spacing" textLength="31.4077" x="35" y="362.0552">alt</text><text fill="#1A202C" font-family="Arial" font-size="21" font-weight="700" lengthAdjust="spacing" textLength="259.6494" x="111.4077" y="363.0552">[conformance == 1.0]</text><g class="message" data-entity-1="part2" data-entity-2="part5" data-source-line="123" id="msg6"><polygon fill="#4A5568" points="1554.1616,403.8984,1564.1616,407.8984,1554.1616,411.8984,1558.1616,407.8984" style="stroke:#4A5568;stroke-width:1;stroke-linejoin:miter;stroke-miterlimit:10;"/><line style="stroke:#4A5568;stroke-width:1;" x1="648.9885" x2="1560.1616" y1="407.8984" y2="407.8984"/><text fill="#4A5568" font-family="Arial" font-size="21" font-weight="700" lengthAdjust="spacing" textLength="275.9326" x="655.9885" y="400.9458">match(candidate, task)</text></g><g class="message" data-entity-1="part5" data-entity-2="part2" data-source-line="125" id="msg7"><polygon fill="#4A5568" points="659.9885,442.3438,649.9885,446.3438,659.9885,450.3438,655.9885,446.3438" style="stroke:#4A5568;stroke-width:1;stroke-linejoin:miter;stroke-miterlimit:10;"/><line style="stroke:#4A5568;stroke-width:1;stroke-dasharray:2,2;" x1="653.9885" x2="1570.1616" y1="446.3438" y2="446.3438"/><text fill="#4A5568" font-family="Arial" font-size="21" font-weight="700" lengthAdjust="spacing" textLength="136.5" x="665.9885" y="439.3911">PatternHits</text></g><path d="M34,461.3438 L106.4077,461.3438 L106.4077,477.7891 L96.4077,487.7891 L30,487.7891 L30,465.3438 A4,4 0 0 1 34,461.3438" fill="#EEEEEE" style="stroke:#000000;stroke-width:1.5;"/><rect fill="none" height="152.2266" rx="4" ry="4" style="stroke:#CBD5E0;stroke-width:1.5;" width="1133.6238" x="30" y="461.3438"/><text fill="#1A202C" font-family="Arial" font-size="21" font-weight="700" lengthAdjust="spacing" textLength="31.4077" x="45" y="481.8364">alt</text><text fill="#1A202C" font-family="Arial" font-size="21" font-weight="700" lengthAdjust="spacing" textLength="264.6841" x="121.4077" y="482.8364">[no high-severity hits]</text><g class="message" data-entity-1="part2" data-entity-2="part1" data-source-line="129" id="msg8"><polygon fill="#4A5568" points="113.6418,523.6797,103.6418,527.6797,113.6418,531.6797,109.6418,527.6797" style="stroke:#4A5568;stroke-width:1;stroke-linejoin:miter;stroke-miterlimit:10;"/><line style="stroke:#4A5568;stroke-width:1;stroke-dasharray:2,2;" x1="107.6418" x2="637.9885" y1="527.6797" y2="527.6797"/><text fill="#4A5568" font-family="Arial" font-size="21" font-weight="700" lengthAdjust="spacing" textLength="122.9136" x="119.6418" y="520.7271">ACCEPTED</text><text fill="#4A5568" font-family="Arial" font-size="21" font-weight="700" lengthAdjust="spacing" textLength="136.4795" x="242.5554" y="520.7271">(candidate)</text></g><line style="stroke:#CBD5E0;stroke-width:1;stroke-dasharray:2,2;" x1="30" x2="1163.6238" y1="536.6797" y2="536.6797"/><text fill="#1A202C" font-family="Arial" font-size="21" font-weight="700" lengthAdjust="spacing" textLength="231.1333" x="35" y="556.1724">[pattern violations]</text><g class="message" data-entity-1="part2" data-entity-2="part2" data-source-line="131" id="msg9"><line style="stroke:#4A5568;stroke-width:1;" x1="648.9885" x2="690.9885" y1="592.5703" y2="592.5703"/><line style="stroke:#4A5568;stroke-width:1;" x1="690.9885" x2="690.9885" y1="592.5703" y2="605.5703"/><line style="stroke:#4A5568;stroke-width:1;" x1="649.9885" x2="690.9885" y1="605.5703" y2="605.5703"/><polygon fill="#4A5568" points="659.9885,601.5703,649.9885,605.5703,659.9885,609.5703,655.9885,605.5703" style="stroke:#4A5568;stroke-width:1;stroke-linejoin:miter;stroke-miterlimit:10;"/><text fill="#4A5568" font-family="Arial" font-size="21" font-weight="700" lengthAdjust="spacing" textLength="485.6353" x="655.9885" y="585.6177">update_feedback(counterexamples, hits)</text></g><line style="stroke:#CBD5E0;stroke-width:1;stroke-dasharray:2,2;" x1="20" x2="1681.3081" y1="621.5703" y2="621.5703"/><text fill="#1A202C" font-family="Arial" font-size="21" font-weight="700" lengthAdjust="spacing" textLength="242.0537" x="25" y="641.063">[conformance &lt; 1.0]</text><g class="message" data-entity-1="part2" data-entity-2="part2" data-source-line="135" id="msg10"><line style="stroke:#4A5568;stroke-width:1;" x1="648.9885" x2="690.9885" y1="677.4609" y2="677.4609"/><line style="stroke:#4A5568;stroke-width:1;" x1="690.9885" x2="690.9885" y1="677.4609" y2="690.4609"/><line style="stroke:#4A5568;stroke-width:1;" x1="649.9885" x2="690.9885" y1="690.4609" y2="690.4609"/><polygon fill="#4A5568" points="659.9885,686.4609,649.9885,690.4609,659.9885,694.4609,655.9885,690.4609" style="stroke:#4A5568;stroke-width:1;stroke-linejoin:miter;stroke-miterlimit:10;"/><text fill="#4A5568" font-family="Arial" font-size="21" font-weight="700" lengthAdjust="spacing" textLength="425.6602" x="655.9885" y="670.5083">update_feedback(counterexamples)</text></g><g class="message" data-entity-1="part2" data-entity-2="part1" data-source-line="139" id="msg11"><polygon fill="#4A5568" points="113.6418,738.9063,103.6418,742.9063,113.6418,746.9063,109.6418,742.9063" style="stroke:#4A5568;stroke-width:1;stroke-linejoin:miter;stroke-miterlimit:10;"/><line style="stroke:#4A5568;stroke-width:1;stroke-dasharray:2,2;" x1="107.6418" x2="642.9885" y1="742.9063" y2="742.9063"/><text fill="#4A5568" font-family="Arial" font-size="21" font-weight="700" lengthAdjust="spacing" textLength="512.3467" x="119.6418" y="735.9536">BEST_CANDIDATE(candidate, conformance)</text></g><?plantuml-src pLRRSk9647tNLtHj7XPSXe2CCKvbKoKaj4xPECHszY6LAjTOQc0MCQFC3BuajLNx4Vd2V4bwX0o3B9my-25wWkwUSqvVvl8UFhpbvxs7i-j9AvZn366ICM5-6L_0tr__WepFvWPobg4n28qRllYrnSWeC6ss0IwPuVS8UivI-S353BY6d-AOyEumOIkDSAxaWd_xKJ6MVHfliHF5z1mrI06VsJrhimVJvaism_OvAe4PDBfjl-Ftsu_DDg5TV_e8gP9vQysaWIa4BZvZOZ25N6hJKYXIL6I4zQ_RVBNCslcJNVwsnVBqWekSARPq4f-oJAFZkMF9OgRaIgIXpAI2R-BYSo8APo8fMmK3nvxYbAqo4qjXBjaI8L2SPVN-Q_u7Wj_TupHFrCqxcQNr_b9NDw0wXqv8nWMQfnn1AZENZaF853NcuBjg5HCBQppgktK9b98F9K4lE3xk3wfEHy7-02S5wcAOCQqXvMn6GReOJosd1ZID3JI4XBjiXKq79oaM_Ea135zqeny7STzwfA9XAQsdOH0F1cHzMP-rxRdWvR-jF8306CNlLWQTjNvqTD8RL9rRa5spYtQ6Z6Iza1trHhsej_7NoTnwrZoxqGx95xTXYLpcKg0mzUKQHR4VdrJBLJRkbNBjOSi9tpQjlZKdr9gmoXKEe-DHPvThKzxNkBWmgAOisSUstfOLjg0JZCBElo1h_7s5eWI-u5Eye9rJ3pDXol24vtJwxQ-j6rHRPYUWhk8LztRCgWvtq8RoyRKEFDOtOOpQxhfT6jUufsGieVk2cwUtdRBzc_BQKEhbcgD1qEsVad6q8ToO8iwMKgHrqn747IV05HP5_Q7VgSo4OGR_Nzdjw1FIlBOHEbLvKVzqv8zsvPtqUdvtp-P8wAK0I_P8vqwd0myyDNFFewxJkYkwF9XAvdJTCGrNNhwTIdWtuJdQY-Tg9UW-V6SZ9fMGYujnc74weduJZPyVKFZjuvP_CcmMmUJSZOwbMh8id6EoAF5eedSf6Jrfb1WpOpMjASUUTmMj7uWRlWEr4Wt3zEAGJaSnvREcLuolRJ1fyp8fSrZ01-Y2aN0E3Khxrc8kSwERTjiLKAICiFIJCFJUeLusT8x98KmHK_j6i84RM9i552jQpo8I9bAUalCseUkNl2dkX6zuuj16stmRcpM7OFNlK1Jxcc8t14M9g3VqAcZOF6tTw52pIQ_iqOcFR9bdM6JaS1EEXSqCE8leeGNTjXsDPrKJc_pIbhXEbQDhCbwlSb8l6tJ6ZIvy3lkaI7pDJnV_d5wfBOttgEpPCdzUi1P1S1Rju208mz7aPXGT76orh5KWlTteKYheu9xBZ9wrKhWWfQHLNhJYkNcDIeqE2-uIKwHMOm7jbkZxQeN-0wv5j7W5ffFJS7HzSni6bz6FKN0pSYliC3Ozjt1NtZy0?></g></svg>