<svg xmlns="http://www.w3.org/2000/svg" xmlns:xlink="http://www.w3.org/1999/xlink" contentStyleType="text/css" data-diagram-type="CLASS" height="1493px" preserveAspectRatio="none" style="width:1682px;height:1493px;background:#FFFFFF;" version="1.1" viewBox="0 0 1682 1493" width="1682px" zoomAndPan="magnify"><?plantuml 1.2026.6?><defs/><g><!--class PipelineRunner--><g class="entity" data-qualified-name="PipelineRunner" data-source-line="103" id="ent0001"><rect class="hsp-shadow-clone" fill="#000000" opacity="0.20" height="294.8984" rx="4" ry="4" width="542.6538" x="9.0" y="751.5" pointer-events="none"/><rect fill="#F6FAF6" height="294.8984" rx="4" ry="4" style="stroke:#9CAF88;stroke-width:0.5;" width="542.6538" x="7" y="749"/><rect fill="#D4E4D4" height="58.8906" rx="4" ry="4" style="stroke:#D4E4D4;stroke-width:0.5;" width="542.6538" x="7" y="749"/><rect fill="#D4E4D4" height="4" style="stroke:#D4E4D4;stroke-width:0.5;" width="542.6538" x="7" y="803.8906"/><rect fill="none" height="294.8984" rx="4" ry="4" style="stroke:#9CAF88;stroke-width:0.5;" width="542.6538" x="7" y="749"/><ellipse cx="183.04" cy="778.4453" fill="#ADD1B2" rx="13" ry="13" style="stroke:#181818;stroke-width:1;"/><path d="M185.6182,785.5078 Q184.8994,785.8672 184.1025,786.0547 Q183.3213,786.2422 182.4619,786.2422 Q179.3525,786.2422 177.7275,784.2109 Q176.1025,782.1641 176.1025,778.3047 Q176.1025,774.4453 177.7275,772.3984 Q179.3525,770.3516 182.4619,770.3516 Q183.3213,770.3516 184.1182,770.5391 Q184.9307,770.7266 185.6182,771.1016 L185.6182,774.4609 Q184.8525,773.7422 184.1182,773.4141 Q183.3838,773.0703 182.6025,773.0703 Q180.9463,773.0703 180.0869,774.3984 Q179.2432,775.7109 179.2432,778.3047 Q179.2432,780.8828 180.0869,782.2109 Q180.9463,783.5234 182.6025,783.5234 Q183.3838,783.5234 184.1182,783.1953 Q184.8525,782.8516 185.6182,782.1484 L185.6182,785.5078 Z " fill="#1A202C"/><text fill="#1A202C" font-family="Arial" font-size="21" font-weight="700" lengthAdjust="spacing" textLength="81.5698" x="256.292" y="773.4927">&#171;Core&#187;</text><text fill="#2D3748" font-family="Arial" font-size="21" font-weight="700" lengthAdjust="spacing" textLength="181.0737" x="206.54" y="797.938">PipelineRunner</text><line style="stroke:#9CAF88;stroke-width:0.5;" x1="8" x2="548.6538" y1="807.8906" y2="807.8906"/><g data-visibility-modifier="PRIVATE_FIELD"><rect fill="none" height="6" style="stroke:#C82930;stroke-width:1;" width="6" x="15" y="822.6133"/></g><text fill="#2D3748" font-family="Arial" font-size="21" font-weight="700" lengthAdjust="spacing" textLength="267.8218" x="29" y="831.3833">config : PipelineConfig</text><g data-visibility-modifier="PRIVATE_FIELD"><rect fill="none" height="6" style="stroke:#C82930;stroke-width:1;" width="6" x="15" y="847.0586"/></g><text fill="#2D3748" font-family="Arial" font-size="21" font-weight="700" lengthAdjust="spacing" textLength="175.998" x="29" y="855.8286">llm : LLMClient</text><g data-visibility-modifier="PRIVATE_FIELD"><rect fill="none" height="6" style="stroke:#C82930;stroke-width:1;" width="6" x="15" y="871.5039"/></g><text fill="#2D3748" font-family="Arial" font-size="21" font-weight="700" lengthAdjust="spacing" textLength="293.6719" x="29" y="880.2739">checker : FormalChecker</text><g data-visibility-modifier="PRIVATE_FIELD"><rect fill="none" height="6" style="stroke:#C82930;stroke-width:1;" width="6" x="15" y="895.9492"/></g><text fill="#2D3748" font-family="Arial" font-size="21" font-weight="700" lengthAdjust="spacing" textLength="278.855" x="29" y="904.7192">guard : PatternMatcher</text><line style="stroke:#9CAF88;stroke-width:1;" x1="8" x2="548.6538" y1="913.6719" y2="913.6719"/><g data-visibility-modifier="PUBLIC_METHOD"><ellipse cx="18" cy="931.3945" fill="#84BE84" rx="3" ry="3" style="stroke:#038048;stroke-width:1;"/></g><text fill="#2D3748" font-family="Arial" font-size="21" font-weight="700" lengthAdjust="spacing" textLength="514.6538" x="29" y="937.1646">run(task : BenchmarkTask) : PipelineResult</text><g data-visibility-modifier="PRIVATE_METHOD"><rect fill="#F24D5C" height="6" style="stroke:#C82930;stroke-width:1;" width="6" x="15" y="952.8398"/></g><text fill="#2D3748" font-family="Arial" font-size="21" font-weight="700" lengthAdjust="spacing" textLength="212.1431" x="29" y="961.6099">_synthesize() : str</text><g data-visibility-modifier="PRIVATE_METHOD"><rect fill="#F24D5C" height="6" style="stroke:#C82930;stroke-width:1;" width="6" x="15" y="977.2852"/></g><text fill="#2D3748" font-family="Arial" font-size="21" font-weight="700" lengthAdjust="spacing" textLength="354.5596" x="29" y="986.0552">_check_formal() : CheckResult</text><g data-visibility-modifier="PRIVATE_METHOD"><rect fill="#F24D5C" height="6" style="stroke:#C82930;stroke-width:1;" width="6" x="15" y="1001.7305"/></g><text fill="#2D3748" font-family="Arial" font-size="21" font-weight="700" lengthAdjust="spacing" textLength="156.9668" x="29" y="1010.5005">_repair() : str</text><g data-visibility-modifier="PRIVATE_METHOD"><rect fill="#F24D5C" height="6" style="stroke:#C82930;stroke-width:1;" width="6" x="15" y="1026.1758"/></g><text fill="#2D3748" font-family="Arial" font-size="21" font-weight="700" lengthAdjust="spacing" textLength="269.5342" x="29" y="1034.9458">_check_patterns() : list</text></g><!--class PipelineConfig--><g class="entity" data-qualified-name="PipelineConfig" data-source-line="116" id="ent0002"><rect class="hsp-shadow-clone" fill="#000000" opacity="0.20" height="294.8984" rx="4" ry="4" width="296.8369" x="789.23" y="9.5" pointer-events="none"/><rect fill="#F6FAF6" height="294.8984" rx="4" ry="4" style="stroke:#9CAF88;stroke-width:0.5;" width="296.8369" x="787.23" y="7"/><rect fill="#D4E4D4" height="58.8906" rx="4" ry="4" style="stroke:#D4E4D4;stroke-width:0.5;" width="296.8369" x="787.23" y="7"/><rect fill="#D4E4D4" height="4" style="stroke:#D4E4D4;stroke-width:0.5;" width="296.8369" x="787.23" y="61.8906"/><rect fill="none" height="294.8984" rx="4" ry="4" style="stroke:#9CAF88;stroke-width:0.5;" width="296.8369" x="787.23" y="7"/><ellipse cx="845.0938" cy="36.4453" fill="#ADD1B2" rx="13" ry="13" style="stroke:#181818;stroke-width:1;"/><path d="M847.6719,43.5078 Q846.9531,43.8672 846.1563,44.0547 Q845.375,44.2422 844.5156,44.2422 Q841.4063,44.2422 839.7813,42.2109 Q838.1563,40.1641 838.1563,36.3047 Q838.1563,32.4453 839.7813,30.3984 Q841.4063,28.3516 844.5156,28.3516 Q845.375,28.3516 846.1719,28.5391 Q846.9844,28.7266 847.6719,29.1016 L847.6719,32.4609 Q846.9063,31.7422 846.1719,31.4141 Q845.4375,31.0703 844.6563,31.0703 Q843,31.0703 842.1406,32.3984 Q841.2969,33.7109 841.2969,36.3047 Q841.2969,38.8828 842.1406,40.2109 Q843,41.5234 844.6563,41.5234 Q845.4375,41.5234 846.1719,41.1953 Q846.9063,40.8516 847.6719,40.1484 L847.6719,43.5078 Z " fill="#1A202C"/><text fill="#1A202C" font-family="Arial" font-size="21" font-weight="700" lengthAdjust="spacing" textLength="61.2363" x="923.7803" y="31.4927">&#171;VO&#187;</text><text fill="#2D3748" font-family="Arial" font-size="21" font-weight="700" lengthAdjust="spacing" textLength="171.6094" x="868.5938" y="55.938">PipelineConfig</text><line style="stroke:#9CAF88;stroke-width:0.5;" x1="788.23" x2="1083.0669" y1="65.8906" y2="65.8906"/><g data-visibility-modifier="PUBLIC_FIELD"><ellipse cx="798.23" cy="83.6133" fill="none" rx="3" ry="3" style="stroke:#038048;stroke-width:1;"/></g><text fill="#2D3748" font-family="Arial" font-size="21" font-weight="700" lengthAdjust="spacing" textLength="121.4985" x="809.23" y="89.3833">mode : str</text><g data-visibility-modifier="PUBLIC_FIELD"><ellipse cx="798.23" cy="108.0586" fill="none" rx="3" ry="3" style="stroke:#038048;stroke-width:1;"/></g><text fill="#2D3748" font-family="Arial" font-size="21" font-weight="700" lengthAdjust="spacing" textLength="223.248" x="809.23" y="113.8286">max_attempts : int</text><g data-visibility-modifier="PUBLIC_FIELD"><ellipse cx="798.23" cy="132.5039" fill="none" rx="3" ry="3" style="stroke:#038048;stroke-width:1;"/></g><text fill="#2D3748" font-family="Arial" font-size="21" font-weight="700" lengthAdjust="spacing" textLength="241.6128" x="809.23" y="138.2739">enable_formal : bool</text><g data-visibility-modifier="PUBLIC_FIELD"><ellipse cx="798.23" cy="156.9492" fill="none" rx="3" ry="3" style="stroke:#038048;stroke-width:1;"/></g><text fill="#2D3748" font-family="Arial" font-size="21" font-weight="700" lengthAdjust="spacing" textLength="265.771" x="809.23" y="162.7192">enable_patterns : bool</text><g data-visibility-modifier="PUBLIC_FIELD"><ellipse cx="798.23" cy="181.3945" fill="none" rx="3" ry="3" style="stroke:#038048;stroke-width:1;"/></g><text fill="#2D3748" font-family="Arial" font-size="21" font-weight="700" lengthAdjust="spacing" textLength="235.7988" x="809.23" y="187.1646">enable_repair : bool</text><g data-visibility-modifier="PUBLIC_FIELD"><ellipse cx="798.23" cy="205.8398" fill="none" rx="3" ry="3" style="stroke:#038048;stroke-width:1;"/></g><text fill="#2D3748" font-family="Arial" font-size="21" font-weight="700" lengthAdjust="spacing" textLength="128.6968" x="809.23" y="211.6099">model : str</text><g data-visibility-modifier="PUBLIC_FIELD"><ellipse cx="798.23" cy="230.2852" fill="none" rx="3" ry="3" style="stroke:#038048;stroke-width:1;"/></g><text fill="#2D3748" font-family="Arial" font-size="21" font-weight="700" lengthAdjust="spacing" textLength="227.5444" x="809.23" y="236.0552">temperature : float</text><g data-visibility-modifier="PUBLIC_FIELD"><ellipse cx="798.23" cy="254.7305" fill="none" rx="3" ry="3" style="stroke:#038048;stroke-width:1;"/></g><text fill="#2D3748" font-family="Arial" font-size="21" font-weight="700" lengthAdjust="spacing" textLength="268.8369" x="809.23" y="260.5005">formal_max_cases : int</text><g data-visibility-modifier="PUBLIC_FIELD"><ellipse cx="798.23" cy="279.1758" fill="none" rx="3" ry="3" style="stroke:#038048;stroke-width:1;"/></g><text fill="#2D3748" font-family="Arial" font-size="21" font-weight="700" lengthAdjust="spacing" textLength="253.9482" x="809.23" y="284.9458">strict_eval_cases : int</text><line style="stroke:#9CAF88;stroke-width:0.5;" x1="788.23" x2="1083.0669" y1="293.8984" y2="293.8984"/></g><!--class LLMClient--><g class="entity" data-qualified-name="LLMClient" data-source-line="128" id="ent0003"><rect class="hsp-shadow-clone" fill="#000000" opacity="0.20" height="123.7813" rx="4" ry="4" width="361.498" x="756.9" y="755.06" pointer-events="none"/><rect fill="#F6FAF6" height="123.7813" rx="4" ry="4" style="stroke:#9CAF88;stroke-width:0.5;" width="361.498" x="754.9" y="752.56"/><rect fill="#D4E4D4" height="58.8906" rx="4" ry="4" style="stroke:#D4E4D4;stroke-width:0.5;" width="361.498" x="754.9" y="752.56"/><rect fill="#D4E4D4" height="4" style="stroke:#D4E4D4;stroke-width:0.5;" width="361.498" x="754.9" y="807.4506"/><rect fill="none" height="123.7813" rx="4" ry="4" style="stroke:#9CAF88;stroke-width:0.5;" width="361.498" x="754.9" y="752.56"/><ellipse cx="872.5492" cy="782.0053" fill="#ADD1B2" rx="13" ry="13" style="stroke:#181818;stroke-width:1;"/><path d="M875.1273,789.0678 Q874.4085,789.4272 873.6117,789.6147 Q872.8304,789.8022 871.971,789.8022 Q868.8617,789.8022 867.2367,787.7709 Q865.6117,785.7241 865.6117,781.8647 Q865.6117,778.0053 867.2367,775.9584 Q868.8617,773.9116 871.971,773.9116 Q872.8304,773.9116 873.6273,774.0991 Q874.4398,774.2866 875.1273,774.6616 L875.1273,778.0209 Q874.3617,777.3022 873.6273,776.9741 Q872.8929,776.6303 872.1117,776.6303 Q870.4554,776.6303 869.596,777.9584 Q868.7523,779.2709 868.7523,781.8647 Q868.7523,784.4428 869.596,785.7709 Q870.4554,787.0834 872.1117,787.0834 Q872.8929,787.0834 873.6273,786.7553 Q874.3617,786.4116 875.1273,785.7084 L875.1273,789.0678 Z " fill="#1A202C"/><text fill="#1A202C" font-family="Arial" font-size="21" font-weight="700" lengthAdjust="spacing" textLength="74.792" x="917.003" y="777.0527">&#171;LLM&#187;</text><text fill="#2D3748" font-family="Arial" font-size="21" font-weight="700" lengthAdjust="spacing" textLength="116.6997" x="896.0492" y="801.498">LLMClient</text><line style="stroke:#9CAF88;stroke-width:0.5;" x1="755.9" x2="1115.398" y1="811.4506" y2="811.4506"/><line style="stroke:#9CAF88;stroke-width:1;" x1="755.9" x2="1115.398" y1="819.4506" y2="819.4506"/><g data-visibility-modifier="PUBLIC_METHOD"><ellipse cx="765.9" cy="837.1733" fill="#84BE84" rx="3" ry="3" style="stroke:#038048;stroke-width:1;"/></g><text fill="#2D3748" font-family="Arial" font-size="21" font-weight="700" lengthAdjust="spacing" textLength="327.3047" x="776.9" y="842.9433">complete(prompt : str) : str</text><g data-visibility-modifier="PRIVATE_METHOD"><rect fill="#F24D5C" height="6" style="stroke:#C82930;stroke-width:1;" width="6" x="762.9" y="858.6186"/></g><text fill="#2D3748" font-family="Arial" font-size="21" font-weight="700" lengthAdjust="spacing" textLength="333.498" x="776.9" y="867.3886">_retry_with_backoff() : None</text></g><!--class FormalChecker--><g class="entity" data-qualified-name="FormalChecker" data-source-line="134" id="ent0004"><rect class="hsp-shadow-clone" fill="#000000" opacity="0.20" height="148.2266" rx="4" ry="4" width="699.9897" x="587.65" y="906.84" pointer-events="none"/><rect fill="#F6FAF6" height="148.2266" rx="4" ry="4" style="stroke:#9CAF88;stroke-width:0.5;" width="699.9897" x="585.65" y="904.34"/><rect fill="#D4E4D4" height="58.8906" rx="4" ry="4" style="stroke:#D4E4D4;stroke-width:0.5;" width="699.9897" x="585.65" y="904.34"/><rect fill="#D4E4D4" height="4" style="stroke:#D4E4D4;stroke-width:0.5;" width="699.9897" x="585.65" y="959.2306"/><rect fill="none" height="148.2266" rx="4" ry="4" style="stroke:#9CAF88;stroke-width:0.5;" width="699.9897" x="585.65" y="904.34"/><ellipse cx="841.8961" cy="933.7853" fill="#ADD1B2" rx="13" ry="13" style="stroke:#181818;stroke-width:1;"/><path d="M844.4742,940.8478 Q843.7555,941.2072 842.9586,941.3947 Q842.1773,941.5822 841.318,941.5822 Q838.2086,941.5822 836.5836,939.5509 Q834.9586,937.5041 834.9586,933.6447 Q834.9586,929.7853 836.5836,927.7384 Q838.2086,925.6916 841.318,925.6916 Q842.1773,925.6916 842.9742,925.8791 Q843.7867,926.0666 844.4742,926.4416 L844.4742,929.8009 Q843.7086,929.0822 842.9742,928.7541 Q842.2398,928.4103 841.4586,928.4103 Q839.8023,928.4103 838.943,929.7384 Q838.0992,931.0509 838.0992,933.6447 Q838.0992,936.2228 838.943,937.5509 Q839.8023,938.8634 841.4586,938.8634 Q842.2398,938.8634 842.9742,938.5353 Q843.7086,938.1916 844.4742,937.4884 L844.4742,940.8478 Z " fill="#1A202C"/><text fill="#1A202C" font-family="Arial" font-size="21" font-weight="700" lengthAdjust="spacing" textLength="83.5591" x="912.6153" y="928.8327">&#171;Infra&#187;</text><text fill="#2D3748" font-family="Arial" font-size="21" font-weight="700" lengthAdjust="spacing" textLength="177.9976" x="865.3961" y="953.278">FormalChecker</text><line style="stroke:#9CAF88;stroke-width:0.5;" x1="586.65" x2="1284.6397" y1="963.2306" y2="963.2306"/><line style="stroke:#9CAF88;stroke-width:1;" x1="586.65" x2="1284.6397" y1="971.2306" y2="971.2306"/><g data-visibility-modifier="PUBLIC_METHOD"><ellipse cx="596.65" cy="988.9533" fill="#84BE84" rx="3" ry="3" style="stroke:#038048;stroke-width:1;"/></g><text fill="#2D3748" font-family="Arial" font-size="21" font-weight="700" lengthAdjust="spacing" textLength="645.3706" x="607.65" y="994.7233">check(code : str, task : BenchmarkTask) : CheckResult</text><g data-visibility-modifier="PUBLIC_METHOD"><ellipse cx="596.65" cy="1013.3986" fill="#84BE84" rx="3" ry="3" style="stroke:#038048;stroke-width:1;"/></g><text fill="#2D3748" font-family="Arial" font-size="21" font-weight="700" lengthAdjust="spacing" textLength="524.4155" x="607.65" y="1019.1686">generate_cases(task : BenchmarkTask) : list</text><g data-visibility-modifier="PUBLIC_METHOD"><ellipse cx="596.65" cy="1037.8439" fill="#84BE84" rx="3" ry="3" style="stroke:#038048;stroke-width:1;"/></g><text fill="#2D3748" font-family="Arial" font-size="21" font-weight="700" lengthAdjust="spacing" textLength="671.9897" x="607.65" y="1043.6139">evaluate_candidate(code : str, cases : list) : CheckResult</text></g><!--class PatternMatcher--><g class="entity" data-qualified-name="PatternMatcher" data-source-line="141" id="ent0005"><rect class="hsp-shadow-clone" fill="#000000" opacity="0.20" height="148.2266" rx="4" ry="4" width="569.6216" x="652.84" y="1082.84" pointer-events="none"/><rect fill="#F6FAF6" height="148.2266" rx="4" ry="4" style="stroke:#9CAF88;stroke-width:0.5;" width="569.6216" x="650.84" y="1080.34"/><rect fill="#D4E4D4" height="58.8906" rx="4" ry="4" style="stroke:#D4E4D4;stroke-width:0.5;" width="569.6216" x="650.84" y="1080.34"/><rect fill="#D4E4D4" height="4" style="stroke:#D4E4D4;stroke-width:0.5;" width="569.6216" x="650.84" y="1135.2306"/><rect fill="none" height="148.2266" rx="4" ry="4" style="stroke:#9CAF88;stroke-width:0.5;" width="569.6216" x="650.84" y="1080.34"/><ellipse cx="837.7543" cy="1109.7853" fill="#ADD1B2" rx="13" ry="13" style="stroke:#181818;stroke-width:1;"/><path d="M840.3324,1116.8478 Q839.6137,1117.2072 838.8168,1117.3947 Q838.0356,1117.5822 837.1762,1117.5822 Q834.0668,1117.5822 832.4418,1115.5509 Q830.8168,1113.5041 830.8168,1109.6447 Q830.8168,1105.7853 832.4418,1103.7384 Q834.0668,1101.6916 837.1762,1101.6916 Q838.0356,1101.6916 838.8324,1101.8791 Q839.6449,1102.0666 840.3324,1102.4416 L840.3324,1105.8009 Q839.5668,1105.0822 838.8324,1104.7541 Q838.0981,1104.4103 837.3168,1104.4103 Q835.6606,1104.4103 834.8012,1105.7384 Q833.9574,1107.0509 833.9574,1109.6447 Q833.9574,1112.2228 834.8012,1113.5509 Q835.6606,1114.8634 837.3168,1114.8634 Q838.0981,1114.8634 838.8324,1114.5353 Q839.5668,1114.1916 840.3324,1113.4884 L840.3324,1116.8478 Z " fill="#1A202C"/><text fill="#1A202C" font-family="Arial" font-size="21" font-weight="700" lengthAdjust="spacing" textLength="83.5591" x="912.6213" y="1104.8327">&#171;Infra&#187;</text><text fill="#2D3748" font-family="Arial" font-size="21" font-weight="700" lengthAdjust="spacing" textLength="186.293" x="861.2543" y="1129.278">PatternMatcher</text><line style="stroke:#9CAF88;stroke-width:0.5;" x1="651.84" x2="1219.4616" y1="1139.2306" y2="1139.2306"/><line style="stroke:#9CAF88;stroke-width:1;" x1="651.84" x2="1219.4616" y1="1147.2306" y2="1147.2306"/><g data-visibility-modifier="PUBLIC_METHOD"><ellipse cx="661.84" cy="1164.9533" fill="#84BE84" rx="3" ry="3" style="stroke:#038048;stroke-width:1;"/></g><text fill="#2D3748" font-family="Arial" font-size="21" font-weight="700" lengthAdjust="spacing" textLength="541.6216" x="672.84" y="1170.7233">match(code : str, task : BenchmarkTask) : list</text><g data-visibility-modifier="PRIVATE_METHOD"><rect fill="#F24D5C" height="6" style="stroke:#C82930;stroke-width:1;" width="6" x="658.84" y="1186.3986"/></g><text fill="#2D3748" font-family="Arial" font-size="21" font-weight="700" lengthAdjust="spacing" textLength="204.9141" x="672.84" y="1195.1686">_ast_check() : list</text><g data-visibility-modifier="PRIVATE_METHOD"><rect fill="#F24D5C" height="6" style="stroke:#C82930;stroke-width:1;" width="6" x="658.84" y="1210.8439"/></g><text fill="#2D3748" font-family="Arial" font-size="21" font-weight="700" lengthAdjust="spacing" textLength="235.6245" x="672.84" y="1219.6139">_regex_check() : list</text></g><!--class BenchmarkTask--><g class="entity" data-qualified-name="BenchmarkTask" data-source-line="148" id="ent0006"><rect class="hsp-shadow-clone" fill="#000000" opacity="0.20" height="221.5625" rx="4" ry="4" width="259.9434" x="807.68" y="1259.17" pointer-events="none"/><rect fill="#F6FAF6" height="221.5625" rx="4" ry="4" style="stroke:#9CAF88;stroke-width:0.5;" width="259.9434" x="805.68" y="1256.67"/><rect fill="#D4E4D4" height="58.8906" rx="4" ry="4" style="stroke:#D4E4D4;stroke-width:0.5;" width="259.9434" x="805.68" y="1256.67"/><rect fill="#D4E4D4" height="4" style="stroke:#D4E4D4;stroke-width:0.5;" width="259.9434" x="805.68" y="1311.5606"/><rect fill="none" height="221.5625" rx="4" ry="4" style="stroke:#9CAF88;stroke-width:0.5;" width="259.9434" x="805.68" y="1256.67"/><ellipse cx="838.8844" cy="1286.1153" fill="#ADD1B2" rx="13" ry="13" style="stroke:#181818;stroke-width:1;"/><path d="M841.4625,1293.1778 Q840.7438,1293.5372 839.9469,1293.7247 Q839.1656,1293.9122 838.3063,1293.9122 Q835.1969,1293.9122 833.5719,1291.8809 Q831.9469,1289.8341 831.9469,1285.9747 Q831.9469,1282.1153 833.5719,1280.0684 Q835.1969,1278.0216 838.3063,1278.0216 Q839.1656,1278.0216 839.9625,1278.2091 Q840.775,1278.3966 841.4625,1278.7716 L841.4625,1282.1309 Q840.6969,1281.4122 839.9625,1281.0841 Q839.2281,1280.7403 838.4469,1280.7403 Q836.7906,1280.7403 835.9313,1282.0684 Q835.0875,1283.3809 835.0875,1285.9747 Q835.0875,1288.5528 835.9313,1289.8809 Q836.7906,1291.1934 838.4469,1291.1934 Q839.2281,1291.1934 839.9625,1290.8653 Q840.6969,1290.5216 841.4625,1289.8184 L841.4625,1293.1778 Z " fill="#1A202C"/><text fill="#1A202C" font-family="Arial" font-size="21" font-weight="700" lengthAdjust="spacing" textLength="83.9795" x="910.4624" y="1281.1627">&#171;Spec&#187;</text><text fill="#2D3748" font-family="Arial" font-size="21" font-weight="700" lengthAdjust="spacing" textLength="187.9336" x="858.4854" y="1305.608">BenchmarkTask</text><line style="stroke:#9CAF88;stroke-width:0.5;" x1="806.68" x2="1064.6234" y1="1315.5606" y2="1315.5606"/><g data-visibility-modifier="PUBLIC_FIELD"><ellipse cx="816.68" cy="1333.2833" fill="none" rx="3" ry="3" style="stroke:#038048;stroke-width:1;"/></g><text fill="#2D3748" font-family="Arial" font-size="21" font-weight="700" lengthAdjust="spacing" textLength="139.3198" x="827.68" y="1339.0533">task_id : str</text><g data-visibility-modifier="PUBLIC_FIELD"><ellipse cx="816.68" cy="1357.7286" fill="none" rx="3" ry="3" style="stroke:#038048;stroke-width:1;"/></g><text fill="#2D3748" font-family="Arial" font-size="21" font-weight="700" lengthAdjust="spacing" textLength="168.5024" x="827.68" y="1363.4986">spec_text : str</text><g data-visibility-modifier="PUBLIC_FIELD"><ellipse cx="816.68" cy="1382.1739" fill="none" rx="3" ry="3" style="stroke:#038048;stroke-width:1;"/></g><text fill="#2D3748" font-family="Arial" font-size="21" font-weight="700" lengthAdjust="spacing" textLength="172.7476" x="827.68" y="1387.9439">scenarios : list</text><g data-visibility-modifier="PUBLIC_FIELD"><ellipse cx="816.68" cy="1406.6192" fill="none" rx="3" ry="3" style="stroke:#038048;stroke-width:1;"/></g><text fill="#2D3748" font-family="Arial" font-size="21" font-weight="700" lengthAdjust="spacing" textLength="134.6235" x="827.68" y="1412.3892">inputs : list</text><g data-visibility-modifier="PUBLIC_FIELD"><ellipse cx="816.68" cy="1431.0645" fill="none" rx="3" ry="3" style="stroke:#038048;stroke-width:1;"/></g><text fill="#2D3748" font-family="Arial" font-size="21" font-weight="700" lengthAdjust="spacing" textLength="151.8911" x="827.68" y="1436.8346">outputs : list</text><g data-visibility-modifier="PUBLIC_FIELD"><ellipse cx="816.68" cy="1455.5098" fill="none" rx="3" ry="3" style="stroke:#038048;stroke-width:1;"/></g><text fill="#2D3748" font-family="Arial" font-size="21" font-weight="700" lengthAdjust="spacing" textLength="231.9434" x="827.68" y="1461.2799">reference_impl : str</text><line style="stroke:#9CAF88;stroke-width:0.5;" x1="806.68" x2="1064.6234" y1="1470.2325" y2="1470.2325"/></g><!--class CheckResult--><g class="entity" data-qualified-name="CheckResult" data-source-line="157" id="ent0007"><rect class="hsp-shadow-clone" fill="#000000" opacity="0.20" height="148.2266" rx="4" ry="4" width="346.3325" x="1323.64" y="900.84" pointer-events="none"/><rect fill="#F6FAF6" height="148.2266" rx="4" ry="4" style="stroke:#9CAF88;stroke-width:0.5;" width="346.3325" x="1321.64" y="898.34"/><rect fill="#D4E4D4" height="58.8906" rx="4" ry="4" style="stroke:#D4E4D4;stroke-width:0.5;" width="346.3325" x="1321.64" y="898.34"/><rect fill="#D4E4D4" height="4" style="stroke:#D4E4D4;stroke-width:0.5;" width="346.3325" x="1321.64" y="953.2306"/><rect fill="none" height="148.2266" rx="4" ry="4" style="stroke:#9CAF88;stroke-width:0.5;" width="346.3325" x="1321.64" y="898.34"/><ellipse cx="1416.9972" cy="927.7853" fill="#ADD1B2" rx="13" ry="13" style="stroke:#181818;stroke-width:1;"/><path d="M1419.5753,934.8478 Q1418.8566,935.2072 1418.0597,935.3947 Q1417.2784,935.5822 1416.4191,935.5822 Q1413.3097,935.5822 1411.6847,933.5509 Q1410.0597,931.5041 1410.0597,927.6447 Q1410.0597,923.7853 1411.6847,921.7384 Q1413.3097,919.6916 1416.4191,919.6916 Q1417.2784,919.6916 1418.0753,919.8791 Q1418.8878,920.0666 1419.5753,920.4416 L1419.5753,923.8009 Q1418.8097,923.0822 1418.0753,922.7541 Q1417.3409,922.4103 1416.5597,922.4103 Q1414.9034,922.4103 1414.0441,923.7384 Q1413.2003,925.0509 1413.2003,927.6447 Q1413.2003,930.2228 1414.0441,931.5509 Q1414.9034,932.8634 1416.5597,932.8634 Q1417.3409,932.8634 1418.0753,932.5353 Q1418.8097,932.1916 1419.5753,931.4884 L1419.5753,934.8478 Z " fill="#1A202C"/><text fill="#1A202C" font-family="Arial" font-size="21" font-weight="700" lengthAdjust="spacing" textLength="102.2314" x="1462.4405" y="922.8327">&#171;Result&#187;</text><text fill="#2D3748" font-family="Arial" font-size="21" font-weight="700" lengthAdjust="spacing" textLength="146.1182" x="1440.4972" y="947.278">CheckResult</text><line style="stroke:#9CAF88;stroke-width:0.5;" x1="1322.64" x2="1666.9725" y1="957.2306" y2="957.2306"/><g data-visibility-modifier="PUBLIC_FIELD"><ellipse cx="1332.64" cy="974.9533" fill="none" rx="3" ry="3" style="stroke:#038048;stroke-width:1;"/></g><text fill="#2D3748" font-family="Arial" font-size="21" font-weight="700" lengthAdjust="spacing" textLength="231.4307" x="1343.64" y="980.7233">conformance : float</text><g data-visibility-modifier="PUBLIC_FIELD"><ellipse cx="1332.64" cy="999.3986" fill="none" rx="3" ry="3" style="stroke:#038048;stroke-width:1;"/></g><text fill="#2D3748" font-family="Arial" font-size="21" font-weight="700" lengthAdjust="spacing" textLength="264.1816" x="1343.64" y="1005.1686">counterexamples : list</text><g data-visibility-modifier="PUBLIC_FIELD"><ellipse cx="1332.64" cy="1023.8439" fill="none" rx="3" ry="3" style="stroke:#038048;stroke-width:1;"/></g><text fill="#2D3748" font-family="Arial" font-size="21" font-weight="700" lengthAdjust="spacing" textLength="318.3325" x="1343.64" y="1029.6139">strict_formal_passed : bool</text><line style="stroke:#9CAF88;stroke-width:0.5;" x1="1322.64" x2="1666.9725" y1="1038.5666" y2="1038.5666"/></g><!--class PipelineResult--><g class="entity" data-qualified-name="PipelineResult" data-source-line="163" id="ent0008"><rect class="hsp-shadow-clone" fill="#000000" opacity="0.20" height="221.5625" rx="4" ry="4" width="347.1016" x="764.1" y="419.17" pointer-events="none"/><rect fill="#F6FAF6" height="221.5625" rx="4" ry="4" style="stroke:#9CAF88;stroke-width:0.5;" width="347.1016" x="762.1" y="416.67"/><rect fill="#D4E4D4" height="58.8906" rx="4" ry="4" style="stroke:#D4E4D4;stroke-width:0.5;" width="347.1016" x="762.1" y="416.67"/><rect fill="#D4E4D4" height="4" style="stroke:#D4E4D4;stroke-width:0.5;" width="347.1016" x="762.1" y="471.5606"/><rect fill="none" height="221.5625" rx="4" ry="4" style="stroke:#9CAF88;stroke-width:0.5;" width="347.1016" x="762.1" y="416.67"/><ellipse cx="845.6242" cy="446.1153" fill="#ADD1B2" rx="13" ry="13" style="stroke:#181818;stroke-width:1;"/><path d="M848.2023,453.1778 Q847.4835,453.5372 846.6867,453.7247 Q845.9054,453.9122 845.046,453.9122 Q841.9367,453.9122 840.3117,451.8809 Q838.6867,449.8341 838.6867,445.9747 Q838.6867,442.1153 840.3117,440.0684 Q841.9367,438.0216 845.046,438.0216 Q845.9054,438.0216 846.7023,438.2091 Q847.5148,438.3966 848.2023,438.7716 L848.2023,442.1309 Q847.4367,441.4122 846.7023,441.0841 Q845.9679,440.7403 845.1867,440.7403 Q843.5304,440.7403 842.671,442.0684 Q841.8273,443.3809 841.8273,445.9747 Q841.8273,448.5528 842.671,449.8809 Q843.5304,451.1934 845.1867,451.1934 Q845.9679,451.1934 846.7023,450.8653 Q847.4367,450.5216 848.2023,449.8184 L848.2023,453.1778 Z " fill="#1A202C"/><text fill="#1A202C" font-family="Arial" font-size="21" font-weight="700" lengthAdjust="spacing" textLength="102.2314" x="903.2851" y="441.1627">&#171;Result&#187;</text><text fill="#2D3748" font-family="Arial" font-size="21" font-weight="700" lengthAdjust="spacing" textLength="170.5532" x="869.1242" y="465.608">PipelineResult</text><line style="stroke:#9CAF88;stroke-width:0.5;" x1="763.1" x2="1108.2016" y1="475.5606" y2="475.5606"/><g data-visibility-modifier="PUBLIC_FIELD"><ellipse cx="773.1" cy="493.2833" fill="none" rx="3" ry="3" style="stroke:#038048;stroke-width:1;"/></g><text fill="#2D3748" font-family="Arial" font-size="21" font-weight="700" lengthAdjust="spacing" textLength="165.6929" x="784.1" y="499.0533">success : bool</text><g data-visibility-modifier="PUBLIC_FIELD"><ellipse cx="773.1" cy="517.7286" fill="none" rx="3" ry="3" style="stroke:#038048;stroke-width:1;"/></g><text fill="#2D3748" font-family="Arial" font-size="21" font-weight="700" lengthAdjust="spacing" textLength="319.1016" x="784.1" y="523.4986">formal_conformance : float</text><g data-visibility-modifier="PUBLIC_FIELD"><ellipse cx="773.1" cy="542.1739" fill="none" rx="3" ry="3" style="stroke:#038048;stroke-width:1;"/></g><text fill="#2D3748" font-family="Arial" font-size="21" font-weight="700" lengthAdjust="spacing" textLength="318.3325" x="784.1" y="547.9439">strict_formal_passed : bool</text><g data-visibility-modifier="PUBLIC_FIELD"><ellipse cx="773.1" cy="566.6192" fill="none" rx="3" ry="3" style="stroke:#038048;stroke-width:1;"/></g><text fill="#2D3748" font-family="Arial" font-size="21" font-weight="700" lengthAdjust="spacing" textLength="291.0161" x="784.1" y="572.3892">mutation_kill_rate : float</text><g data-visibility-modifier="PUBLIC_FIELD"><ellipse cx="773.1" cy="591.0645" fill="none" rx="3" ry="3" style="stroke:#038048;stroke-width:1;"/></g><text fill="#2D3748" font-family="Arial" font-size="21" font-weight="700" lengthAdjust="spacing" textLength="186.8262" x="784.1" y="596.8346">latency_ms : int</text><g data-visibility-modifier="PUBLIC_FIELD"><ellipse cx="773.1" cy="615.5098" fill="none" rx="3" ry="3" style="stroke:#038048;stroke-width:1;"/></g><text fill="#2D3748" font-family="Arial" font-size="21" font-weight="700" lengthAdjust="spacing" textLength="163.1499" x="784.1" y="621.2799">attempts : int</text><line style="stroke:#9CAF88;stroke-width:0.5;" x1="763.1" x2="1108.2016" y1="630.2325" y2="630.2325"/></g><!--class PatternHit--><g class="entity" data-qualified-name="PatternHit" data-source-line="172" id="ent0009"><rect class="hsp-shadow-clone" fill="#000000" opacity="0.20" height="172.6719" rx="4" ry="4" width="205.4746" x="1394.07" y="1076.61" pointer-events="none"/><rect fill="#F6FAF6" height="172.6719" rx="4" ry="4" style="stroke:#9CAF88;stroke-width:0.5;" width="205.4746" x="1392.07" y="1074.11"/><rect fill="#D4E4D4" height="58.8906" rx="4" ry="4" style="stroke:#D4E4D4;stroke-width:0.5;" width="205.4746" x="1392.07" y="1074.11"/><rect fill="#D4E4D4" height="4" style="stroke:#D4E4D4;stroke-width:0.5;" width="205.4746" x="1392.07" y="1129.0006"/><rect fill="none" height="172.6719" rx="4" ry="4" style="stroke:#9CAF88;stroke-width:0.5;" width="205.4746" x="1392.07" y="1074.11"/><ellipse cx="1429.5334" cy="1103.5553" fill="#ADD1B2" rx="13" ry="13" style="stroke:#181818;stroke-width:1;"/><path d="M1432.1115,1110.6178 Q1431.3927,1110.9772 1430.5959,1111.1647 Q1429.8146,1111.3522 1428.9552,1111.3522 Q1425.8459,1111.3522 1424.2209,1109.3209 Q1422.5959,1107.2741 1422.5959,1103.4147 Q1422.5959,1099.5553 1424.2209,1097.5084 Q1425.8459,1095.4616 1428.9552,1095.4616 Q1429.8146,1095.4616 1430.6115,1095.6491 Q1431.424,1095.8366 1432.1115,1096.2116 L1432.1115,1099.5709 Q1431.3459,1098.8522 1430.6115,1098.5241 Q1429.8771,1098.1803 1429.0959,1098.1803 Q1427.4396,1098.1803 1426.5802,1099.5084 Q1425.7365,1100.8209 1425.7365,1103.4147 Q1425.7365,1105.9928 1426.5802,1107.3209 Q1427.4396,1108.6334 1429.0959,1108.6334 Q1429.8771,1108.6334 1430.6115,1108.3053 Q1431.3459,1107.9616 1432.1115,1107.2584 L1432.1115,1110.6178 Z " fill="#1A202C"/><text fill="#1A202C" font-family="Arial" font-size="21" font-weight="700" lengthAdjust="spacing" textLength="61.2363" x="1481.4628" y="1098.6027">&#171;VO&#187;</text><text fill="#2D3748" font-family="Arial" font-size="21" font-weight="700" lengthAdjust="spacing" textLength="124.0005" x="1450.0808" y="1123.048">PatternHit</text><line style="stroke:#9CAF88;stroke-width:0.5;" x1="1393.07" x2="1596.5446" y1="1133.0006" y2="1133.0006"/><g data-visibility-modifier="PUBLIC_FIELD"><ellipse cx="1403.07" cy="1150.7233" fill="none" rx="3" ry="3" style="stroke:#038048;stroke-width:1;"/></g><text fill="#2D3748" font-family="Arial" font-size="21" font-weight="700" lengthAdjust="spacing" textLength="177.4746" x="1414.07" y="1156.4933">pattern_id : str</text><g data-visibility-modifier="PUBLIC_FIELD"><ellipse cx="1403.07" cy="1175.1686" fill="none" rx="3" ry="3" style="stroke:#038048;stroke-width:1;"/></g><text fill="#2D3748" font-family="Arial" font-size="21" font-weight="700" lengthAdjust="spacing" textLength="151.8706" x="1414.07" y="1180.9386">severity : str</text><g data-visibility-modifier="PUBLIC_FIELD"><ellipse cx="1403.07" cy="1199.6139" fill="none" rx="3" ry="3" style="stroke:#038048;stroke-width:1;"/></g><text fill="#2D3748" font-family="Arial" font-size="21" font-weight="700" lengthAdjust="spacing" textLength="150.7734" x="1414.07" y="1205.3839">location : str</text><g data-visibility-modifier="PUBLIC_FIELD"><ellipse cx="1403.07" cy="1224.0592" fill="none" rx="3" ry="3" style="stroke:#038048;stroke-width:1;"/></g><text fill="#2D3748" font-family="Arial" font-size="21" font-weight="700" lengthAdjust="spacing" textLength="160.4839" x="1414.07" y="1229.8292">message : str</text><line style="stroke:#9CAF88;stroke-width:0.5;" x1="1393.07" x2="1596.5446" y1="1238.7819" y2="1238.7819"/></g><g class="entity" data-qualified-name="GMN18" data-source-line="189" id="ent0019"><path d="M737.9,334 L737.9,384.8906 A4,4 0 0 0 741.9,388.8906 L1129.4034,388.8906 A4,4 0 0 0 1133.4034,384.8906 L1133.4034,340 L1123.4034,330 L939.98,330 L935.98,302.34 L931.98,330 L741.9,330 A4,4 0 0 0 737.9,334" fill="#FFFFF0" style="stroke:#D69E2E;stroke-width:0.5;"/><path d="M1123.4034,330 L1123.4034,338 A2,2 0 0 0 1125.4034,340 L1133.4034,340 L1123.4034,330" fill="#FFFFF0" style="stroke:#D69E2E;stroke-width:0.5;"/><text fill="#744210" font-family="Arial" font-size="21" font-weight="700" lengthAdjust="spacing" textLength="374.5034" x="743.9" y="354.4927">Immutable configuration object</text><text fill="#744210" font-family="Arial" font-size="21" font-weight="700" lengthAdjust="spacing" textLength="373.4473" x="743.9" y="378.938">passed at pipeline construction</text></g><g class="entity" data-qualified-name="GMN21" data-source-line="194" id="ent0022"><path d="M735.58,670 L735.58,720.8906 A4,4 0 0 0 739.58,724.8906 L1131.7182,724.8906 A4,4 0 0 0 1135.7182,720.8906 L1135.7182,676 L1125.7182,666 L939.98,666 L935.98,638.57 L931.98,666 L739.58,666 A4,4 0 0 0 735.58,670" fill="#FFFFF0" style="stroke:#D69E2E;stroke-width:0.5;"/><path d="M1125.7182,666 L1125.7182,674 A2,2 0 0 0 1127.7182,676 L1135.7182,676 L1125.7182,666" fill="#FFFFF0" style="stroke:#D69E2E;stroke-width:0.5;"/><text fill="#744210" font-family="Arial" font-size="21" font-weight="700" lengthAdjust="spacing" textLength="367.7563" x="741.58" y="690.4927">Aggregated evaluation metrics</text><text fill="#744210" font-family="Arial" font-size="21" font-weight="700" lengthAdjust="spacing" textLength="379.1382" x="741.58" y="714.938">and audit trace for one task run</text></g><!--reverse link PipelineRunner to PipelineConfig--><g class="link" data-entity-1="ent0001" data-entity-2="ent0002" data-link-type="composition" data-source-line="179" id="lnk10"><path codeLine="179" d="M187.98,736.52 C187.98,520.06 187.98,154.45 187.98,154.45 C187.98,154.45 568.99,154.45 787.04,154.45" fill="none" id="PipelineRunner-backto-PipelineConfig" style="stroke:#4A5568;stroke-width:1;"/><polygon fill="#4A5568" points="187.98,748.52,191.98,742.52,187.98,736.52,183.98,742.52,187.98,748.52" style="stroke:#4A5568;stroke-width:1;stroke-linejoin:miter;stroke-miterlimit:10;"/><text fill="#4A5568" font-family="Arial" font-size="21" font-weight="700" lengthAdjust="spacing" textLength="73.1924" x="116.47" y="174.9427">config</text></g><!--link PipelineRunner to LLMClient--><g class="link" data-entity-1="ent0001" data-entity-2="ent0003" data-link-type="dependency" data-source-line="180" id="lnk11"><path codeLine="180" d="M549.95,814.45 C618.87,814.45 686.24,814.45 749.43,814.45" fill="none" id="PipelineRunner-to-LLMClient" style="stroke:#4A5568;stroke-width:1;"/><polygon fill="#4A5568" points="754.43,814.45,745.43,810.45,749.43,814.45,745.43,818.45,754.43,814.45" style="stroke:#4A5568;stroke-width:1;stroke-linejoin:miter;stroke-miterlimit:10;"/><text fill="#4A5568" font-family="Arial" font-size="21" font-weight="700" lengthAdjust="spacing" textLength="54.1919" x="597.19" y="834.9427">uses</text></g><!--link PipelineRunner to FormalChecker--><g class="link" data-entity-1="ent0001" data-entity-2="ent0004" data-link-type="dependency" data-source-line="181" id="lnk12"><path codeLine="181" d="M549.95,974.12 C561.62,974.12 568.38,974.12 580.18,974.12" fill="none" id="PipelineRunner-to-FormalChecker" style="stroke:#4A5568;stroke-width:1;"/><polygon fill="#4A5568" points="585.18,974.12,576.18,970.12,580.18,974.12,576.18,978.12,585.18,974.12" style="stroke:#4A5568;stroke-width:1;stroke-linejoin:miter;stroke-miterlimit:10;"/><text fill="#4A5568" font-family="Arial" font-size="21" font-weight="700" lengthAdjust="spacing" textLength="54.1919" x="512.57" y="994.6127">uses</text></g><!--link PipelineRunner to PatternMatcher--><g class="link" data-entity-1="ent0001" data-entity-2="ent0005" data-link-type="dependency" data-source-line="182" id="lnk13"><path codeLine="182" d="M368.98,1044.29 C368.98,1101.93 368.98,1154.45 368.98,1154.45 C368.98,1154.45 504.54,1154.45 645.65,1154.45" fill="none" id="PipelineRunner-to-PatternMatcher" style="stroke:#4A5568;stroke-width:1;"/><polygon fill="#4A5568" points="650.65,1154.45,641.65,1150.45,645.65,1154.45,641.65,1158.45,650.65,1154.45" style="stroke:#4A5568;stroke-width:1;stroke-linejoin:miter;stroke-miterlimit:10;"/><text fill="#4A5568" font-family="Arial" font-size="21" font-weight="700" lengthAdjust="spacing" textLength="54.1919" x="399.73" y="1174.9427">uses</text></g><!--link PipelineRunner to BenchmarkTask--><g class="link" data-entity-1="ent0001" data-entity-2="ent0006" data-link-type="dependency" data-source-line="183" id="lnk14"><path codeLine="183" d="M187.98,1044.18 C187.98,1182.31 187.98,1367.45 187.98,1367.45 C187.98,1367.45 586.2,1367.45 800.41,1367.45" fill="none" id="PipelineRunner-to-BenchmarkTask" style="stroke:#4A5568;stroke-width:1;stroke-dasharray:7,7;"/><polygon fill="#4A5568" points="805.41,1367.45,796.41,1363.45,800.41,1367.45,796.41,1371.45,805.41,1367.45" style="stroke:#4A5568;stroke-width:1;stroke-linejoin:miter;stroke-miterlimit:10;"/><text fill="#4A5568" font-family="Arial" font-size="21" font-weight="700" lengthAdjust="spacing" textLength="118.248" x="216.06" y="1387.9427">processes</text></g><!--link PipelineRunner to PipelineResult--><g class="link" data-entity-1="ent0001" data-entity-2="ent0008" data-link-type="dependency" data-source-line="184" id="lnk15"><path codeLine="184" d="M368.98,748.75 C368.98,646.03 368.98,527.45 368.98,527.45 C368.98,527.45 590.2,527.45 756.78,527.45" fill="none" id="PipelineRunner-to-PipelineResult" style="stroke:#4A5568;stroke-width:1;stroke-dasharray:7,7;"/><polygon fill="#4A5568" points="761.78,527.45,752.78,523.45,756.78,527.45,752.78,531.45,761.78,527.45" style="stroke:#4A5568;stroke-width:1;stroke-linejoin:miter;stroke-miterlimit:10;"/><text fill="#4A5568" font-family="Arial" font-size="21" font-weight="700" lengthAdjust="spacing" textLength="87.394" x="366.72" y="547.9427">returns</text></g><!--link FormalChecker to CheckResult--><g class="link" data-entity-1="ent0004" data-entity-2="ent0007" data-link-type="dependency" data-source-line="185" id="lnk16"><path codeLine="185" d="M1285.8,975.45 C1297.91,975.45 1304.82,975.45 1316.45,975.45" fill="none" id="FormalChecker-to-CheckResult" style="stroke:#4A5568;stroke-width:1;stroke-dasharray:7,7;"/><polygon fill="#4A5568" points="1321.45,975.45,1312.45,971.45,1316.45,975.45,1312.45,979.45,1321.45,975.45" style="stroke:#4A5568;stroke-width:1;stroke-linejoin:miter;stroke-miterlimit:10;"/><text fill="#4A5568" font-family="Arial" font-size="21" font-weight="700" lengthAdjust="spacing" textLength="87.394" x="1215.63" y="995.9427">returns</text></g><!--link PatternMatcher to PatternHit--><g class="link" data-entity-1="ent0005" data-entity-2="ent0009" data-link-type="dependency" data-source-line="186" id="lnk17"><path codeLine="186" d="M1220.55,1154.45 C1281.87,1154.45 1337.84,1154.45 1386.67,1154.45" fill="none" id="PatternMatcher-to-PatternHit" style="stroke:#4A5568;stroke-width:1;stroke-dasharray:7,7;"/><polygon fill="#4A5568" points="1391.67,1154.45,1382.67,1150.45,1386.67,1154.45,1382.67,1158.45,1391.67,1154.45" style="stroke:#4A5568;stroke-width:1;stroke-linejoin:miter;stroke-miterlimit:10;"/><text fill="#4A5568" font-family="Arial" font-size="21" font-weight="700" lengthAdjust="spacing" textLength="87.394" x="1218.11" y="1174.9427">returns</text></g><?plantuml-src pLZDSjis4BxhAJ3JG-IwKcLPaHrFwXbPFqacTkA9qnnwuK3aIa840Ym0sb8xdUb3z0dx95sG50b2fDj33jN5vEvYzyFkXrtGByXFt_BNUK7UFjpt9cl6WTnpAipFTxVaxp__8fojDuOab8CnGBgVsVQN7aMXWEYaJyW7QjWZ4BsXaNnYOasO9XyN2_ItX92c6iXx9RVinpUAKlxbhl8TAgete8aKv2jzf7twPFeifclelmSbW9FkMNyu68xxkvC-UdluyeP4IYQzF98cL05XuYk41YAII6rw2aG42eKaVmgIDERzP6-NVzjaTVIMYOGg6ZiRNr6kmT4iQRXTAvcAQ2gvLEIxHVPpB39bA76tYbmwyWXMDELc8ONvG6CW4yKeRzO_iD-03CzQb6QFrLnA7ZNh2rnd4yppr37XJ83P9q2aCXlfA8ICG4D2XYvQHSNM2i_7RbucIicd8i1eylBb-D9NEWZQ3PmjO1Mdd6fD8aRNQAGpUcgvCaGZRKXNIBBaAPmuVi9imUyTGcwEgZ5UJ1PZgv4AoL98NqqdYyjBb1xd9vST4bwyLV08cHYZs38ruAmTpiulHfU-id9I5xlUtW95M4UmPwFvQ3OgzKqmAqqUfsxj1Fd3BLWeuqGA4AOvNVFPOhYuyDDL5EwPTBL4Iz2_BLfpQIwmD5C_rlHczd8-gCSgq_jSB2OCg1KDswBbnzABDXbCvjF1ltZMy6iAed1yorPmYoUdsSqzLOQ5BC7krvvRrwWnpOv1KyOzTKKpN-4IxKRkdgl0hha8Tw3jgQk7SOKjAQCXpWjczj-MPUs7yi7WreirvvUJi_4h5CxBWALencWiHTJ4ZibYu1Yum6QpySrmu772K0F_hztLy0bfdZi80n_URFngFfpNuLsCHiEpviF10VknaKHbruQ8AHpGJ8gE3l46GMAw8-U3mO0yiSXiEfsyFz-p1EpC-PGAEmfVlvvA1TVN6Kf2UjYQn8gjoLLfECq4XPRp65MtjtTJph1z7TPi8DoYiol4g6BAf_bxeLsdL4NM8SLBZH9trA1zeUnbVqw9IaNNKBr5iniyv9kOgkrdV3znW7m2ZREqS1helJ1ufS5oTQsHDeTmGOOcM6L8Cbq6fxvQGKAPQbwPv3XrfkLC6vlgUlBod63oldmiKtTAOfpOZiDJMu70EeiJer71YeIT4X1qoQ70Y9gbbBokEe1eLERewoeRdDUYsxYWg4cLHRNYaXx2vt432o-a6khOq04BJG2FQE5gooIKrSVzutF5dKCnxNJ36onq4uLF9WVbfLg1KVlWYPbDOEzkShNAqlq1fs8LgSOcZFPEh1HjY6SDkc6P_Hz86vLy9foIDGYR8yYtsih1Z0P53J0nQRv2H2p2frheGyhi2ZzanQFQKMZVMMmD_jFEIe2OMwfDJkMkhr6mXfslAr7Ld2AeXmH2XzusTC2Y6iSqcWG6TgOk3P6eYabTpnnsnTHuCfcQOw625IWxwmE6J2fSbp2TZ2B8_C61QHkOvOszAjHf7sB_nRJ3Zbf-UZ4BsXT78y5041rEsD7vRu-kqp34mLm_cuNJTcJF1I-OaEAemzuUR1ddWMMivuAZI8Jx8AwVPg_z-0nyoupVnOhESrHfU0HbxnAkaCimGrNlUld5f2gRDtA-x_NyHdfLZ1tVjDUxTjhD5S5FNDraKsyKxNRUkMisxFUllQDmHR2JsR8s6tkik4B-OjCLkbE7PKrTxbPs7gpCPrMVogwJtIUMqXWP4xaw7j7lOiiJ7155FbELbqSkxRSx6XJKeeOanLfhYNLAyvi3VijdbvRMK6NpdApNs4se_OT0qH5je1WiapNgiJaIcaQ8toZxEO3S9jZSymQ6uxuAzGy0?></g></svg>