<svg xmlns="http://www.w3.org/2000/svg" xmlns:xlink="http://www.w3.org/1999/xlink" contentStyleType="text/css" data-diagram-type="STATE" height="793px" preserveAspectRatio="none" style="width:1136px;height:793px;background:#FFFFFF;" version="1.1" viewBox="0 0 1136 793" width="1136px" zoomAndPan="magnify"><?plantuml 1.2026.6?><defs/><g><g class="entity" data-qualified-name="INIT" data-source-line="102" id="ent0001"><rect class="hsp-shadow-clone" fill="#000000" opacity="0.20" height="117.7813" rx="4" ry="4" width="202.7759" x="920.83" y="64.5" pointer-events="none"/><rect class="hsp-shadow-clone" fill="#000000" opacity="0.2" height="117.7813" rx="4" ry="4" width="202.7759" x="920.83" y="64.5" pointer-events="none"/><rect fill="#EDF2F7" height="117.7813" rx="4" ry="4" style="stroke:#4A5568;stroke-width:0.5;" width="202.7759" x="918.83" y="62"/><line style="stroke:#4A5568;stroke-width:0.5;" x1="918.83" x2="1121.6059" y1="96.4453" y2="96.4453"/><text fill="#1A202C" font-family="Arial" font-size="21" font-weight="700" lengthAdjust="spacing" textLength="47.5269" x="996.4545" y="86.4927">INIT</text><text fill="#1A202C" font-family="Arial" font-size="21" font-weight="700" lengthAdjust="spacing" textLength="137.5151" x="923.83" y="120.938">Load config</text><text fill="#1A202C" font-family="Arial" font-size="21" font-weight="700" lengthAdjust="spacing" textLength="182.7759" x="923.83" y="145.3833">Reset feedback</text><text fill="#1A202C" font-family="Arial" font-size="21" font-weight="700" lengthAdjust="spacing" textLength="142.2729" x="923.83" y="169.8286">attempt = 0</text></g><g class="entity" data-qualified-name="SYNTHESIZING" data-source-line="104" id="ent0002"><rect class="hsp-shadow-clone" fill="#000000" opacity="0.20" height="93.3359" rx="4" ry="4" width="214.7114" x="436.86" y="218.28" pointer-events="none"/><rect class="hsp-shadow-clone" fill="#000000" opacity="0.2" height="93.3359" rx="4" ry="4" width="214.7114" x="436.86" y="218.28" pointer-events="none"/><rect fill="#EDF2F7" height="93.3359" rx="4" ry="4" style="stroke:#4A5568;stroke-width:0.5;" width="214.7114" x="434.86" y="215.78"/><line style="stroke:#4A5568;stroke-width:0.5;" x1="434.86" x2="649.5714" y1="250.2253" y2="250.2253"/><text fill="#1A202C" font-family="Arial" font-size="21" font-weight="700" lengthAdjust="spacing" textLength="174.9419" x="454.7448" y="240.2727">SYNTHESIZING</text><text fill="#1A202C" font-family="Arial" font-size="21" font-weight="700" lengthAdjust="spacing" textLength="157.8486" x="439.86" y="274.718">Call LLM with</text><text fill="#1A202C" font-family="Arial" font-size="21" font-weight="700" lengthAdjust="spacing" textLength="194.7114" x="439.86" y="299.1633">spec + feedback</text></g><g class="entity" data-qualified-name="FORMAL_CHECKING" data-source-line="106" id="ent0003"><rect class="hsp-shadow-clone" fill="#000000" opacity="0.20" height="117.7813" rx="4" ry="4" width="286.7349" x="378.85" y="347.62" pointer-events="none"/><rect class="hsp-shadow-clone" fill="#000000" opacity="0.2" height="117.7813" rx="4" ry="4" width="286.7349" x="378.85" y="347.62" pointer-events="none"/><rect fill="#EDF2F7" height="117.7813" rx="4" ry="4" style="stroke:#4A5568;stroke-width:0.5;" width="286.7349" x="376.85" y="345.12"/><line style="stroke:#4A5568;stroke-width:0.5;" x1="376.85" x2="663.5849" y1="379.5653" y2="379.5653"/><text fill="#1A202C" font-family="Arial" font-size="21" font-weight="700" lengthAdjust="spacing" textLength="231.041" x="404.6969" y="369.6127">FORMAL_CHECKING</text><text fill="#1A202C" font-family="Arial" font-size="21" font-weight="700" lengthAdjust="spacing" textLength="219.8027" x="381.85" y="404.058">Generate Z3 cases</text><text fill="#1A202C" font-family="Arial" font-size="21" font-weight="700" lengthAdjust="spacing" textLength="170.666" x="381.85" y="428.5033">Run candidate</text><text fill="#1A202C" font-family="Arial" font-size="21" font-weight="700" lengthAdjust="spacing" textLength="266.7349" x="381.85" y="452.9486">Compute conformance</text></g><g class="entity" data-qualified-name="REPAIRING" data-source-line="108" id="ent0004"><rect class="hsp-shadow-clone" fill="#000000" opacity="0.20" height="93.3359" rx="4" ry="4" width="298.2295" x="187.1" y="76.72" pointer-events="none"/><rect class="hsp-shadow-clone" fill="#000000" opacity="0.2" height="93.3359" rx="4" ry="4" width="298.2295" x="187.1" y="76.72" pointer-events="none"/><rect fill="#EDF2F7" height="93.3359" rx="4" ry="4" style="stroke:#4A5568;stroke-width:0.5;" width="298.2295" x="185.1" y="74.22"/><line style="stroke:#4A5568;stroke-width:0.5;" x1="185.1" x2="483.3295" y1="108.6653" y2="108.6653"/><text fill="#1A202C" font-family="Arial" font-size="21" font-weight="700" lengthAdjust="spacing" textLength="128.7686" x="269.8305" y="98.7127">REPAIRING</text><text fill="#1A202C" font-family="Arial" font-size="21" font-weight="700" lengthAdjust="spacing" textLength="278.2295" x="190.1" y="133.158">Inject counterexamples</text><text fill="#1A202C" font-family="Arial" font-size="21" font-weight="700" lengthAdjust="spacing" textLength="242.3613" x="190.1" y="157.6033">into feedback buffer</text></g><g class="entity" data-qualified-name="PATTERN_CHECKING" data-source-line="110" id="ent0005"><rect class="hsp-shadow-clone" fill="#000000" opacity="0.20" height="93.3359" rx="4" ry="4" width="286.9194" x="193.75" y="501.4" pointer-events="none"/><rect class="hsp-shadow-clone" fill="#000000" opacity="0.2" height="93.3359" rx="4" ry="4" width="286.9194" x="193.75" y="501.4" pointer-events="none"/><rect fill="#EDF2F7" height="93.3359" rx="4" ry="4" style="stroke:#4A5568;stroke-width:0.5;" width="286.9194" x="191.75" y="498.9"/><line style="stroke:#4A5568;stroke-width:0.5;" x1="191.75" x2="478.6694" y1="533.3453" y2="533.3453"/><text fill="#1A202C" font-family="Arial" font-size="21" font-weight="700" lengthAdjust="spacing" textLength="240.5259" x="214.9468" y="523.3927">PATTERN_CHECKING</text><text fill="#1A202C" font-family="Arial" font-size="21" font-weight="700" lengthAdjust="spacing" textLength="266.9194" x="196.75" y="557.838">Evaluate high-severity</text><text fill="#1A202C" font-family="Arial" font-size="21" font-weight="700" lengthAdjust="spacing" textLength="164.1343" x="196.75" y="582.2833">fault patterns</text></g><g class="entity" data-qualified-name="ACCEPTED" data-source-line="112" id="ent0006"><rect class="hsp-shadow-clone" fill="#000000" opacity="0.20" height="93.3359" rx="4" ry="4" width="247.042" x="203.69" y="630.73" pointer-events="none"/><rect class="hsp-shadow-clone" fill="#000000" opacity="0.2" height="93.3359" rx="4" ry="4" width="247.042" x="203.69" y="630.73" pointer-events="none"/><rect fill="#EDF2F7" height="93.3359" rx="4" ry="4" style="stroke:#4A5568;stroke-width:0.5;" width="247.042" x="201.69" y="628.23"/><line style="stroke:#4A5568;stroke-width:0.5;" x1="201.69" x2="448.732" y1="662.6753" y2="662.6753"/><text fill="#1A202C" font-family="Arial" font-size="21" font-weight="700" lengthAdjust="spacing" textLength="122.9136" x="263.7542" y="652.7227">ACCEPTED</text><text fill="#1A202C" font-family="Arial" font-size="21" font-weight="700" lengthAdjust="spacing" textLength="227.042" x="206.69" y="687.168">Candidate satisfies</text><text fill="#1A202C" font-family="Arial" font-size="21" font-weight="700" lengthAdjust="spacing" textLength="176.9517" x="206.69" y="711.6133">Accept(c,t) = 1</text></g><g class="entity" data-qualified-name="EXHAUSTED" data-source-line="114" id="ent0007"><rect class="hsp-shadow-clone" fill="#000000" opacity="0.20" height="93.3359" rx="4" ry="4" width="284.4277" x="9.0" y="359.84" pointer-events="none"/><rect class="hsp-shadow-clone" fill="#000000" opacity="0.2" height="93.3359" rx="4" ry="4" width="284.4277" x="9.0" y="359.84" pointer-events="none"/><rect fill="#EDF2F7" height="93.3359" rx="4" ry="4" style="stroke:#4A5568;stroke-width:0.5;" width="284.4277" x="7" y="357.34"/><line style="stroke:#4A5568;stroke-width:0.5;" x1="7" x2="291.4277" y1="391.7853" y2="391.7853"/><text fill="#1A202C" font-family="Arial" font-size="21" font-weight="700" lengthAdjust="spacing" textLength="142.6421" x="77.8928" y="381.8327">EXHAUSTED</text><text fill="#1A202C" font-family="Arial" font-size="21" font-weight="700" lengthAdjust="spacing" textLength="239.8696" x="12" y="416.278">Budget K exhausted</text><text fill="#1A202C" font-family="Arial" font-size="21" font-weight="700" lengthAdjust="spacing" textLength="264.4277" x="12" y="440.7233">Return best candidate</text></g><g class="start_entity" data-qualified-name=".start." data-source-line="116" id="ent0008"><ellipse cx="1020.21" cy="16" fill="#38A169" rx="10" ry="10" style="stroke:#222222;stroke-width:1;"/></g><g class="end_entity" data-qualified-name=".end." data-source-line="130" id="ent0018"><ellipse cx="232.21" cy="768.57" fill="none" rx="11" ry="11" style="stroke:#38A169;stroke-width:1;"/><ellipse cx="232.21" cy="768.57" fill="#222222" rx="6" ry="6" style="stroke:#38A169;stroke-width:1;"/></g><g class="entity" data-qualified-name="GMN21" data-source-line="134" id="ent0022"><path d="M511.51,83.22 L511.51,116.57 L483.75,120.57 L511.51,124.57 L511.51,158.5559 A4,4 0 0 0 515.51,162.5559 L886.9148,162.5559 A4,4 0 0 0 890.9148,158.5559 L890.9148,89.22 L880.9148,79.22 L515.51,79.22 A4,4 0 0 0 511.51,83.22" fill="#000000" opacity="0.2" class="hsp-shadow-clone" transform="translate(2.0,2.5)" style="stroke:#D69E2E;stroke-width:0.5;"/><path d="M511.51,83.22 L511.51,116.57 L483.75,120.57 L511.51,124.57 L511.51,158.5559 A4,4 0 0 0 515.51,162.5559 L886.9148,162.5559 A4,4 0 0 0 890.9148,158.5559 L890.9148,89.22 L880.9148,79.22 L515.51,79.22 A4,4 0 0 0 511.51,83.22" fill="#FFFFF0" style="stroke:#D69E2E;stroke-width:0.5;"/><path d="M880.9148,79.22 L880.9148,87.22 A2,2 0 0 0 882.9148,89.22 L890.9148,89.22 L880.9148,79.22" fill="#000000" opacity="0.2" class="hsp-shadow-clone" transform="translate(2.0,2.5)" style="stroke:#D69E2E;stroke-width:0.5;"/><path d="M880.9148,79.22 L880.9148,87.22 A2,2 0 0 0 882.9148,89.22 L890.9148,89.22 L880.9148,79.22" fill="#FFFFF0" style="stroke:#D69E2E;stroke-width:0.5;"/><text fill="#744210" font-family="Arial" font-size="21" font-weight="700" lengthAdjust="spacing" textLength="348.9507" x="517.51" y="103.7127">Structured feedback includes</text><text fill="#744210" font-family="Arial" font-size="21" font-weight="700" lengthAdjust="spacing" textLength="356.1489" x="517.51" y="128.158">scenario index, witness input,</text><text fill="#744210" font-family="Arial" font-size="21" font-weight="700" lengthAdjust="spacing" textLength="358.4048" x="517.51" y="152.6033">expected vs observed outputs</text></g><!--link *start* to INIT--><g class="link" data-entity-1="ent0008" data-entity-2="ent0001" data-link-type="dependency" data-source-line="116" id="lnk9"><path d="M1020.21,26.44 C1020.21,35.04 1020.21,42.99 1020.21,56.57" fill="none" id="*start*-to-INIT" style="stroke:#4A5568;stroke-width:1;"/><polygon fill="#4A5568" points="1020.21,61.57,1024.21,52.57,1020.21,56.57,1016.21,52.57,1020.21,61.57" style="stroke:#4A5568;stroke-width:1;stroke-linejoin:miter;stroke-miterlimit:10;"/></g><!--link INIT to SYNTHESIZING--><g class="link" data-entity-1="ent0001" data-entity-2="ent0002" data-link-type="dependency" data-source-line="117" id="lnk10"><path d="M918.52,173.57 C788.65,173.57 580.54,173.57 580.54,173.57 C580.54,173.57 580.54,189.09 580.54,210.41" fill="none" id="INIT-to-SYNTHESIZING" style="stroke:#4A5568;stroke-width:1;"/><polygon fill="#4A5568" points="580.54,215.41,584.54,206.41,580.54,210.41,576.54,206.41,580.54,215.41" style="stroke:#4A5568;stroke-width:1;stroke-linejoin:miter;stroke-miterlimit:10;"/><text fill="#4A5568" font-family="Arial" font-size="21" font-weight="700" lengthAdjust="spacing" textLength="104.6719" x="623.61" y="194.0627">start run</text></g><!--link SYNTHESIZING to FORMAL_CHECKING--><g class="link" data-entity-1="ent0002" data-entity-2="ent0003" data-link-type="dependency" data-source-line="119" id="lnk11"><path d="M542.21,309.59 C542.21,320.85 542.21,328.01 542.21,339.74" fill="none" id="SYNTHESIZING-to-FORMAL_CHECKING" style="stroke:#4A5568;stroke-width:1;"/><polygon fill="#4A5568" points="542.21,344.74,546.21,335.74,542.21,339.74,538.21,335.74,542.21,344.74" style="stroke:#4A5568;stroke-width:1;stroke-linejoin:miter;stroke-miterlimit:10;"/><text fill="#4A5568" font-family="Arial" font-size="21" font-weight="700" lengthAdjust="spacing" textLength="226.0474" x="315.21" y="321.6527">candidate received</text></g><!--link FORMAL_CHECKING to PATTERN_CHECKING--><g class="link" data-entity-1="ent0003" data-entity-2="ent0005" data-link-type="dependency" data-source-line="121" id="lnk12"><path d="M427.76,463.22 C427.76,475.04 427.76,482.3 427.76,493.64" fill="none" id="FORMAL_CHECKING-to-PATTERN_CHECKING" style="stroke:#4A5568;stroke-width:1;"/><polygon fill="#4A5568" points="427.76,498.64,431.76,489.64,427.76,493.64,423.76,489.64,427.76,498.64" style="stroke:#4A5568;stroke-width:1;stroke-linejoin:miter;stroke-miterlimit:10;"/><text fill="#4A5568" font-family="Arial" font-size="21" font-weight="700" lengthAdjust="spacing" textLength="192.5581" x="428.76" y="501.4227">Conf(c,t) &gt;= tau</text></g><!--link FORMAL_CHECKING to REPAIRING--><g class="link" data-entity-1="ent0003" data-entity-2="ent0004" data-link-type="dependency" data-source-line="122" id="lnk13"><path d="M405.85,344.66 C405.85,292.12 405.85,221.47 405.85,172.99" fill="none" id="FORMAL_CHECKING-to-REPAIRING" style="stroke:#4A5568;stroke-width:1;"/><polygon fill="#4A5568" points="405.85,167.99,401.85,176.99,405.85,172.99,409.85,176.99,405.85,167.99" style="stroke:#4A5568;stroke-width:1;stroke-linejoin:miter;stroke-miterlimit:10;"/><text fill="#4A5568" font-family="Arial" font-size="21" font-weight="700" lengthAdjust="spacing" textLength="174.9624" x="230.85" y="276.8227">Conf(c,t) &lt; tau</text></g><!--link PATTERN_CHECKING to ACCEPTED--><g class="link" data-entity-1="ent0005" data-entity-2="ent0006" data-link-type="dependency" data-source-line="124" id="lnk14"><path d="M325.21,592.63 C325.21,604.18 325.21,611.55 325.21,623.09" fill="none" id="PATTERN_CHECKING-to-ACCEPTED" style="stroke:#4A5568;stroke-width:1;"/><polygon fill="#4A5568" points="325.21,628.09,329.21,619.09,325.21,623.09,321.21,619.09,325.21,628.09" style="stroke:#4A5568;stroke-width:1;stroke-linejoin:miter;stroke-miterlimit:10;"/><text fill="#4A5568" font-family="Arial" font-size="21" font-weight="700" lengthAdjust="spacing" textLength="129.0352" x="195.21" y="630.8527">P^H(c) = 0</text></g><!--link PATTERN_CHECKING to REPAIRING--><g class="link" data-entity-1="ent0005" data-entity-2="ent0004" data-link-type="dependency" data-source-line="125" id="lnk15"><path d="M334.14,498.5 C334.14,416.76 334.14,254.51 334.14,172.85" fill="none" id="PATTERN_CHECKING-to-REPAIRING" style="stroke:#4A5568;stroke-width:1;"/><polygon fill="#4A5568" points="334.14,167.85,330.14,176.85,334.14,172.85,338.14,176.85,334.14,167.85" style="stroke:#4A5568;stroke-width:1;stroke-linejoin:miter;stroke-miterlimit:10;"/><text fill="#4A5568" font-family="Arial" font-size="21" font-weight="700" lengthAdjust="spacing" textLength="187.6567" x="146.14" y="353.6627">pattern hits &gt; 0</text></g><!--link REPAIRING to SYNTHESIZING--><g class="link" data-entity-1="ent0004" data-entity-2="ent0002" data-link-type="dependency" data-source-line="127" id="lnk16"><path d="M459.09,168.03 C459.09,183.31 459.09,195.25 459.09,210.52" fill="none" id="REPAIRING-to-SYNTHESIZING" style="stroke:#4A5568;stroke-width:1;"/><polygon fill="#4A5568" points="459.09,215.52,463.09,206.52,459.09,210.52,455.09,206.52,459.09,215.52" style="stroke:#4A5568;stroke-width:1;stroke-linejoin:miter;stroke-miterlimit:10;"/><text fill="#4A5568" font-family="Arial" font-size="21" font-weight="700" lengthAdjust="spacing" textLength="80.0522" x="338.4545" y="212.2627">k &lt;= K</text><text fill="#4A5568" font-family="Arial" font-size="21" font-weight="700" lengthAdjust="spacing" textLength="160.7813" x="298.09" y="236.708">(increment k)</text></g><!--link REPAIRING to EXHAUSTED--><g class="link" data-entity-1="ent0004" data-entity-2="ent0007" data-link-type="dependency" data-source-line="128" id="lnk17"><path d="M238.26,167.96 C238.26,220.48 238.26,299.93 238.26,352.3" fill="none" id="REPAIRING-to-EXHAUSTED" style="stroke:#4A5568;stroke-width:1;"/><polygon fill="#4A5568" points="238.26,357.3,242.26,348.3,238.26,352.3,234.26,348.3,238.26,357.3" style="stroke:#4A5568;stroke-width:1;stroke-linejoin:miter;stroke-miterlimit:10;"/><text fill="#4A5568" font-family="Arial" font-size="21" font-weight="700" lengthAdjust="spacing" textLength="62.4565" x="175.26" y="257.1227">k &gt; K</text></g><!--link ACCEPTED to *end*--><g class="link" data-entity-1="ent0006" data-entity-2="ent0018" data-link-type="dependency" data-source-line="130" id="lnk19"><path d="M232.21,722.01 C232.21,735.13 232.21,743.22 232.21,752.17" fill="none" id="ACCEPTED-to-*end*" style="stroke:#4A5568;stroke-width:1;"/><polygon fill="#4A5568" points="232.21,757.17,236.21,748.17,232.21,752.17,228.21,748.17,232.21,757.17" style="stroke:#4A5568;stroke-width:1;stroke-linejoin:miter;stroke-miterlimit:10;"/></g><!--link EXHAUSTED to *end*--><g class="link" data-entity-1="ent0007" data-entity-2="ent0018" data-link-type="dependency" data-source-line="131" id="lnk20"><path d="M99.38,450.92 C99.38,549.38 99.38,768.57 99.38,768.57 C99.38,768.57 183.76,768.57 215.89,768.57" fill="none" id="EXHAUSTED-to-*end*" style="stroke:#4A5568;stroke-width:1;"/><polygon fill="#4A5568" points="220.89,768.57,211.89,764.57,215.89,768.57,211.89,772.57,220.89,768.57" style="stroke:#4A5568;stroke-width:1;stroke-linejoin:miter;stroke-miterlimit:10;"/></g><?plantuml-src pLRDSk964BxhARegXyM98HXZZ5ssgsGX30LcAM2t4eTaQv0Qc4NCQ6T6DaugLNc8F66U92tn9q0u5n_22VNFrptzTS_q1xXzpv_r0HhzRjwUy02X6p1XFZssuP-__eQ0JwO6GXQWCGYv0PyzvHa91Ved1O0EC_mPGK-PBr-uc03NyB5U9xmHUYpI22qbP_p71yLOyFbnY-qffgUeGGhuofvPWRsO0f-p2HPQg0G6a3ihb8gbIc5nKY2q_kS7y9KCyyj86fX2uE8hUWPz2AKsUON2HqL2MFxx4aRpe12-nkxlMonBpxW8cMBprC77BD2OqeoODvie6GdVaO5Ky5qz-QKi4gKdwRGAgYcvZsCM1QOkXUcmEOAjE0kozNt-EqBfx8ZIl1AR8ndusVfLNcSsrTb9cGHSe7aD4QGoKvbI2EcZnX1AwMmL4xDOU5v9ryLMIhwi0fJjYujATL-Pok2uGUe8nA8JCAt1vsn2HZffJot71ZIr3UI4X54GuKaAnqiS_h00xW_OgDJjUYNMI4NDif9UENQzMYNfONsMidN1Lr_Rz01iOnGVHGPJlgNQ-MMvkg_SWkoAqsWDP9JMGTgribkkbJVwh3ItccMSNUjKa3_JX7bo7ag1mcINowtLI_NB_NAjY7kZN4UYXOGVavPDpILHu-p7Skvh5svnDzQcl6_5uiAW6ZFlMBJbMEv5iukswnJ_0rdZjmZ52hZDnzYcoSc6wJ9bkCT3klsErpPjb5dcb45MnVVKspRRLwGRxLuktc9WaKt28-fuwdR3f8L7IiOyUY-uUNtVBZi-b7r3Hr_vd5VjiyeL2TrDm8senjbS2Z-hE-nwCMMGJgnMgzoNYdizOPZ1_zVfTl8Jqhmr2CNzz6gLAxVaxgPtMIwNpeuCXqUR0ipP0agNnIAySDzCIPeKfTbf3k3cfYcukRk3QsXBvjEz8yPyCXGzUbaCZ17z-E4S2aRhnZmqS0l5jN__vywWuVQRJytE0-5qbVIeuH8eXmK1jDkF5D1CXqA7wC4F6xGrGFrZxz5kVt4QhjCwn7X0UeXZiwTpy9X6JKb5WluAd_ia7mg7xaYwgvESfPep6lqrTC_jsitU4hI78UCgmMmc6mevHF4bX0is3uCOcEuakKaFHj5uZ6eDrRK70xVNEPQc-yo2ABQRqcQMr_YCYkPfA99ddIvMgfiIUWrcEuxR7RWr0kb7NgfUgqFHsscu7lCuAPlqeSbvf-Q4odwsXd1_QjYV-akCEkD10d0V-HFYgmMucDAQHqjOJA69bA35JvjjrIphb-z_XNp-Bg7VIdeW_jeXypeU6sL0HSAoTZInwJvjrrjqMlKyf0MKreDzgzZpe9HqSk9kUSIxMp0iolJRifbsk4dihGFGs6DJvsle_jR8UIT9usQQfi5NT16NHiDTtEfRRKQLPd1p2wsXo77XAPp7h_NiPCzbIrTiVmSjozea5-k93cjhivPOoRsWacLVZhSv9fUCYZnYblRiJSTI_22YPP3KsaF159Sayt5n6a-We3QZJvgLKpB0HRZSqfzfsnzfL4GNoCYGMbkqgITNalKl?></g></svg>